<svg width="48" height="42" viewBox="0 0 48 42" fill="none" xmlns="http://www.w3.org/2000/svg">
<path d="M42.4533 2.65125C41.92 1.1025 40.4267 0 38.6667 0H9.33333C7.57333 0 6.10667 1.1025 5.54667 2.65125L0 18.375V39.375C0 40.8188 1.2 42 2.66667 42H5.33333C6.8 42 8 40.8188 8 39.375V36.75H40V39.375C40 40.8188 41.2 42 42.6667 42H45.3333C46.8 42 48 40.8188 48 39.375V18.375L42.4533 2.65125ZM10.2667 5.25H37.7067L40.5867 13.4137H7.38667L10.2667 5.25ZM42.6667 31.5H5.33333V18.375H42.6667V31.5Z" fill="black"/>
<path d="M12 28.875C14.2091 28.875 16 27.1121 16 24.9375C16 22.7629 14.2091 21 12 21C9.79086 21 8 22.7629 8 24.9375C8 27.1121 9.79086 28.875 12 28.875Z" fill="black"/>
<path d="M36 28.875C38.2091 28.875 40 27.1121 40 24.9375C40 22.7629 38.2091 21 36 21C33.7909 21 32 22.7629 32 24.9375C32 27.1121 33.7909 28.875 36 28.875Z" fill="black"/>
</svg>
