<svg width="14" height="14" viewBox="0 0 14 14" fill="none" xmlns="http://www.w3.org/2000/svg">
<path d="M3.30433 6.81818C3.30433 6.17022 3.46331 5.5786 3.78125 5.04332C4.0992 4.50805 4.52379 4.08345 5.05504 3.76953C5.59032 3.45159 6.18194 3.29261 6.8299 3.29261C7.39335 3.29261 7.91454 3.41536 8.39347 3.66087C8.8724 3.90234 9.26882 4.23437 9.58274 4.65696C9.89666 5.07955 10.0878 5.55445 10.1562 6.08168H8.58665C8.51421 5.70739 8.30895 5.40151 7.97088 5.16406C7.63684 4.92258 7.25651 4.80185 6.8299 4.80185C6.45964 4.80185 6.12157 4.8924 5.8157 5.07351C5.50982 5.25462 5.26634 5.49811 5.08523 5.80398C4.90412 6.10582 4.81357 6.44389 4.81357 6.81818C4.81357 7.18845 4.90412 7.52652 5.08523 7.83239C5.26634 8.13826 5.50982 8.38175 5.8157 8.56285C6.12157 8.74396 6.45964 8.83452 6.8299 8.83452C7.25651 8.83452 7.62074 8.71579 7.92259 8.47834C8.22443 8.23686 8.41359 7.92898 8.49006 7.55469H10.0597C9.99124 8.08191 9.80812 8.55682 9.5103 8.9794C9.21248 9.40199 8.83215 9.73603 8.36932 9.98153C7.90649 10.223 7.39335 10.3438 6.8299 10.3438C6.18194 10.3438 5.59032 10.1868 5.05504 9.87287C4.52379 9.55492 4.0992 9.12831 3.78125 8.59304C3.46331 8.05777 3.30433 7.46615 3.30433 6.81818ZM6.77557 13.1932C5.8982 13.1932 5.07315 13.0282 4.30043 12.6982C3.53172 12.3681 2.85357 11.9113 2.26598 11.3278C1.68241 10.7402 1.2236 10.062 0.88956 9.29332C0.559541 8.52462 0.396544 7.69957 0.400568 6.81818C0.404593 5.93679 0.571615 5.11174 0.901634 4.34304C1.23568 3.57434 1.69448 2.8982 2.27805 2.31463C2.86162 1.72704 3.53776 1.26823 4.30646 0.93821C5.07517 0.608191 5.8982 0.443182 6.77557 0.443182C7.65696 0.443182 8.48201 0.608191 9.25071 0.93821C10.0234 1.26823 10.6996 1.72704 11.2791 2.31463C11.8627 2.8982 12.3195 3.57434 12.6495 4.34304C12.9795 5.11174 13.1465 5.93679 13.1506 6.81818C13.1546 7.69957 12.9916 8.52462 12.6616 9.29332C12.3316 10.062 11.8748 10.7402 11.2912 11.3278C10.7076 11.9113 10.0295 12.3681 9.25675 12.6982C8.48402 13.0282 7.65696 13.1932 6.77557 13.1932ZM6.77557 11.5874C7.43561 11.5874 8.0554 11.4646 8.63494 11.2191C9.21449 10.9736 9.72159 10.6335 10.1562 10.1989C10.5949 9.76018 10.937 9.25308 11.1825 8.67756C11.428 8.09801 11.5488 7.48023 11.5447 6.82422C11.5447 6.16418 11.42 5.54439 11.1705 4.96484C10.925 4.3853 10.5829 3.8782 10.1442 3.44354C9.70952 3.00485 9.20443 2.66276 8.62891 2.41726C8.05339 2.17176 7.43561 2.049 6.77557 2.049C6.11956 2.049 5.50379 2.17176 4.92827 2.41726C4.35275 2.66276 3.84564 3.00485 3.40696 3.44354C2.9723 3.88222 2.63021 4.39134 2.38068 4.97088C2.13116 5.5464 2.00639 6.16418 2.00639 6.82422C2.00237 7.47621 2.12311 8.09197 2.36861 8.67152C2.61813 9.24704 2.96023 9.75414 3.39489 10.1928C3.83357 10.6275 4.34067 10.9696 4.91619 11.2191C5.49574 11.4646 6.11553 11.5874 6.77557 11.5874Z" fill="white"/>
</svg>
