<svg width="25" height="39" viewBox="0 0 25 39" fill="none" xmlns="http://www.w3.org/2000/svg">
<g style="mix-blend-mode:multiply" opacity="0.7">
<path opacity="0.01" fill-rule="evenodd" clip-rule="evenodd" d="M13.7303 24.3611V38.0481C13.7303 38.249 13.9109 38.3925 14.0916 38.3925H19.4211C19.6319 38.3925 19.7824 38.2203 19.7824 38.0481V24.1316H23.6365C23.8172 24.1316 23.9979 23.9881 23.9979 23.816L24.3592 19.6266C24.3592 19.4258 24.2086 19.2536 23.9979 19.2536H19.7523V16.2695C19.7523 15.5808 20.3545 15.0069 21.0772 15.0069H24.0581C24.2689 15.0069 24.4194 14.8348 24.4194 14.6626V10.4733C24.4194 10.2724 24.2388 10.129 24.0581 10.129H19.0297C16.0789 10.129 13.67 12.4245 13.67 15.2365V19.2823H10.9902C10.7795 19.2823 10.6289 19.4545 10.6289 19.6266V23.816C10.6289 24.0168 10.8096 24.1603 10.9902 24.1603H13.67V24.3898L13.7303 24.3611Z" fill="#FCFCFD"/>
<path opacity="0.03" fill-rule="evenodd" clip-rule="evenodd" d="M13.5798 24.2177V37.9047C13.5798 38.1055 13.7604 38.249 13.9411 38.249H19.2706C19.4814 38.249 19.6319 38.0768 19.6319 37.9047V23.9881H23.486C23.6667 23.9881 23.8474 23.8447 23.8474 23.6725L24.2087 19.4832C24.2087 19.2823 24.0581 19.1102 23.8474 19.1102H19.6018V16.126C19.6018 15.4373 20.204 14.8635 20.9267 14.8635H23.9076C24.1184 14.8635 24.2689 14.6913 24.2689 14.5191V10.3298C24.2689 10.129 24.0882 9.98549 23.9076 9.98549H18.8792C15.9284 9.98549 13.5195 12.281 13.5195 15.093V19.1388H10.8397C10.629 19.1388 10.4784 19.311 10.4784 19.4832V23.6725C10.4784 23.8734 10.6591 24.0168 10.8397 24.0168H13.5195V24.2464L13.5798 24.2177Z" fill="#FAFAFB"/>
<path opacity="0.04" fill-rule="evenodd" clip-rule="evenodd" d="M13.4593 24.1029V37.7899C13.4593 37.9908 13.6399 38.1342 13.8206 38.1342H19.1501C19.3609 38.1342 19.5114 37.9621 19.5114 37.7899V23.8733H23.3655C23.5462 23.8733 23.7269 23.7299 23.7269 23.5577L24.0882 19.3684C24.0882 19.1675 23.9376 18.9954 23.7269 18.9954H19.4813V16.0112C19.4813 15.3226 20.0835 14.7487 20.8062 14.7487H23.7871C23.9979 14.7487 24.1484 14.5765 24.1484 14.4044V10.215C24.1484 10.0142 23.9677 9.8707 23.7871 9.8707H18.7587C15.8079 9.8707 13.399 12.1662 13.399 14.9782V19.0241H10.7192C10.5085 19.0241 10.3579 19.1962 10.3579 19.3684V23.5577C10.3579 23.7586 10.5386 23.902 10.7192 23.902H13.399V24.1316L13.4593 24.1029Z" fill="#F7F7F9"/>
<path opacity="0.05" fill-rule="evenodd" clip-rule="evenodd" d="M13.3088 23.9594V37.6464C13.3088 37.8473 13.4894 37.9908 13.6701 37.9908H18.9996C19.2104 37.9908 19.3609 37.8186 19.3609 37.6464V23.7299H23.215C23.3957 23.7299 23.5764 23.5864 23.5764 23.4142L23.9377 19.2249C23.9377 19.0241 23.7871 18.8519 23.5764 18.8519H19.3308V15.8677C19.3308 15.1791 19.933 14.6052 20.6557 14.6052H23.6366C23.8474 14.6052 23.9979 14.4331 23.9979 14.2609V10.0716C23.9979 9.87071 23.8172 9.72724 23.6366 9.72724H18.6082C15.6574 9.72724 13.2485 12.0228 13.2485 14.8348V18.8806H10.5687C10.358 18.8806 10.2074 19.0528 10.2074 19.2249V23.4142C10.2074 23.6151 10.3881 23.7586 10.5687 23.7586H13.2485V23.9881L13.3088 23.9594Z" fill="#F4F4F7"/>
<path opacity="0.06" fill-rule="evenodd" clip-rule="evenodd" d="M13.1883 23.8447V37.5317C13.1883 37.7325 13.3689 37.876 13.5496 37.876H18.8791C19.0899 37.876 19.2404 37.7038 19.2404 37.5317V23.6151H23.0945C23.2752 23.6151 23.4559 23.4716 23.4559 23.2995L23.8172 19.1102C23.8172 18.9093 23.6666 18.7371 23.4559 18.7371H19.2103V15.753C19.2103 15.0643 19.8125 14.4904 20.5352 14.4904H23.5161C23.7269 14.4904 23.8774 14.3183 23.8774 14.1461V9.9568C23.8774 9.75594 23.6968 9.61246 23.5161 9.61246H18.4877C15.5369 9.61246 13.128 11.908 13.128 14.72V18.7658H10.4482C10.2375 18.7658 10.0869 18.938 10.0869 19.1102V23.2995C10.0869 23.5003 10.2676 23.6438 10.4482 23.6438H13.128V23.8734L13.1883 23.8447Z" fill="#F2F1F5"/>
<path opacity="0.08" fill-rule="evenodd" clip-rule="evenodd" d="M13.0378 23.7012V37.3882C13.0378 37.589 13.2184 37.7325 13.3991 37.7325H18.7286C18.9394 37.7325 19.0899 37.5604 19.0899 37.3882V23.4716H22.944C23.1247 23.4716 23.3054 23.3282 23.3054 23.156L23.6667 18.9667C23.6667 18.7658 23.5161 18.5937 23.3054 18.5937H19.0598V15.6095C19.0598 14.9208 19.662 14.347 20.3847 14.347H23.3656C23.5764 14.347 23.7269 14.1748 23.7269 14.0026V9.81332C23.7269 9.61246 23.5462 9.46899 23.3656 9.46899H18.3372C15.3864 9.46899 12.9775 11.7645 12.9775 14.5765V18.6224H10.2977C10.087 18.6224 9.9364 18.7945 9.9364 18.9667V23.156C9.9364 23.3569 10.1171 23.5003 10.2977 23.5003H12.9775V23.7299L13.0378 23.7012Z" fill="#EFEFF3"/>
<path opacity="0.09" fill-rule="evenodd" clip-rule="evenodd" d="M12.9173 23.5864V37.2734C12.9173 37.4743 13.098 37.6177 13.2787 37.6177H18.6082C18.8189 37.6177 18.9695 37.4456 18.9695 37.2734V23.3569H22.8236C23.0043 23.3569 23.1849 23.2134 23.1849 23.0412L23.5463 18.8519C23.5463 18.6511 23.3957 18.4789 23.1849 18.4789H18.9394V15.4947C18.9394 14.8061 19.5416 14.2322 20.2642 14.2322H23.2452C23.4559 14.2322 23.6065 14.06 23.6065 13.8879V9.69855C23.6065 9.4977 23.4258 9.35422 23.2452 9.35422H18.2167C15.2659 9.35422 12.8571 11.6497 12.8571 14.4617V18.5076H10.1773C9.96653 18.5076 9.81598 18.6797 9.81598 18.8519V23.0412C9.81598 23.2421 9.99664 23.3855 10.1773 23.3855H12.8571V23.6151L12.9173 23.5864Z" fill="#ECECF1"/>
<path opacity="0.1" fill-rule="evenodd" clip-rule="evenodd" d="M12.7668 23.4429V37.1299C12.7668 37.3308 12.9474 37.4743 13.1281 37.4743H18.4576C18.6684 37.4743 18.8189 37.3021 18.8189 37.1299V23.2134H22.673C22.8537 23.2134 23.0344 23.0699 23.0344 22.8978L23.3957 18.7084C23.3957 18.5076 23.2451 18.3354 23.0344 18.3354H18.7888V15.3512C18.7888 14.6626 19.391 14.0887 20.1137 14.0887H23.0946C23.3054 14.0887 23.4559 13.9166 23.4559 13.7444V9.55507C23.4559 9.35421 23.2753 9.21075 23.0946 9.21075H18.0662C15.1154 9.21075 12.7065 11.5063 12.7065 14.3183V18.3641H10.0267C9.81596 18.3641 9.66541 18.5363 9.66541 18.7084V22.8978C9.66541 23.0986 9.84608 23.2421 10.0267 23.2421H12.7065V23.4716L12.7668 23.4429Z" fill="#EAE9EF"/>
<path opacity="0.11" fill-rule="evenodd" clip-rule="evenodd" d="M12.6463 23.3282V37.0152C12.6463 37.216 12.827 37.3595 13.0077 37.3595H18.3372C18.5479 37.3595 18.6985 37.1873 18.6985 37.0152V23.0986H22.5526C22.7333 23.0986 22.9139 22.9551 22.9139 22.783L23.2753 18.5937C23.2753 18.3928 23.1247 18.2206 22.9139 18.2206H18.6684V15.2365C18.6684 14.5478 19.2706 13.9739 19.9932 13.9739H22.9742C23.1849 13.9739 23.3355 13.8018 23.3355 13.6296V9.44031C23.3355 9.23945 23.1548 9.09597 22.9742 9.09597H17.9457C14.9949 9.09597 12.5861 11.3915 12.5861 14.2035V18.2493H9.9063C9.69553 18.2493 9.54498 18.4215 9.54498 18.5937V22.783C9.54498 22.9838 9.72564 23.1273 9.9063 23.1273H12.5861V23.3569L12.6463 23.3282Z" fill="#E7E7ED"/>
<path opacity="0.13" fill-rule="evenodd" clip-rule="evenodd" d="M12.4958 23.1847V36.8717C12.4958 37.0726 12.6764 37.216 12.8571 37.216H18.1866C18.3974 37.216 18.5479 37.0439 18.5479 36.8717V22.9551H22.4021C22.5827 22.9551 22.7634 22.8117 22.7634 22.6395L23.1247 18.4502C23.1247 18.2493 22.9741 18.0772 22.7634 18.0772H18.5178V15.093C18.5178 14.4043 19.12 13.8305 19.8427 13.8305H22.8236C23.0344 13.8305 23.1849 13.6583 23.1849 13.4861V9.29682C23.1849 9.09597 23.0043 8.9525 22.8236 8.9525H17.7952C14.8444 8.9525 12.4356 11.248 12.4356 14.06V18.1059H9.75574C9.54497 18.1059 9.39441 18.278 9.39441 18.4502V22.6395C9.39441 22.8404 9.57508 22.9838 9.75574 22.9838H12.4356V23.2134L12.4958 23.1847Z" fill="#E4E4EA"/>
<path opacity="0.14" fill-rule="evenodd" clip-rule="evenodd" d="M12.3753 23.0699V36.7569C12.3753 36.9578 12.556 37.1013 12.7367 37.1013H18.0662C18.277 37.1013 18.4275 36.9291 18.4275 36.7569V22.8404H22.2816C22.4623 22.8404 22.6429 22.6969 22.6429 22.5247L23.0043 18.3354C23.0043 18.1346 22.8537 17.9624 22.6429 17.9624H18.3974V14.9782C18.3974 14.2896 18.9996 13.7157 19.7222 13.7157H22.7032C22.9139 13.7157 23.0645 13.5435 23.0645 13.3714V9.18206C23.0645 8.9812 22.8838 8.83772 22.7032 8.83772H17.6747C14.7239 8.83772 12.3151 11.1332 12.3151 13.9453V17.9911H9.63531C9.42453 17.9911 9.27399 18.1633 9.27399 18.3354V22.5247C9.27399 22.7256 9.45465 22.8691 9.63531 22.8691H12.3151V23.0986L12.3753 23.0699Z" fill="#E2E1E8"/>
<path opacity="0.15" fill-rule="evenodd" clip-rule="evenodd" d="M12.2248 22.9551V36.6421C12.2248 36.843 12.4054 36.9865 12.5861 36.9865H17.9156C18.1264 36.9865 18.2769 36.8143 18.2769 36.6421V22.7256H22.1311C22.3117 22.7256 22.4924 22.5821 22.4924 22.4099L22.8537 18.2206C22.8537 18.0198 22.7031 17.8476 22.4924 17.8476H18.2468V14.8635C18.2468 14.1748 18.849 13.6009 19.5717 13.6009H22.5526C22.7634 13.6009 22.9139 13.4288 22.9139 13.2566V9.06728C22.9139 8.86642 22.7333 8.72295 22.5526 8.72295H17.5242C14.5734 8.72295 12.1646 11.0185 12.1646 13.8305V17.8763H9.48474C9.27397 17.8763 9.12341 18.0485 9.12341 18.2206V22.4099C9.12341 22.6108 9.30408 22.7543 9.48474 22.7543H12.1646V22.9838L12.2248 22.9551Z" fill="#DFDFE6"/>
<path opacity="0.16" fill-rule="evenodd" clip-rule="evenodd" d="M12.1043 22.8117V36.4987C12.1043 36.6995 12.285 36.843 12.4657 36.843H17.7952C18.006 36.843 18.1565 36.6708 18.1565 36.4987V22.5821H22.0106C22.1913 22.5821 22.3719 22.4386 22.3719 22.2665L22.7333 18.0772C22.7333 17.8763 22.5827 17.7041 22.3719 17.7041H18.1264V14.72C18.1264 14.0313 18.7286 13.4574 19.4512 13.4574H22.4322C22.6429 13.4574 22.7935 13.2853 22.7935 13.1131V8.92381C22.7935 8.72295 22.6128 8.57948 22.4322 8.57948H17.4037C14.4529 8.57948 12.0441 10.875 12.0441 13.687V17.7328H9.36431C9.15354 17.7328 9.00299 17.905 9.00299 18.0772V22.2665C9.00299 22.4673 9.18365 22.6108 9.36431 22.6108H12.0441V22.8404L12.1043 22.8117Z" fill="#DDDCE4"/>
<path opacity="0.18" fill-rule="evenodd" clip-rule="evenodd" d="M11.9538 22.6969V36.3839C11.9538 36.5848 12.1344 36.7282 12.3151 36.7282H17.6446C17.8554 36.7282 18.0059 36.5561 18.0059 36.3839V22.4673H21.8601C22.0407 22.4673 22.2214 22.3239 22.2214 22.1517L22.5827 17.9624C22.5827 17.7615 22.4321 17.5894 22.2214 17.5894H17.9758V14.6052C17.9758 13.9166 18.578 13.3427 19.3007 13.3427H22.2816C22.4924 13.3427 22.6429 13.1705 22.6429 12.9983V8.80904C22.6429 8.60818 22.4623 8.46471 22.2816 8.46471H17.2532C14.3024 8.46471 11.8935 10.7602 11.8935 13.5722V17.6181H9.21374C9.00297 17.6181 8.85242 17.7902 8.85242 17.9624V22.1517C8.85242 22.3526 9.03308 22.496 9.21374 22.496H11.8935V22.7256L11.9538 22.6969Z" fill="#DAD9E2"/>
<path opacity="0.19" fill-rule="evenodd" clip-rule="evenodd" d="M11.8333 22.5534V36.2404C11.8333 36.4413 12.014 36.5848 12.1947 36.5848H17.5242C17.735 36.5848 17.8855 36.4126 17.8855 36.2404V22.3239H21.7396C21.9203 22.3239 22.1009 22.1804 22.1009 22.0082L22.4623 17.8189C22.4623 17.6181 22.3117 17.4459 22.1009 17.4459H17.8554V14.4617C17.8554 13.7731 18.4576 13.1992 19.1802 13.1992H22.1612C22.3719 13.1992 22.5225 13.027 22.5225 12.8549V8.66557C22.5225 8.46471 22.3418 8.32124 22.1612 8.32124H17.1328C14.182 8.32124 11.7731 10.6168 11.7731 13.4288V17.4746H9.09331C8.88254 17.4746 8.73199 17.6468 8.73199 17.8189V22.0082C8.73199 22.2091 8.91265 22.3526 9.09331 22.3526H11.7731V22.5821L11.8333 22.5534Z" fill="#D7D6E0"/>
<path opacity="0.2" fill-rule="evenodd" clip-rule="evenodd" d="M11.6828 22.4387V36.1257C11.6828 36.3265 11.8634 36.47 12.0441 36.47H17.3736C17.5844 36.47 17.7349 36.2978 17.7349 36.1257V22.2091H21.5891C21.7697 22.2091 21.9504 22.0656 21.9504 21.8935L22.3117 17.7042C22.3117 17.5033 22.1611 17.3311 21.9504 17.3311H17.7048V14.347C17.7048 13.6583 18.307 13.0844 19.0297 13.0844H22.0106C22.2214 13.0844 22.3719 12.9123 22.3719 12.7401V8.55079C22.3719 8.34993 22.1913 8.20647 22.0106 8.20647H16.9822C14.0314 8.20647 11.6226 10.502 11.6226 13.314V17.3598H8.94274C8.73197 17.3598 8.58142 17.532 8.58142 17.7042V21.8935C8.58142 22.0943 8.76208 22.2378 8.94274 22.2378H11.6226V22.4673L11.6828 22.4387Z" fill="#D5D4DE"/>
<path opacity="0.21" fill-rule="evenodd" clip-rule="evenodd" d="M11.5624 22.2952V35.9822C11.5624 36.1831 11.743 36.3265 11.9237 36.3265H17.2532C17.464 36.3265 17.6145 36.1544 17.6145 35.9822V22.0656H21.4686C21.6493 22.0656 21.83 21.9222 21.83 21.75L22.1913 17.5607C22.1913 17.3598 22.0407 17.1877 21.83 17.1877H17.5844V14.2035C17.5844 13.5148 18.1866 12.941 18.9093 12.941H21.8902C22.1009 12.941 22.2515 12.7688 22.2515 12.5966V8.40732C22.2515 8.20647 22.0708 8.06299 21.8902 8.06299H16.8618C13.911 8.06299 11.5021 10.3585 11.5021 13.1705V17.2164H8.82232C8.61155 17.2164 8.461 17.3885 8.461 17.5607V21.75C8.461 21.9509 8.64166 22.0943 8.82232 22.0943H11.5021V22.3239L11.5624 22.2952Z" fill="#D2D1DC"/>
<path opacity="0.23" fill-rule="evenodd" clip-rule="evenodd" d="M11.4419 22.1804V35.8674C11.4419 36.0683 11.6225 36.2117 11.8032 36.2117H17.1327C17.3435 36.2117 17.494 36.0396 17.494 35.8674V21.9508H21.3481C21.5288 21.9508 21.7095 21.8074 21.7095 21.6352L22.0708 17.4459C22.0708 17.245 21.9202 17.0729 21.7095 17.0729H17.4639V14.0887C17.4639 13.4001 18.0661 12.8262 18.7888 12.8262H21.7697C21.9805 12.8262 22.131 12.654 22.131 12.4819V8.29254C22.131 8.09169 21.9504 7.94822 21.7697 7.94822H16.7413C13.7905 7.94822 11.3816 10.2437 11.3816 13.0557V17.1016H8.70184C8.49106 17.1016 8.34052 17.2737 8.34052 17.4459V21.6352C8.34052 21.8361 8.52117 21.9795 8.70184 21.9795H11.3816V22.2091L11.4419 22.1804Z" fill="#CFCEDA"/>
<path opacity="0.24" fill-rule="evenodd" clip-rule="evenodd" d="M11.2914 22.0369V35.7239C11.2914 35.9248 11.472 36.0683 11.6527 36.0683H16.9822C17.193 36.0683 17.3435 35.8961 17.3435 35.7239V21.8074H21.1976C21.3783 21.8074 21.559 21.6639 21.559 21.4917L21.9203 17.3024C21.9203 17.1016 21.7697 16.9294 21.559 16.9294H17.3134V13.9452C17.3134 13.2566 17.9156 12.6827 18.6383 12.6827H21.6192C21.8299 12.6827 21.9805 12.5105 21.9805 12.3384V8.14907C21.9805 7.94822 21.7998 7.80475 21.6192 7.80475H16.5908C13.64 7.80475 11.2311 10.1003 11.2311 12.9123V16.9581H8.55132C8.34055 16.9581 8.19 17.1303 8.19 17.3024V21.4917C8.19 21.6926 8.37066 21.8361 8.55132 21.8361H11.2311V22.0656L11.2914 22.0369Z" fill="#CDCCD8"/>
<path opacity="0.25" fill-rule="evenodd" clip-rule="evenodd" d="M11.1709 21.9222V35.6092C11.1709 35.81 11.3516 35.9535 11.5323 35.9535H16.8618C17.0726 35.9535 17.2231 35.7813 17.2231 35.6092V21.6926H21.0772C21.2579 21.6926 21.4385 21.5491 21.4385 21.377L21.7999 17.1877C21.7999 16.9868 21.6493 16.8146 21.4385 16.8146H17.193V13.8305C17.193 13.1418 17.7952 12.5679 18.5178 12.5679H21.4988C21.7095 12.5679 21.8601 12.3958 21.8601 12.2236V8.0343C21.8601 7.83344 21.6794 7.68997 21.4988 7.68997H16.4703C13.5195 7.68997 11.1107 9.98548 11.1107 12.7975V16.8433H8.4309C8.22013 16.8433 8.06958 17.0155 8.06958 17.1877V21.377C8.06958 21.5778 8.25024 21.7213 8.4309 21.7213H11.1107V21.9508L11.1709 21.9222Z" fill="#CAC9D6"/>
<path opacity="0.26" fill-rule="evenodd" clip-rule="evenodd" d="M11.0204 21.7787V35.4657C11.0204 35.6666 11.201 35.81 11.3817 35.81H16.7112C16.922 35.81 17.0725 35.6379 17.0725 35.4657V21.5491H20.9266C21.1073 21.5491 21.288 21.4057 21.288 21.2335L21.6493 17.0442C21.6493 16.8433 21.4987 16.6712 21.288 16.6712H17.0424V13.687C17.0424 12.9984 17.6446 12.4245 18.3673 12.4245H21.3482C21.559 12.4245 21.7095 12.2523 21.7095 12.0801V7.89083C21.7095 7.68998 21.5288 7.54651 21.3482 7.54651H16.3198C13.369 7.54651 10.9601 9.84202 10.9601 12.654V16.6999H8.28033C8.06955 16.6999 7.91901 16.872 7.91901 17.0442V21.2335C7.91901 21.4344 8.09966 21.5778 8.28033 21.5778H10.9601V21.8074L11.0204 21.7787Z" fill="#C7C6D4"/>
<path opacity="0.28" fill-rule="evenodd" clip-rule="evenodd" d="M10.8999 21.6639V35.3509C10.8999 35.5518 11.0806 35.6952 11.2613 35.6952H16.5908C16.8016 35.6952 16.9521 35.5231 16.9521 35.3509V21.4344H20.8062C20.9869 21.4344 21.1675 21.2909 21.1675 21.1187L21.5289 16.9294C21.5289 16.7286 21.3783 16.5564 21.1675 16.5564H16.922V13.5722C16.922 12.8836 17.5242 12.3097 18.2468 12.3097H21.2278C21.4385 12.3097 21.5891 12.1375 21.5891 11.9654V7.77605C21.5891 7.57519 21.4084 7.43172 21.2278 7.43172H16.1993C13.2485 7.43172 10.8397 9.72724 10.8397 12.5392V16.5851H8.1599C7.94913 16.5851 7.79858 16.7572 7.79858 16.9294V21.1187C7.79858 21.3196 7.97924 21.4631 8.1599 21.4631H10.8397V21.6926L10.8999 21.6639Z" fill="#C5C4D2"/>
<path opacity="0.29" fill-rule="evenodd" clip-rule="evenodd" d="M10.7494 21.5204V35.2075C10.7494 35.4083 10.93 35.5518 11.1107 35.5518H16.4402C16.651 35.5518 16.8015 35.3796 16.8015 35.2075V21.2909H20.6556C20.8363 21.2909 21.017 21.1474 21.017 20.9753L21.3783 16.7859C21.3783 16.5851 21.2277 16.4129 21.017 16.4129H16.7714V13.4288C16.7714 12.7401 17.3736 12.1662 18.0963 12.1662H21.0772C21.288 12.1662 21.4385 11.9941 21.4385 11.8219V7.63259C21.4385 7.43173 21.2578 7.28826 21.0772 7.28826H16.0488C13.098 7.28826 10.6891 9.58377 10.6891 12.3958V16.4416H8.00933C7.79856 16.4416 7.64801 16.6138 7.64801 16.7859V20.9753C7.64801 21.1761 7.82867 21.3196 8.00933 21.3196H10.6891V21.5491L10.7494 21.5204Z" fill="#C2C1D0"/>
<path opacity="0.3" fill-rule="evenodd" clip-rule="evenodd" d="M10.6289 21.4057V35.0927C10.6289 35.2935 10.8096 35.437 10.9903 35.437H16.3198C16.5306 35.437 16.6811 35.2648 16.6811 35.0927V21.1761H20.5352C20.7159 21.1761 20.8966 21.0327 20.8966 20.8605L21.2579 16.6712C21.2579 16.4703 21.1073 16.2982 20.8966 16.2982H16.651V13.314C16.651 12.6253 17.2532 12.0515 17.9759 12.0515H20.9568C21.1675 12.0515 21.3181 11.8793 21.3181 11.7071V7.51781C21.3181 7.31695 21.1374 7.17348 20.9568 7.17348H15.9284C12.9775 7.17348 10.5687 9.469 10.5687 12.281V16.3268H7.88891C7.67814 16.3268 7.52759 16.499 7.52759 16.6712V20.8605C7.52759 21.0613 7.70825 21.2048 7.88891 21.2048H10.5687V21.4344L10.6289 21.4057Z" fill="#BFBECE"/>
<path opacity="0.31" fill-rule="evenodd" clip-rule="evenodd" d="M10.4784 21.2622V34.9492C10.4784 35.1501 10.659 35.2935 10.8397 35.2935H16.1692C16.38 35.2935 16.5305 35.1214 16.5305 34.9492V21.0326H20.3846C20.5653 21.0326 20.746 20.8892 20.746 20.717L21.1073 16.5277C21.1073 16.3268 20.9567 16.1547 20.746 16.1547H16.5004V13.1705C16.5004 12.4819 17.1026 11.908 17.8253 11.908H20.8062C21.017 11.908 21.1675 11.7358 21.1675 11.5636V7.37434C21.1675 7.17348 20.9869 7.03001 20.8062 7.03001H15.7778C12.827 7.03001 10.4181 9.32552 10.4181 12.1375V16.1834H7.73833C7.52756 16.1834 7.37701 16.3555 7.37701 16.5277V20.717C7.37701 20.9179 7.55767 21.0613 7.73833 21.0613H10.4181V21.2909L10.4784 21.2622Z" fill="#BDBBCC"/>
<path opacity="0.33" fill-rule="evenodd" clip-rule="evenodd" d="M10.358 21.1474V34.8344C10.358 35.0353 10.5386 35.1788 10.7193 35.1788H16.0488C16.2596 35.1788 16.4101 35.0066 16.4101 34.8344V20.9179H20.2642C20.4449 20.9179 20.6256 20.7744 20.6256 20.6022L20.9869 16.4129C20.9869 16.2121 20.8363 16.0399 20.6256 16.0399H16.38V13.0557C16.38 12.3671 16.9822 11.7932 17.7049 11.7932H20.6858C20.8965 11.7932 21.0471 11.621 21.0471 11.4489V7.25956C21.0471 7.0587 20.8664 6.91524 20.6858 6.91524H15.6574C12.7066 6.91524 10.2977 9.21075 10.2977 12.0228V16.0686H7.61791C7.40714 16.0686 7.25659 16.2408 7.25659 16.4129V20.6022C7.25659 20.8031 7.43725 20.9466 7.61791 20.9466H10.2977V21.1761L10.358 21.1474Z" fill="#BAB9CA"/>
<path opacity="0.34" fill-rule="evenodd" clip-rule="evenodd" d="M10.2074 21.0326V34.7197C10.2074 34.9205 10.388 35.064 10.5687 35.064H15.8982C16.109 35.064 16.2595 34.8918 16.2595 34.7197V20.8031H20.1137C20.2943 20.8031 20.475 20.6596 20.475 20.4875L20.8363 16.2982C20.8363 16.0973 20.6857 15.9251 20.475 15.9251H16.2294V12.941C16.2294 12.2523 16.8316 11.6784 17.5543 11.6784H20.5352C20.746 11.6784 20.8965 11.5063 20.8965 11.3341V7.14478C20.8965 6.94393 20.7159 6.80046 20.5352 6.80046H15.5068C12.556 6.80046 10.1471 9.09597 10.1471 11.908V15.9538H7.46734C7.25657 15.9538 7.10602 16.126 7.10602 16.2982V20.4875C7.10602 20.6883 7.28668 20.8318 7.46734 20.8318H10.1471V21.0613L10.2074 21.0326Z" fill="#B7B6C8"/>
<path opacity="0.35" fill-rule="evenodd" clip-rule="evenodd" d="M10.087 20.8892V34.5762C10.087 34.777 10.2676 34.9205 10.4483 34.9205H15.7778C15.9886 34.9205 16.1391 34.7483 16.1391 34.5762V20.6596H19.9932C20.1739 20.6596 20.3546 20.5162 20.3546 20.344L20.7159 16.1547C20.7159 15.9538 20.5653 15.7817 20.3546 15.7817H16.109V12.7975C16.109 12.1088 16.7112 11.535 17.4339 11.535H20.4148C20.6255 11.535 20.7761 11.3628 20.7761 11.1906V7.00131C20.7761 6.80046 20.5954 6.65699 20.4148 6.65699H15.3864C12.4356 6.65699 10.0267 8.9525 10.0267 11.7645V15.8104H7.34693C7.13616 15.8104 6.9856 15.9825 6.9856 16.1547V20.344C6.9856 20.5449 7.16627 20.6883 7.34693 20.6883H10.0267V20.9179L10.087 20.8892Z" fill="#B5B3C6"/>
<path opacity="0.36" fill-rule="evenodd" clip-rule="evenodd" d="M9.93638 20.7744V34.4614C9.93638 34.6623 10.117 34.8057 10.2977 34.8057H15.6272C15.838 34.8057 15.9885 34.6336 15.9885 34.4614V20.5449H19.8427C20.0233 20.5449 20.204 20.4014 20.204 20.2292L20.5653 16.0399C20.5653 15.8391 20.4147 15.6669 20.204 15.6669H15.9584V12.6827C15.9584 11.9941 16.5606 11.4202 17.2833 11.4202H20.2642C20.475 11.4202 20.6255 11.248 20.6255 11.0759V6.88654C20.6255 6.68568 20.4449 6.54221 20.2642 6.54221H15.2358C12.285 6.54221 9.87615 8.83772 9.87615 11.6497V15.6956H7.19634C6.98557 15.6956 6.83502 15.8677 6.83502 16.0399V20.2292C6.83502 20.4301 7.01568 20.5735 7.19634 20.5735H9.87615V20.8031L9.93638 20.7744Z" fill="#B2B1C4"/>
<path opacity="0.38" fill-rule="evenodd" clip-rule="evenodd" d="M9.81596 20.6309V34.3179C9.81596 34.5188 9.99662 34.6623 10.1773 34.6623H15.5068C15.7176 34.6623 15.8681 34.4901 15.8681 34.3179V20.4014H19.7222C19.9029 20.4014 20.0836 20.2579 20.0836 20.0857L20.4449 15.8964C20.4449 15.6956 20.2943 15.5234 20.0836 15.5234H15.838V12.5392C15.838 11.8506 16.4402 11.2767 17.1629 11.2767H20.1438C20.3546 11.2767 20.5051 11.1045 20.5051 10.9324V6.74307C20.5051 6.54221 20.3244 6.39874 20.1438 6.39874H15.1154C12.1646 6.39874 9.75574 8.69425 9.75574 11.5063V15.5521H7.07593C6.86516 15.5521 6.7146 15.7243 6.7146 15.8964V20.0857C6.7146 20.2866 6.89527 20.4301 7.07593 20.4301H9.75574V20.6596L9.81596 20.6309Z" fill="#AFAEC1"/>
<path opacity="0.39" fill-rule="evenodd" clip-rule="evenodd" d="M9.66538 20.5162V34.2032C9.66538 34.404 9.84605 34.5475 10.0267 34.5475H15.3562C15.567 34.5475 15.7175 34.3753 15.7175 34.2032V20.2866H19.5717C19.7523 20.2866 19.933 20.1431 19.933 19.971L20.2943 15.7817C20.2943 15.5808 20.1437 15.4086 19.933 15.4086H15.6874V12.4245C15.6874 11.7358 16.2896 11.1619 17.0123 11.1619H19.9932C20.204 11.1619 20.3545 10.9898 20.3545 10.8176V6.62829C20.3545 6.42743 20.1739 6.28397 19.9932 6.28397H14.9648C12.014 6.28397 9.60517 8.57949 9.60517 11.3915V15.4373H6.92535C6.71457 15.4373 6.56403 15.6095 6.56403 15.7817V19.971C6.56403 20.1718 6.74468 20.3153 6.92535 20.3153H9.60517V20.5449L9.66538 20.5162Z" fill="#ADABBF"/>
<path opacity="0.4" fill-rule="evenodd" clip-rule="evenodd" d="M9.54497 20.3727V34.0597C9.54497 34.2605 9.72563 34.404 9.90629 34.404H15.2358C15.4466 34.404 15.5971 34.2319 15.5971 34.0597V20.1431H19.4512C19.6319 20.1431 19.8126 19.9997 19.8126 19.8275L20.1739 15.6382C20.1739 15.4373 20.0233 15.2652 19.8126 15.2652H15.567V12.281C15.567 11.5923 16.1692 11.0185 16.8919 11.0185H19.8728C20.0836 11.0185 20.2341 10.8463 20.2341 10.6741V6.48482C20.2341 6.28396 20.0535 6.1405 19.8728 6.1405H14.8444C11.8936 6.1405 9.48475 8.43601 9.48475 11.248V15.2939H6.80493C6.59416 15.2939 6.4436 15.466 6.4436 15.6382V19.8275C6.4436 20.0284 6.62427 20.1718 6.80493 20.1718H9.48475V20.4014L9.54497 20.3727Z" fill="#AAA9BD"/>
<path opacity="0.41" fill-rule="evenodd" clip-rule="evenodd" d="M9.42453 20.2579V33.9449C9.42453 34.1458 9.60519 34.2892 9.78585 34.2892H15.1154C15.3261 34.2892 15.4767 34.1171 15.4767 33.9449V20.0284H19.3308C19.5115 20.0284 19.6921 19.8849 19.6921 19.7127L20.0535 15.5234C20.0535 15.3226 19.9029 15.1504 19.6921 15.1504H15.4466V12.1662C15.4466 11.4776 16.0488 10.9037 16.7714 10.9037H19.7524C19.9631 10.9037 20.1137 10.7315 20.1137 10.5594V6.37005C20.1137 6.1692 19.933 6.02572 19.7524 6.02572H14.7239C11.7731 6.02572 9.36431 8.32124 9.36431 11.1332V15.1791H6.6845C6.47373 15.1791 6.32318 15.3513 6.32318 15.5234V19.7127C6.32318 19.9136 6.50384 20.0571 6.6845 20.0571H9.36431V20.2866L9.42453 20.2579Z" fill="#A8A6BB"/>
<path opacity="0.43" fill-rule="evenodd" clip-rule="evenodd" d="M9.27397 20.1144V33.8014C9.27397 34.0023 9.45463 34.1458 9.63529 34.1458H14.9648C15.1756 34.1458 15.3261 33.9736 15.3261 33.8014V19.8849H19.1802C19.3609 19.8849 19.5416 19.7414 19.5416 19.5693L19.9029 15.38C19.9029 15.1791 19.7523 15.0069 19.5416 15.0069H15.296V12.0228C15.296 11.3341 15.8982 10.7602 16.6209 10.7602H19.6018C19.8126 10.7602 19.9631 10.5881 19.9631 10.4159V6.22658C19.9631 6.02572 19.7825 5.88226 19.6018 5.88226H14.5734C11.6226 5.88226 9.21375 8.17777 9.21375 10.9898V15.0356H6.53394C6.32317 15.0356 6.17261 15.2078 6.17261 15.38V19.5693C6.17261 19.7701 6.35328 19.9136 6.53394 19.9136H9.21375V20.1431L9.27397 20.1144Z" fill="#A5A3B9"/>
<path opacity="0.44" fill-rule="evenodd" clip-rule="evenodd" d="M9.15354 19.9997V33.6867C9.15354 33.8875 9.3342 34.031 9.51486 34.031H14.8444C15.0551 34.031 15.2057 33.8588 15.2057 33.6867V19.7701H19.0598C19.2405 19.7701 19.4211 19.6266 19.4211 19.4545L19.7825 15.2652C19.7825 15.0643 19.6319 14.8921 19.4211 14.8921H15.1756V11.908C15.1756 11.2193 15.7778 10.6454 16.5004 10.6454H19.4814C19.6921 10.6454 19.8427 10.4733 19.8427 10.3011V6.11181C19.8427 5.91095 19.662 5.76747 19.4814 5.76747H14.4529C11.5021 5.76747 9.09332 8.06299 9.09332 10.875V14.9208H6.41351C6.20273 14.9208 6.05219 15.093 6.05219 15.2652V19.4545C6.05219 19.6553 6.23284 19.7988 6.41351 19.7988H9.09332V20.0284L9.15354 19.9997Z" fill="#A2A0B7"/>
<path opacity="0.45" fill-rule="evenodd" clip-rule="evenodd" d="M9.00298 19.8562V33.5432C9.00298 33.7441 9.18363 33.8875 9.3643 33.8875H14.6938C14.9046 33.8875 15.0551 33.7154 15.0551 33.5432V19.6266H18.9092C19.0899 19.6266 19.2706 19.4832 19.2706 19.311L19.6319 15.1217C19.6319 14.9208 19.4813 14.7487 19.2706 14.7487H15.025V11.7645C15.025 11.0759 15.6272 10.502 16.3499 10.502H19.3308C19.5416 10.502 19.6921 10.3298 19.6921 10.1577V5.96833C19.6921 5.76747 19.5115 5.62401 19.3308 5.62401H14.3024C11.3516 5.62401 8.94275 7.91952 8.94275 10.7315V14.7774H6.26294C6.05217 14.7774 5.90161 14.9495 5.90161 15.1217V19.311C5.90161 19.5119 6.08228 19.6553 6.26294 19.6553H8.94275V19.8849L9.00298 19.8562Z" fill="#A09EB5"/>
<path opacity="0.46" fill-rule="evenodd" clip-rule="evenodd" d="M8.88254 19.7414V33.4284C8.88254 33.6293 9.0632 33.7728 9.24386 33.7728H14.5734C14.7842 33.7728 14.9347 33.6006 14.9347 33.4284V19.5119H18.7888C18.9695 19.5119 19.1501 19.3684 19.1501 19.1962L19.5115 15.0069C19.5115 14.8061 19.3609 14.6339 19.1501 14.6339H14.9046V11.6497C14.9046 10.9611 15.5068 10.3872 16.2294 10.3872H19.2104C19.4211 10.3872 19.5717 10.215 19.5717 10.0429V5.85357C19.5717 5.65271 19.391 5.50923 19.2104 5.50923H14.1819C11.2311 5.50923 8.82232 7.80475 8.82232 10.6168V14.6626H6.14251C5.93174 14.6626 5.78119 14.8348 5.78119 15.0069V19.1962C5.78119 19.3971 5.96185 19.5406 6.14251 19.5406H8.82232V19.7701L8.88254 19.7414Z" fill="#9D9BB3"/>
<path opacity="0.48" fill-rule="evenodd" clip-rule="evenodd" d="M8.73198 19.5979V33.285C8.73198 33.4858 8.91264 33.6293 9.0933 33.6293H14.4228C14.6336 33.6293 14.7841 33.4571 14.7841 33.285V19.3684H18.6383C18.8189 19.3684 18.9996 19.2249 18.9996 19.0528L19.3609 14.8635C19.3609 14.6626 19.2104 14.4904 18.9996 14.4904H14.754V11.5063C14.754 10.8176 15.3562 10.2437 16.0789 10.2437H19.0598C19.2706 10.2437 19.4211 10.0716 19.4211 9.89941V5.71008C19.4211 5.50923 19.2405 5.36576 19.0598 5.36576H14.0314C11.0806 5.36576 8.67176 7.66127 8.67176 10.4733V14.5191H5.99195C5.78117 14.5191 5.63062 14.6913 5.63062 14.8635V19.0528C5.63062 19.2536 5.81129 19.3971 5.99195 19.3971H8.67176V19.6266L8.73198 19.5979Z" fill="#9A98B1"/>
<path opacity="0.49" fill-rule="evenodd" clip-rule="evenodd" d="M8.61155 19.4832V33.1702C8.61155 33.371 8.7922 33.5145 8.97287 33.5145H14.3024C14.5132 33.5145 14.6637 33.3423 14.6637 33.1702V19.2536H18.5178C18.6985 19.2536 18.8791 19.1102 18.8791 18.938L19.2405 14.7487C19.2405 14.5478 19.0899 14.3757 18.8791 14.3757H14.6336V11.3915C14.6336 10.7028 15.2358 10.129 15.9584 10.129H18.9394C19.1501 10.129 19.3007 9.95679 19.3007 9.78463V5.59532C19.3007 5.39446 19.12 5.25098 18.9394 5.25098H13.9109C10.9601 5.25098 8.55132 7.54651 8.55132 10.3585V14.4044H5.87151C5.66074 14.4044 5.51019 14.5765 5.51019 14.7487V18.938C5.51019 19.1388 5.69085 19.2823 5.87151 19.2823H8.55132V19.5119L8.61155 19.4832Z" fill="#9896AF"/>
<path opacity="0.5" fill-rule="evenodd" clip-rule="evenodd" d="M8.46098 19.3397V33.0267C8.46098 33.2276 8.64164 33.371 8.8223 33.371H14.1518C14.3626 33.371 14.5131 33.1989 14.5131 33.0267V19.1102H18.3673C18.5479 19.1102 18.7286 18.9667 18.7286 18.7945L19.0899 14.6052C19.0899 14.4044 18.9394 14.2322 18.7286 14.2322H14.483V11.248C14.483 10.5594 15.0852 9.98548 15.8079 9.98548H18.7888C18.9996 9.98548 19.1501 9.81332 19.1501 9.64116V5.45184C19.1501 5.25098 18.9695 5.10751 18.7888 5.10751H13.7604C10.8096 5.10751 8.40076 7.40302 8.40076 10.215V14.2609H5.72095C5.51018 14.2609 5.35962 14.433 5.35962 14.6052V18.7945C5.35962 18.9954 5.54029 19.1388 5.72095 19.1388H8.40076V19.3684L8.46098 19.3397Z" fill="#9593AD"/>
<path opacity="0.51" fill-rule="evenodd" clip-rule="evenodd" d="M8.34055 19.2249V32.9119C8.34055 33.1128 8.52121 33.2563 8.70187 33.2563H14.0314C14.2422 33.2563 14.3927 33.0841 14.3927 32.9119V18.9954H18.2468C18.4275 18.9954 18.6081 18.8519 18.6081 18.6797L18.9695 14.4904C18.9695 14.2896 18.8189 14.1174 18.6081 14.1174H14.3626V11.1332C14.3626 10.4446 14.9648 9.87071 15.6875 9.87071H18.6684C18.8791 9.87071 19.0297 9.69855 19.0297 9.52638V5.33707C19.0297 5.13621 18.849 4.99274 18.6684 4.99274H13.64C10.6891 4.99274 8.28033 7.28826 8.28033 10.1003V14.1461H5.60052C5.38974 14.1461 5.2392 14.3183 5.2392 14.4904V18.6797C5.2392 18.8806 5.41986 19.0241 5.60052 19.0241H8.28033V19.2536L8.34055 19.2249Z" fill="#9290AB"/>
<path opacity="0.52" fill-rule="evenodd" clip-rule="evenodd" d="M8.18998 19.1102V32.7972C8.18998 32.998 8.37063 33.1415 8.5513 33.1415H13.8808C14.0916 33.1415 14.2421 32.9693 14.2421 32.7972V18.8806H18.0963C18.2769 18.8806 18.4576 18.7371 18.4576 18.565L18.8189 14.3757C18.8189 14.1748 18.6683 14.0026 18.4576 14.0026H14.212V11.0185C14.212 10.3298 14.8142 9.75593 15.5369 9.75593H18.5178C18.7286 9.75593 18.8791 9.58377 18.8791 9.4116V5.22229C18.8791 5.02143 18.6985 4.87797 18.5178 4.87797H13.4894C10.5386 4.87797 8.12975 7.17348 8.12975 9.98548V14.0313H5.44994C5.23917 14.0313 5.08862 14.2035 5.08862 14.3757V18.565C5.08862 18.7658 5.26928 18.9093 5.44994 18.9093H8.12975V19.1388L8.18998 19.1102Z" fill="#908EA9"/>
<path opacity="0.54" fill-rule="evenodd" clip-rule="evenodd" d="M8.06955 18.9667V32.6537C8.06955 32.8546 8.25021 32.998 8.43087 32.998H13.7604C13.9712 32.998 14.1217 32.8259 14.1217 32.6537V18.7371H17.9758C18.1565 18.7371 18.3372 18.5937 18.3372 18.4215L18.6985 14.2322C18.6985 14.0313 18.5479 13.8592 18.3372 13.8592H14.0916V10.875C14.0916 10.1863 14.6938 9.61246 15.4165 9.61246H18.3974C18.6081 9.61246 18.7587 9.4403 18.7587 9.26814V5.07882C18.7587 4.87797 18.578 4.73449 18.3974 4.73449H13.369C10.4182 4.73449 8.00933 7.03001 8.00933 9.84202V13.8879H5.32952C5.11875 13.8879 4.9682 14.06 4.9682 14.2322V18.4215C4.9682 18.6224 5.14886 18.7658 5.32952 18.7658H8.00933V18.9954L8.06955 18.9667Z" fill="#8D8BA7"/>
<path opacity="0.55" fill-rule="evenodd" clip-rule="evenodd" d="M7.91898 18.8519V32.5389C7.91898 32.7398 8.09964 32.8832 8.2803 32.8832H13.6098C13.8206 32.8832 13.9711 32.7111 13.9711 32.5389V18.6224H17.8253C18.0059 18.6224 18.1866 18.4789 18.1866 18.3067L18.5479 14.1174C18.5479 13.9165 18.3974 13.7444 18.1866 13.7444H13.941V10.7602C13.941 10.0716 14.5432 9.49768 15.2659 9.49768H18.2468C18.4576 9.49768 18.6081 9.32552 18.6081 9.15336V4.96404C18.6081 4.76319 18.4275 4.61972 18.2468 4.61972H13.2184C10.2676 4.61972 7.85876 6.91523 7.85876 9.72724V13.7731H5.17895C4.96818 13.7731 4.81763 13.9452 4.81763 14.1174V18.3067C4.81763 18.5076 4.99829 18.6511 5.17895 18.6511H7.85876V18.8806L7.91898 18.8519Z" fill="#8A88A5"/>
<path opacity="0.56" fill-rule="evenodd" clip-rule="evenodd" d="M7.79856 18.7084V32.3954C7.79856 32.5963 7.97922 32.7398 8.15988 32.7398H13.4894C13.7002 32.7398 13.8507 32.5676 13.8507 32.3954V18.4789H17.7048C17.8855 18.4789 18.0662 18.3354 18.0662 18.1632L18.4275 13.9739C18.4275 13.7731 18.2769 13.6009 18.0662 13.6009H13.8206V10.6168C13.8206 9.9281 14.4228 9.35421 15.1455 9.35421H18.1264C18.3372 9.35421 18.4877 9.18205 18.4877 9.00989V4.82058C18.4877 4.61972 18.307 4.47624 18.1264 4.47624H13.098C10.1472 4.47624 7.73834 6.77176 7.73834 9.58377V13.6296H5.05852C4.84775 13.6296 4.6972 13.8018 4.6972 13.9739V18.1632C4.6972 18.3641 4.87786 18.5076 5.05852 18.5076H7.73834V18.7371L7.79856 18.7084Z" fill="#8886A3"/>
<path opacity="0.57" fill-rule="evenodd" clip-rule="evenodd" d="M7.64798 18.5937V32.2807C7.64798 32.4815 7.82864 32.625 8.0093 32.625H13.3388C13.5496 32.625 13.7001 32.4528 13.7001 32.2807V18.3641H17.5543C17.7349 18.3641 17.9156 18.2207 17.9156 18.0485L18.2769 13.8592C18.2769 13.6583 18.1264 13.4862 17.9156 13.4862H13.67V10.502C13.67 9.81333 14.2722 9.23945 14.9949 9.23945H17.9758C18.1866 9.23945 18.3371 9.06728 18.3371 8.89512V4.7058C18.3371 4.50495 18.1565 4.36148 17.9758 4.36148H12.9474C9.99658 4.36148 7.58776 6.65699 7.58776 9.469V13.5148H4.90795C4.69718 13.5148 4.54663 13.687 4.54663 13.8592V18.0485C4.54663 18.2493 4.72729 18.3928 4.90795 18.3928H7.58776V18.6224L7.64798 18.5937Z" fill="#8583A1"/>
<path opacity="0.59" fill-rule="evenodd" clip-rule="evenodd" d="M7.52756 18.4502V32.1372C7.52756 32.3381 7.70822 32.4815 7.88888 32.4815H13.2184C13.4292 32.4815 13.5797 32.3094 13.5797 32.1372V18.2206H17.4338C17.6145 18.2206 17.7952 18.0772 17.7952 17.905L18.1565 13.7157C18.1565 13.5148 18.0059 13.3427 17.7952 13.3427H13.5496V10.3585C13.5496 9.66986 14.1518 9.09597 14.8745 9.09597H17.8554C18.0662 9.09597 18.2167 8.92381 18.2167 8.75165V4.56233C18.2167 4.36148 18.036 4.21801 17.8554 4.21801H12.827C9.87617 4.21801 7.46734 6.51352 7.46734 9.32553V13.3714H4.78753C4.57676 13.3714 4.42621 13.5435 4.42621 13.7157V17.905C4.42621 18.1059 4.60687 18.2493 4.78753 18.2493H7.46734V18.4789L7.52756 18.4502Z" fill="#82809F"/>
<path opacity="0.6" fill-rule="evenodd" clip-rule="evenodd" d="M7.40714 18.3354V32.0224C7.40714 32.2233 7.58781 32.3668 7.76847 32.3668H13.098C13.3088 32.3668 13.4593 32.1946 13.4593 32.0224V18.1059H17.3134C17.4941 18.1059 17.6747 17.9624 17.6747 17.7902L18.0361 13.6009C18.0361 13.4001 17.8855 13.2279 17.6747 13.2279H13.4292V10.2437C13.4292 9.55508 14.0314 8.9812 14.7541 8.9812H17.735C17.9457 8.9812 18.0963 8.80903 18.0963 8.63687V4.44756C18.0963 4.2467 17.9156 4.10323 17.735 4.10323H12.7066C9.75575 4.10323 7.34693 6.39874 7.34693 9.21075V13.2566H4.66711C4.45633 13.2566 4.30579 13.4288 4.30579 13.6009V17.7902C4.30579 17.9911 4.48644 18.1346 4.66711 18.1346H7.34693V18.3641L7.40714 18.3354Z" fill="#807D9D"/>
<path opacity="0.61" fill-rule="evenodd" clip-rule="evenodd" d="M7.25657 18.1919V31.879C7.25657 32.0798 7.43722 32.2233 7.61789 32.2233H12.9474C13.1582 32.2233 13.3087 32.0511 13.3087 31.879V17.9624H17.1628C17.3435 17.9624 17.5242 17.8189 17.5242 17.6468L17.8855 13.4574C17.8855 13.2566 17.7349 13.0844 17.5242 13.0844H13.2786V10.1003C13.2786 9.41161 13.8808 8.83772 14.6035 8.83772H17.5844C17.7952 8.83772 17.9457 8.66556 17.9457 8.4934V4.30409C17.9457 4.10323 17.765 3.95976 17.5844 3.95976H12.556C9.60517 3.95976 7.19634 6.25527 7.19634 9.06728V13.1131H4.51653C4.30576 13.1131 4.15521 13.2853 4.15521 13.4574V17.6468C4.15521 17.8476 4.33587 17.9911 4.51653 17.9911H7.19634V18.2206L7.25657 18.1919Z" fill="#7D7B9B"/>
<path opacity="0.62" fill-rule="evenodd" clip-rule="evenodd" d="M7.13614 18.0772V31.7642C7.13614 31.965 7.31681 32.1085 7.49747 32.1085H12.827C13.0378 32.1085 13.1883 31.9363 13.1883 31.7642V17.8476H17.0424C17.2231 17.8476 17.4037 17.7042 17.4037 17.532L17.7651 13.3427C17.7651 13.1418 17.6145 12.9697 17.4037 12.9697H13.1582V9.98549C13.1582 9.29683 13.7604 8.72296 14.4831 8.72296H17.464C17.6747 8.72296 17.8253 8.55078 17.8253 8.37862V4.18931C17.8253 3.98845 17.6446 3.84499 17.464 3.84499H12.4356C9.48475 3.84499 7.07593 6.1405 7.07593 8.9525V12.9983H4.39611C4.18534 12.9983 4.03479 13.1705 4.03479 13.3427V17.532C4.03479 17.7328 4.21545 17.8763 4.39611 17.8763H7.07593V18.1059L7.13614 18.0772Z" fill="#7B7899"/>
<path opacity="0.64" fill-rule="evenodd" clip-rule="evenodd" d="M6.98557 17.9337V31.6207C6.98557 31.8216 7.16624 31.965 7.3469 31.965H12.6764C12.8872 31.965 13.0377 31.7929 13.0377 31.6207V17.7041H16.8918C17.0725 17.7041 17.2532 17.5607 17.2532 17.3885L17.6145 13.1992C17.6145 12.9983 17.4639 12.8262 17.2532 12.8262H13.0076V9.84201C13.0076 9.15336 13.6098 8.57947 14.3325 8.57947H17.3134C17.5242 8.57947 17.6747 8.40731 17.6747 8.23515V4.04584C17.6747 3.84498 17.4941 3.70152 17.3134 3.70152H12.285C9.33418 3.70152 6.92535 5.99703 6.92535 8.80903V12.8549H4.24554C4.03476 12.8549 3.88422 13.027 3.88422 13.1992V17.3885C3.88422 17.5894 4.06487 17.7328 4.24554 17.7328H6.92535V17.9624L6.98557 17.9337Z" fill="#787596"/>
<path opacity="0.65" fill-rule="evenodd" clip-rule="evenodd" d="M6.86515 17.8189V31.5059C6.86515 31.7068 7.04582 31.8503 7.22648 31.8503H12.556C12.7668 31.8503 12.9173 31.6781 12.9173 31.5059V17.5894H16.7714C16.9521 17.5894 17.1328 17.4459 17.1328 17.2737L17.4941 13.0844C17.4941 12.8836 17.3435 12.7114 17.1328 12.7114H12.8872V9.72724C12.8872 9.03858 13.4894 8.46471 14.2121 8.46471H17.193C17.4037 8.46471 17.5543 8.29254 17.5543 8.12037V3.93106C17.5543 3.73021 17.3736 3.58674 17.193 3.58674H12.1646C9.21375 3.58674 6.80494 5.88225 6.80494 8.69425V12.7401H4.12511C3.91434 12.7401 3.76379 12.9123 3.76379 13.0844V17.2737C3.76379 17.4746 3.94445 17.6181 4.12511 17.6181H6.80494V17.8476L6.86515 17.8189Z" fill="#757394"/>
<path opacity="0.66" fill-rule="evenodd" clip-rule="evenodd" d="M6.71457 17.6755V31.3625C6.71457 31.5633 6.89524 31.7068 7.07591 31.7068H12.4054C12.6162 31.7068 12.7667 31.5346 12.7667 31.3625V17.4459H16.6209C16.8015 17.4459 16.9822 17.3024 16.9822 17.1303L17.3435 12.941C17.3435 12.7401 17.1929 12.5679 16.9822 12.5679H12.7366V9.58377C12.7366 8.89512 13.3388 8.32123 14.0615 8.32123H17.0424C17.2532 8.32123 17.4037 8.14907 17.4037 7.97691V3.7876C17.4037 3.58674 17.2231 3.44328 17.0424 3.44328H12.014C9.06318 3.44328 6.65435 5.73879 6.65435 8.55079V12.5966H3.97454C3.76377 12.5966 3.61322 12.7688 3.61322 12.941V17.1303C3.61322 17.3311 3.79388 17.4746 3.97454 17.4746H6.65435V17.7042L6.71457 17.6755Z" fill="#737092"/>
<path opacity="0.67" fill-rule="evenodd" clip-rule="evenodd" d="M6.59416 17.5607V31.2477C6.59416 31.4485 6.77482 31.592 6.95548 31.592H12.285C12.4958 31.592 12.6463 31.4198 12.6463 31.2477V17.3311H16.5004C16.6811 17.3311 16.8618 17.1877 16.8618 17.0155L17.2231 12.8262C17.2231 12.6253 17.0725 12.4532 16.8618 12.4532H12.6162V9.46899C12.6162 8.78034 13.2184 8.20646 13.9411 8.20646H16.922C17.1327 8.20646 17.2833 8.03429 17.2833 7.86213V3.67282C17.2833 3.47196 17.1026 3.32849 16.922 3.32849H11.8936C8.94276 3.32849 6.53394 5.624 6.53394 8.43601V12.4819H3.85412C3.64335 12.4819 3.4928 12.654 3.4928 12.8262V17.0155C3.4928 17.2164 3.67346 17.3598 3.85412 17.3598H6.53394V17.5894L6.59416 17.5607Z" fill="#706D90"/>
<path opacity="0.69" fill-rule="evenodd" clip-rule="evenodd" d="M6.44358 17.4172V31.1042C6.44358 31.3051 6.62425 31.4485 6.80491 31.4485H12.1344C12.3452 31.4485 12.4957 31.2764 12.4957 31.1042V17.1877H16.3499C16.5305 17.1877 16.7112 17.0442 16.7112 16.872L17.0725 12.6827C17.0725 12.4819 16.9219 12.3097 16.7112 12.3097H12.4656V9.32553C12.4656 8.63687 13.0678 8.06299 13.7905 8.06299H16.7714C16.9822 8.06299 17.1327 7.89083 17.1327 7.71866V3.52935C17.1327 3.32849 16.9521 3.18503 16.7714 3.18503H11.743C8.79218 3.18503 6.38336 5.48054 6.38336 8.29254V12.3384H3.70354C3.49277 12.3384 3.34222 12.5105 3.34222 12.6827V16.872C3.34222 17.0729 3.52288 17.2164 3.70354 17.2164H6.38336V17.4459L6.44358 17.4172Z" fill="#6D6B8E"/>
<path opacity="0.7" fill-rule="evenodd" clip-rule="evenodd" d="M6.32317 17.3024V30.9894C6.32317 31.1903 6.50382 31.3338 6.68449 31.3338H12.014C12.2248 31.3338 12.3753 31.1616 12.3753 30.9894V17.0729H16.2294C16.4101 17.0729 16.5908 16.9294 16.5908 16.7573L16.9521 12.5679C16.9521 12.3671 16.8015 12.1949 16.5908 12.1949H12.3452V9.21075C12.3452 8.5221 12.9474 7.94822 13.6701 7.94822H16.651C16.8617 7.94822 17.0123 7.77605 17.0123 7.60389V3.41458C17.0123 3.21372 16.8316 3.07025 16.651 3.07025H11.6226C8.67176 3.07025 6.26294 5.36576 6.26294 8.17777V12.2236H3.58313C3.37236 12.2236 3.2218 12.3958 3.2218 12.5679V16.7573C3.2218 16.9581 3.40247 17.1016 3.58313 17.1016H6.26294V17.3311L6.32317 17.3024Z" fill="#6B688C"/>
<path opacity="0.71" fill-rule="evenodd" clip-rule="evenodd" d="M6.17258 17.1877V30.8747C6.17258 31.0755 6.35325 31.219 6.53391 31.219H11.8634C12.0742 31.219 12.2248 31.0468 12.2248 30.8747V16.9581H16.0789C16.2595 16.9581 16.4402 16.8146 16.4402 16.6425L16.8015 12.4532C16.8015 12.2523 16.651 12.0801 16.4402 12.0801H12.1946V9.09597C12.1946 8.40731 12.7968 7.83344 13.5195 7.83344H16.5004C16.7112 7.83344 16.8617 7.66128 16.8617 7.48911V3.29979C16.8617 3.09893 16.6811 2.95547 16.5004 2.95547H11.472C8.52119 2.95547 6.11236 5.25098 6.11236 8.06298V12.1088H3.43255C3.22178 12.1088 3.07123 12.281 3.07123 12.4532V16.6425C3.07123 16.8433 3.25189 16.9868 3.43255 16.9868H6.11236V17.2164L6.17258 17.1877Z" fill="#68658A"/>
<path opacity="0.72" fill-rule="evenodd" clip-rule="evenodd" d="M6.05217 17.0442V30.7312C6.05217 30.9321 6.23283 31.0755 6.41349 31.0755H11.743C11.9538 31.0755 12.1043 30.9034 12.1043 30.7312V16.8146H15.9584C16.1391 16.8146 16.3198 16.6712 16.3198 16.499L16.6811 12.3097C16.6811 12.1088 16.5305 11.9367 16.3198 11.9367H12.0742V8.9525C12.0742 8.26385 12.6764 7.68997 13.3991 7.68997H16.38C16.5908 7.68997 16.7413 7.5178 16.7413 7.34564V3.15633C16.7413 2.95547 16.5607 2.812 16.38 2.812H11.3516C8.40077 2.812 5.99195 5.10752 5.99195 7.91952V11.9654H3.31214C3.10137 11.9654 2.95081 12.1375 2.95081 12.3097V16.499C2.95081 16.6999 3.13148 16.8433 3.31214 16.8433H5.99195V17.0729L6.05217 17.0442Z" fill="#656288"/>
<path opacity="0.74" fill-rule="evenodd" clip-rule="evenodd" d="M5.90159 16.9294V30.6164C5.90159 30.8173 6.08226 30.9608 6.26292 30.9608H11.5924C11.8032 30.9608 11.9538 30.7886 11.9538 30.6164V16.6999H15.8079C15.9885 16.6999 16.1692 16.5564 16.1692 16.3842L16.5305 12.1949C16.5305 11.9941 16.38 11.8219 16.1692 11.8219H11.9236V8.83773C11.9236 8.14907 12.5259 7.5752 13.2485 7.5752H16.2294C16.4402 7.5752 16.5907 7.40304 16.5907 7.23087V3.04155C16.5907 2.84069 16.4101 2.69723 16.2294 2.69723H11.201C8.25019 2.69723 5.84137 4.99275 5.84137 7.80476V11.8506H3.16155C2.95078 11.8506 2.80023 12.0228 2.80023 12.1949V16.3842C2.80023 16.5851 2.98089 16.7286 3.16155 16.7286H5.84137V16.9581L5.90159 16.9294Z" fill="#636086"/>
<path opacity="0.75" fill-rule="evenodd" clip-rule="evenodd" d="M5.78117 16.7859V30.473C5.78117 30.6738 5.96183 30.8173 6.14249 30.8173H11.472C11.6828 30.8173 11.8333 30.6451 11.8333 30.473V16.5564H15.6874C15.8681 16.5564 16.0488 16.4129 16.0488 16.2408L16.4101 12.0515C16.4101 11.8506 16.2595 11.6784 16.0488 11.6784H11.8032V8.69426C11.8032 8.0056 12.4054 7.43173 13.1281 7.43173H16.109C16.3198 7.43173 16.4703 7.25957 16.4703 7.0874V2.89808C16.4703 2.69722 16.2897 2.55376 16.109 2.55376H11.0806C8.12977 2.55376 5.72095 4.84927 5.72095 7.66127V11.7071H3.04114C2.83037 11.7071 2.67981 11.8793 2.67981 12.0515V16.2408C2.67981 16.4416 2.86048 16.5851 3.04114 16.5851H5.72095V16.8146L5.78117 16.7859Z" fill="#605D84"/>
<path opacity="0.76" fill-rule="evenodd" clip-rule="evenodd" d="M5.63059 16.6712V30.3582C5.63059 30.559 5.81126 30.7025 5.99192 30.7025H11.3214C11.5322 30.7025 11.6828 30.5303 11.6828 30.3582V16.4416H15.5369C15.7175 16.4416 15.8982 16.2982 15.8982 16.126L16.2595 11.9367C16.2595 11.7358 16.109 11.5637 15.8982 11.5637H11.6526V8.57948C11.6526 7.89083 12.2549 7.31695 12.9775 7.31695H15.9584C16.1692 7.31695 16.3197 7.14479 16.3197 6.97263V2.78332C16.3197 2.58246 16.1391 2.43898 15.9584 2.43898H10.93C7.9792 2.43898 5.57038 4.7345 5.57038 7.54651V11.5924H2.89056C2.67978 11.5924 2.52924 11.7645 2.52924 11.9367V16.126C2.52924 16.3268 2.70989 16.4703 2.89056 16.4703H5.57038V16.6999L5.63059 16.6712Z" fill="#5D5A82"/>
<path opacity="0.77" fill-rule="evenodd" clip-rule="evenodd" d="M5.51018 16.5277V30.2147C5.51018 30.4156 5.69084 30.559 5.8715 30.559H11.201C11.4118 30.559 11.5623 30.3869 11.5623 30.2147V16.2982H15.4164C15.5971 16.2982 15.7778 16.1547 15.7778 15.9825L16.1391 11.7932C16.1391 11.5923 15.9885 11.4202 15.7778 11.4202H11.5322V8.43601C11.5322 7.74735 12.1344 7.17348 12.8571 7.17348H15.838C16.0488 7.17348 16.1993 7.00132 16.1993 6.82916V2.63983C16.1993 2.43898 16.0187 2.29551 15.838 2.29551H10.8096C7.85877 2.29551 5.44996 4.59102 5.44996 7.40303V11.4489H2.77014C2.55937 11.4489 2.40881 11.621 2.40881 11.7932V15.9825C2.40881 16.1834 2.58948 16.3268 2.77014 16.3268H5.44996V16.5564L5.51018 16.5277Z" fill="#5B5880"/>
<path opacity="0.79" fill-rule="evenodd" clip-rule="evenodd" d="M5.38974 16.4129V30.0999C5.38974 30.3008 5.5704 30.4443 5.75106 30.4443H11.0806C11.2914 30.4443 11.4419 30.2721 11.4419 30.0999V16.1834H15.296C15.4767 16.1834 15.6573 16.0399 15.6573 15.8677L16.0187 11.6784C16.0187 11.4776 15.8681 11.3054 15.6573 11.3054H11.4118V8.32123C11.4118 7.63258 12.014 7.0587 12.7366 7.0587H15.7176C15.9283 7.0587 16.0789 6.88654 16.0789 6.71438V2.52507C16.0789 2.32421 15.8982 2.18073 15.7176 2.18073H10.6891C7.73834 2.18073 5.32952 4.47625 5.32952 7.28826V11.3341H2.64971C2.43894 11.3341 2.28839 11.5063 2.28839 11.6784V15.8677C2.28839 16.0686 2.46905 16.2121 2.64971 16.2121H5.32952V16.4416L5.38974 16.4129Z" fill="#58557E"/>
<path opacity="0.8" fill-rule="evenodd" clip-rule="evenodd" d="M5.23918 16.2694V29.9565C5.23918 30.1573 5.41984 30.3008 5.6005 30.3008H10.93C11.1408 30.3008 11.2913 30.1286 11.2913 29.9565V16.0399H15.1454C15.3261 16.0399 15.5068 15.8964 15.5068 15.7243L15.8681 11.535C15.8681 11.3341 15.7176 11.1619 15.5068 11.1619H11.2612V8.17776C11.2612 7.48911 11.8634 6.91523 12.5861 6.91523H15.567C15.7778 6.91523 15.9283 6.74307 15.9283 6.57091V2.38159C15.9283 2.18073 15.7477 2.03726 15.567 2.03726H10.5386C7.58778 2.03726 5.17896 4.33277 5.17896 7.14478V11.1906H2.49915C2.28838 11.1906 2.13782 11.3628 2.13782 11.535V15.7243C2.13782 15.9251 2.31849 16.0686 2.49915 16.0686H5.17896V16.2981L5.23918 16.2694Z" fill="#55527C"/>
<path opacity="0.81" fill-rule="evenodd" clip-rule="evenodd" d="M5.11875 16.1547V29.8417C5.11875 30.0425 5.29941 30.186 5.48007 30.186H10.8096C11.0204 30.186 11.1709 30.0138 11.1709 29.8417V15.9251H15.025C15.2057 15.9251 15.3863 15.7817 15.3863 15.6095L15.7477 11.4202C15.7477 11.2193 15.5971 11.0472 15.3863 11.0472H11.1408V8.06299C11.1408 7.37433 11.743 6.80046 12.4656 6.80046H15.4466C15.6573 6.80046 15.8079 6.6283 15.8079 6.45613V2.26682C15.8079 2.06596 15.6272 1.92249 15.4466 1.92249H10.4181C7.46734 1.92249 5.05853 4.21801 5.05853 7.03001V11.0759H2.37871C2.16794 11.0759 2.0174 11.248 2.0174 11.4202V15.6095C2.0174 15.8104 2.19805 15.9538 2.37871 15.9538H5.05853V16.1834L5.11875 16.1547Z" fill="#53507A"/>
<path opacity="0.82" fill-rule="evenodd" clip-rule="evenodd" d="M4.96819 16.0112V29.6982C4.96819 29.8991 5.14884 30.0426 5.32951 30.0426H10.659C10.8698 30.0426 11.0203 29.8704 11.0203 29.6982V15.7817H14.8745C15.0551 15.7817 15.2358 15.6382 15.2358 15.466L15.5971 11.2767C15.5971 11.0759 15.4466 10.9037 15.2358 10.9037H10.9902V7.91952C10.9902 7.23087 11.5924 6.65699 12.3151 6.65699H15.296C15.5068 6.65699 15.6573 6.48483 15.6573 6.31267V2.12335C15.6573 1.92249 15.4767 1.77902 15.296 1.77902H10.2676C7.31678 1.77902 4.90796 4.07453 4.90796 6.88654V10.9324H2.22815C2.01738 10.9324 1.86682 11.1046 1.86682 11.2767V15.466C1.86682 15.6669 2.04749 15.8104 2.22815 15.8104H4.90796V16.0399L4.96819 16.0112Z" fill="#504D78"/>
<path opacity="0.84" fill-rule="evenodd" clip-rule="evenodd" d="M4.84775 15.8964V29.5834C4.84775 29.7843 5.02841 29.9278 5.20907 29.9278H10.5386C10.7494 29.9278 10.8999 29.7556 10.8999 29.5834V15.6669H14.754C14.9347 15.6669 15.1154 15.5234 15.1154 15.3512L15.4767 11.1619C15.4767 10.9611 15.3261 10.7889 15.1154 10.7889H10.8698V7.80475C10.8698 7.11609 11.472 6.54221 12.1947 6.54221H15.1756C15.3863 6.54221 15.5369 6.37005 15.5369 6.19788V2.00857C15.5369 1.80772 15.3562 1.66424 15.1756 1.66424H10.1472C7.19635 1.66424 4.78753 3.95976 4.78753 6.77177V10.8176H2.10772C1.89695 10.8176 1.7464 10.9898 1.7464 11.1619V15.3512C1.7464 15.5521 1.92706 15.6956 2.10772 15.6956H4.78753V15.9251L4.84775 15.8964Z" fill="#4D4A76"/>
<path opacity="0.85" fill-rule="evenodd" clip-rule="evenodd" d="M4.69719 15.753V29.44C4.69719 29.6408 4.87785 29.7843 5.05851 29.7843H10.388C10.5988 29.7843 10.7493 29.6121 10.7493 29.44V15.5234H14.6035C14.7841 15.5234 14.9648 15.3799 14.9648 15.2078L15.3261 11.0185C15.3261 10.8176 15.1756 10.6454 14.9648 10.6454H10.7192V7.66127C10.7192 6.97262 11.3214 6.39875 12.0441 6.39875H15.025C15.2358 6.39875 15.3863 6.22659 15.3863 6.05442V1.8651C15.3863 1.66424 15.2057 1.52077 15.025 1.52077H9.99659C7.04579 1.52077 4.63697 3.81629 4.63697 6.62829V10.6741H1.95716C1.74638 10.6741 1.59583 10.8463 1.59583 11.0185V15.2078C1.59583 15.4086 1.7765 15.5521 1.95716 15.5521H4.63697V15.7817L4.69719 15.753Z" fill="#4B4774"/>
<path opacity="0.86" fill-rule="evenodd" clip-rule="evenodd" d="M4.57676 15.6382V29.3252C4.57676 29.5261 4.75741 29.6695 4.93808 29.6695H10.2676C10.4784 29.6695 10.6289 29.4974 10.6289 29.3252V15.4086H14.483C14.6637 15.4086 14.8444 15.2652 14.8444 15.093L15.2057 10.9037C15.2057 10.7028 15.0551 10.5307 14.8444 10.5307H10.5988V7.54651C10.5988 6.85785 11.201 6.28397 11.9237 6.28397H14.9046C15.1153 6.28397 15.2659 6.11181 15.2659 5.93964V1.75033C15.2659 1.54948 15.0852 1.406 14.9046 1.406H9.87616C6.92535 1.406 4.51653 3.70152 4.51653 6.51353V10.5594H1.83672C1.62595 10.5594 1.4754 10.7315 1.4754 10.9037V15.093C1.4754 15.2939 1.65606 15.4373 1.83672 15.4373H4.51653V15.6669L4.57676 15.6382Z" fill="#484572"/>
<path opacity="0.87" fill-rule="evenodd" clip-rule="evenodd" d="M4.42618 15.4947V29.1817C4.42618 29.3826 4.60684 29.5261 4.7875 29.5261H10.117C10.3278 29.5261 10.4783 29.3539 10.4783 29.1817V15.2652H14.3325C14.5131 15.2652 14.6938 15.1217 14.6938 14.9495L15.0551 10.7602C15.0551 10.5594 14.9046 10.3872 14.6938 10.3872H10.4482V7.40303C10.4482 6.71437 11.0504 6.1405 11.7731 6.1405H14.754C14.9648 6.1405 15.1153 5.96834 15.1153 5.79617V1.60685C15.1153 1.40599 14.9347 1.26253 14.754 1.26253H9.72558C6.77478 1.26253 4.36596 3.55805 4.36596 6.37006V10.4159H1.68615C1.47538 10.4159 1.32483 10.5881 1.32483 10.7602V14.9495C1.32483 15.1504 1.50549 15.2939 1.68615 15.2939H4.36596V15.5234L4.42618 15.4947Z" fill="#464270"/>
<path opacity="0.89" fill-rule="evenodd" clip-rule="evenodd" d="M4.30576 15.38V29.067C4.30576 29.2678 4.48642 29.4113 4.66708 29.4113H9.9966C10.2074 29.4113 10.3579 29.2391 10.3579 29.067V15.1504H14.212C14.3927 15.1504 14.5734 15.0069 14.5734 14.8348L14.9347 10.6454C14.9347 10.4446 14.7841 10.2724 14.5734 10.2724H10.3278V7.28826C10.3278 6.59961 10.93 6.02572 11.6527 6.02572H14.6336C14.8444 6.02572 14.9949 5.85356 14.9949 5.6814V1.49209C14.9949 1.29123 14.8142 1.14775 14.6336 1.14775H9.60517C6.65437 1.14775 4.24554 3.44327 4.24554 6.25528V10.3011H1.56573C1.35495 10.3011 1.20441 10.4733 1.20441 10.6454V14.8348C1.20441 15.0356 1.38507 15.1791 1.56573 15.1791H4.24554V15.4086L4.30576 15.38Z" fill="#433F6D"/>
<path opacity="0.9" fill-rule="evenodd" clip-rule="evenodd" d="M4.15525 15.2652V28.9522C4.15525 29.153 4.33591 29.2965 4.51657 29.2965H9.84609C10.0569 29.2965 10.2074 29.1243 10.2074 28.9522V15.0356H14.0615C14.2422 15.0356 14.4228 14.8922 14.4228 14.72L14.7842 10.5307C14.7842 10.3298 14.6336 10.1577 14.4228 10.1577H10.1773V7.17348C10.1773 6.48483 10.7795 5.91094 11.5021 5.91094H14.4831C14.6938 5.91094 14.8444 5.73878 14.8444 5.56662V1.37731C14.8444 1.17645 14.6637 1.03298 14.4831 1.03298H9.45465C6.50384 1.03298 4.09503 3.32849 4.09503 6.1405V10.1863H1.41521C1.20444 10.1863 1.05389 10.3585 1.05389 10.5307V14.72C1.05389 14.9208 1.23455 15.0643 1.41521 15.0643H4.09503V15.2939L4.15525 15.2652Z" fill="#403D6B"/>
<path opacity="0.91" fill-rule="evenodd" clip-rule="evenodd" d="M4.03476 15.1217V28.8087C4.03476 29.0096 4.21542 29.153 4.39608 29.153H9.7256C9.93637 29.153 10.0869 28.9809 10.0869 28.8087V14.8921H13.941C14.1217 14.8921 14.3024 14.7487 14.3024 14.5765L14.6637 10.3872C14.6637 10.1863 14.5131 10.0142 14.3024 10.0142H10.0568V7.03001C10.0568 6.34136 10.659 5.76747 11.3817 5.76747H14.3626C14.5734 5.76747 14.7239 5.59531 14.7239 5.42315V1.23384C14.7239 1.03298 14.5432 0.889503 14.3626 0.889503H9.33418C6.38337 0.889503 3.97454 3.18503 3.97454 5.99703V10.0429H1.29473C1.08396 10.0429 0.933411 10.215 0.933411 10.3872V14.5765C0.933411 14.7774 1.11407 14.9208 1.29473 14.9208H3.97454V15.1504L4.03476 15.1217Z" fill="#3E3A69"/>
<path opacity="0.92" fill-rule="evenodd" clip-rule="evenodd" d="M3.88425 15.0069V28.6939C3.88425 28.8948 4.06491 29.0383 4.24557 29.0383H9.57509C9.78586 29.0383 9.93641 28.8661 9.93641 28.6939V14.7774H13.7905C13.9712 14.7774 14.1519 14.6339 14.1519 14.4617L14.5132 10.2724C14.5132 10.0716 14.3626 9.89941 14.1519 9.89941H9.9063V6.91523C9.9063 6.22658 10.5085 5.6527 11.2312 5.6527H14.2121C14.4228 5.6527 14.5734 5.48053 14.5734 5.30837V1.11906C14.5734 0.918201 14.3927 0.774734 14.2121 0.774734H9.18365C6.23285 0.774734 3.82403 3.07025 3.82403 5.88225V9.92809H1.14422C0.933446 9.92809 0.782898 10.1003 0.782898 10.2724V14.4617C0.782898 14.6626 0.963556 14.8061 1.14422 14.8061H3.82403V15.0356L3.88425 15.0069Z" fill="#3B3767"/>
<path opacity="0.94" fill-rule="evenodd" clip-rule="evenodd" d="M3.76377 14.8635V28.5505C3.76377 28.7513 3.94443 28.8948 4.12509 28.8948H9.45461C9.66538 28.8948 9.81594 28.7226 9.81594 28.5505V14.6339H13.67C13.8507 14.6339 14.0314 14.4904 14.0314 14.3183L14.3927 10.129C14.3927 9.9281 14.2421 9.75593 14.0314 9.75593H9.78582V6.77177C9.78582 6.08312 10.388 5.50923 11.1107 5.50923H14.0916C14.3024 5.50923 14.4529 5.33707 14.4529 5.16491V0.975595C14.4529 0.774738 14.2723 0.631271 14.0916 0.631271H9.06318C6.11238 0.631271 3.70355 2.92678 3.70355 5.73879V9.78463H1.02373C0.812963 9.78463 0.662415 9.95679 0.662415 10.129V14.3183C0.662415 14.5191 0.843073 14.6626 1.02373 14.6626H3.70355V14.8921L3.76377 14.8635Z" fill="#383565"/>
<path opacity="0.95" fill-rule="evenodd" clip-rule="evenodd" d="M3.61326 14.7487V28.4357C3.61326 28.6365 3.79391 28.78 3.97458 28.78H9.30409C9.51487 28.78 9.66541 28.6078 9.66541 28.4357V14.5191H13.5195C13.7002 14.5191 13.8809 14.3757 13.8809 14.2035L14.2422 10.0142C14.2422 9.81331 14.0916 9.64116 13.8809 9.64116H9.63531V6.65699C9.63531 5.96833 10.2375 5.39446 10.9602 5.39446H13.9411C14.1518 5.39446 14.3024 5.22229 14.3024 5.05012V0.860811C14.3024 0.659954 14.1217 0.516487 13.9411 0.516487H8.91266C5.96185 0.516487 3.55303 2.812 3.55303 5.624V9.66985H0.873222C0.66245 9.66985 0.511902 9.84201 0.511902 10.0142V14.2035C0.511902 14.4044 0.69256 14.5478 0.873222 14.5478H3.55303V14.7774L3.61326 14.7487Z" fill="#363263"/>
<path opacity="0.96" fill-rule="evenodd" clip-rule="evenodd" d="M3.49277 14.6052V28.2922C3.49277 28.4931 3.67343 28.6365 3.85409 28.6365H9.18361C9.39438 28.6365 9.54494 28.4644 9.54494 28.2922V14.3757H13.3991C13.5797 14.3757 13.7604 14.2322 13.7604 14.06L14.1217 9.87071C14.1217 9.66985 13.9711 9.49768 13.7604 9.49768H9.51482V6.51352C9.51482 5.82487 10.117 5.25098 10.8397 5.25098H13.8206C14.0314 5.25098 14.1819 5.07882 14.1819 4.90666V0.717348C14.1819 0.516491 14.0013 0.373024 13.8206 0.373024H8.79218C5.84138 0.373024 3.43255 2.66853 3.43255 5.48054V9.52638H0.752738C0.541967 9.52638 0.391418 9.69854 0.391418 9.87071V14.06C0.391418 14.2609 0.572077 14.4044 0.752738 14.4044H3.43255V14.6339L3.49277 14.6052Z" fill="#332F61"/>
<path opacity="0.97" fill-rule="evenodd" clip-rule="evenodd" d="M3.37235 14.4904V28.1774C3.37235 28.3783 3.55302 28.5218 3.73368 28.5218H9.0632C9.27397 28.5218 9.42452 28.3496 9.42452 28.1774V14.2609H13.2786C13.4593 14.2609 13.6399 14.1174 13.6399 13.9453L14.0013 9.75593C14.0013 9.55507 13.8507 9.38292 13.6399 9.38292H9.3944V6.39875C9.3944 5.71009 9.99661 5.13622 10.7193 5.13622H13.7002C13.9109 5.13622 14.0615 4.96405 14.0615 4.79188V0.602571C14.0615 0.401714 13.8808 0.258247 13.7002 0.258247H8.67176C5.72096 0.258247 3.31214 2.55376 3.31214 5.36576V9.41161H0.632316C0.421544 9.41161 0.270996 9.58377 0.270996 9.75593V13.9453C0.270996 14.1461 0.451654 14.2896 0.632316 14.2896H3.31214V14.5191L3.37235 14.4904Z" fill="#302C5F"/>
<path opacity="0.99" fill-rule="evenodd" clip-rule="evenodd" d="M3.22178 14.347V28.034C3.22178 28.2348 3.40245 28.3783 3.58311 28.3783H8.91261C9.12339 28.3783 9.27395 28.2061 9.27395 28.034V14.1174H13.1281C13.3087 14.1174 13.4894 13.9739 13.4894 13.8018L13.8507 9.61246C13.8507 9.4116 13.7001 9.23945 13.4894 9.23945H9.24383V6.25528C9.24383 5.56662 9.84604 4.99274 10.5687 4.99274H13.5496C13.7604 4.99274 13.9109 4.82058 13.9109 4.64841V0.459101C13.9109 0.258243 13.7303 0.114777 13.5496 0.114777H8.52119C5.57038 0.114777 3.16155 2.41029 3.16155 5.22229V9.26814H0.481742C0.27097 9.26814 0.120422 9.4403 0.120422 9.61246V13.8018C0.120422 14.0026 0.301081 14.1461 0.481742 14.1461H3.16155V14.3757L3.22178 14.347Z" fill="#2E2A5D"/>
<path fill-rule="evenodd" clip-rule="evenodd" d="M3.10135 14.2322V27.9192C3.10135 28.1201 3.28202 28.2635 3.46268 28.2635H8.7922C9.00297 28.2635 9.15352 28.0914 9.15352 27.9192V14.0026H13.0076C13.1883 14.0026 13.369 13.8592 13.369 13.687L13.7303 9.49768C13.7303 9.29683 13.5797 9.12467 13.369 9.12467H9.12341V6.1405C9.12341 5.45185 9.72562 4.87797 10.4483 4.87797H13.4292C13.6399 4.87797 13.7905 4.7058 13.7905 4.53364V0.344324C13.7905 0.143467 13.6098 0 13.4292 0H8.40077C5.44996 0 3.04114 2.29551 3.04114 5.10752V9.15336H0.36132C0.150548 9.15336 0 9.32552 0 9.49768V13.687C0 13.8879 0.180658 14.0313 0.36132 14.0313H3.04114V14.2609L3.10135 14.2322Z" fill="#2B275B"/>
</g>
<path fill-rule="evenodd" clip-rule="evenodd" d="M3.10135 14.2322V27.9192C3.10135 28.1201 3.28202 28.2635 3.46268 28.2635H8.7922C9.00297 28.2635 9.15352 28.0914 9.15352 27.9192V14.0026H13.0076C13.1883 14.0026 13.369 13.8592 13.369 13.687L13.7303 9.49768C13.7303 9.29683 13.5797 9.12467 13.369 9.12467H9.12341V6.1405C9.12341 5.45185 9.72562 4.87797 10.4483 4.87797H13.4292C13.6399 4.87797 13.7905 4.7058 13.7905 4.53364V0.344324C13.7905 0.143467 13.6098 0 13.4292 0H8.40077C5.44996 0 3.04114 2.29551 3.04114 5.10752V9.15336H0.36132C0.150548 9.15336 0 9.32552 0 9.49768V13.687C0 13.8879 0.180658 14.0313 0.36132 14.0313H3.04114V14.2609L3.10135 14.2322Z" fill="white"/>
</svg>
