<svg width="58" height="39" viewBox="0 0 58 39" fill="none" xmlns="http://www.w3.org/2000/svg">
<path d="M15.75 23.25C20.1075 23.25 23.625 19.7883 23.625 15.5C23.625 11.2117 20.1075 7.75 15.75 7.75C11.3925 7.75 7.875 11.2117 7.875 15.5C7.875 19.7883 11.3925 23.25 15.75 23.25ZM15.75 12.9167C17.1938 12.9167 18.375 14.0792 18.375 15.5C18.375 16.9208 17.1938 18.0833 15.75 18.0833C14.3062 18.0833 13.125 16.9208 13.125 15.5C13.125 14.0792 14.3062 12.9167 15.75 12.9167ZM47.25 5.16667H26.25V25.8333H5.25V0H0V38.75H5.25V31H52.5V38.75H57.75V15.5C57.75 9.79083 53.0513 5.16667 47.25 5.16667ZM52.5 25.8333H31.5V10.3333H47.25C50.1375 10.3333 52.5 12.6583 52.5 15.5V25.8333Z" fill="black"/>
</svg>
