<svg width="59" height="40" viewBox="0 0 59 40" fill="none" xmlns="http://www.w3.org/2000/svg">
<path d="M16.375 24.1666C20.7325 24.1666 24.25 20.705 24.25 16.4166C24.25 12.1283 20.7325 8.66663 16.375 8.66663C12.0175 8.66663 8.5 12.1283 8.5 16.4166C8.5 20.705 12.0175 24.1666 16.375 24.1666ZM16.375 13.8333C17.8188 13.8333 19 14.9958 19 16.4166C19 17.8375 17.8188 19 16.375 19C14.9312 19 13.75 17.8375 13.75 16.4166C13.75 14.9958 14.9312 13.8333 16.375 13.8333ZM47.875 6.08329H26.875V26.75H5.875V0.916626H0.625V39.6666H5.875V31.9166H53.125V39.6666H58.375V16.4166C58.375 10.7075 53.6763 6.08329 47.875 6.08329ZM53.125 26.75H32.125V11.25H47.875C50.7625 11.25 53.125 13.575 53.125 16.4166V26.75Z" fill="black"/>
</svg>
