<svg width="43" height="41" viewBox="0 0 43 41" fill="none" xmlns="http://www.w3.org/2000/svg">
<g style="mix-blend-mode:multiply" opacity="0.6">
<path opacity="0.01" d="M36.7178 17.2164C36.7178 18.1633 35.9012 18.9667 34.8729 18.9667C33.8445 18.9667 33.0279 18.1919 33.0279 17.2164C33.0279 16.2408 33.8445 15.466 34.8729 15.466C35.9012 15.466 36.7178 16.2408 36.7178 17.2164ZM31.6669 24.9924C31.6669 22.41 29.4589 20.3153 26.7369 20.3153C24.0148 20.3153 21.8069 22.41 21.8069 24.9924C21.8069 27.5749 24.0148 29.6695 26.7369 29.6695C29.4589 29.6695 31.6669 27.5749 31.6669 24.9924ZM34.4192 24.9924C34.4192 29.0096 30.9712 32.2807 26.7369 32.2807C22.5025 32.2807 19.0546 29.0096 19.0546 24.9924C19.0546 20.9753 22.5025 17.7041 26.7369 17.7041C30.9712 17.7041 34.4192 20.9753 34.4192 24.9924ZM39.2585 31.1329C39.2585 34.5188 36.3851 37.2447 32.8162 37.2447H20.2039C16.6349 37.2447 13.7616 34.5188 13.7616 31.1329V19.1675C13.7616 15.7816 16.6349 13.0557 20.2039 13.0557H32.8162C36.3851 13.0557 39.2585 15.7816 39.2585 19.1675V31.1329ZM42.162 19.1962C42.162 14.2896 37.9579 10.3011 32.7859 10.3011H20.2039C15.0319 10.3011 10.8278 14.2896 10.8278 19.1962V31.1329C10.8278 36.0396 15.0319 40.028 20.2039 40.028H32.7859C37.9579 40.028 42.162 36.0396 42.162 31.1329V19.1962V19.1962Z" fill="#FDFCFD"/>
<path opacity="0.02" d="M36.5969 17.1016C36.5969 18.0485 35.7802 18.8519 34.7519 18.8519C33.7236 18.8519 32.9069 18.0772 32.9069 17.1016C32.9069 16.126 33.7236 15.3512 34.7519 15.3512C35.7802 15.3512 36.5969 16.126 36.5969 17.1016ZM31.5459 24.8776C31.5459 22.2952 29.338 20.2005 26.6159 20.2005C23.8938 20.2005 21.6859 22.2952 21.6859 24.8776C21.6859 27.4601 23.8938 29.5547 26.6159 29.5547C29.338 29.5547 31.5459 27.4601 31.5459 24.8776ZM34.2982 24.8776C34.2982 28.8948 30.8503 32.1659 26.6159 32.1659C22.3816 32.1659 18.9336 28.8948 18.9336 24.8776C18.9336 20.8605 22.3816 17.5894 26.6159 17.5894C30.8503 17.5894 34.2982 20.8605 34.2982 24.8776ZM39.1375 31.0181C39.1375 34.404 36.2642 37.1299 32.6952 37.1299H20.0829C16.514 37.1299 13.6407 34.404 13.6407 31.0181V19.0528C13.6407 15.6669 16.514 12.941 20.0829 12.941H32.6952C36.2642 12.941 39.1375 15.6669 39.1375 19.0528V31.0181ZM42.041 19.0815C42.041 14.1748 37.8369 10.1863 32.665 10.1863H20.0829C14.911 10.1863 10.7068 14.1748 10.7068 19.0815V31.0181C10.7068 35.9248 14.911 39.9133 20.0829 39.9133H32.665C37.8369 39.9133 42.041 35.9248 42.041 31.0181V19.0815Z" fill="#FBFAFC"/>
<path opacity="0.04" d="M36.4759 16.9868C36.4759 17.9337 35.6593 18.7371 34.6309 18.7371C33.6026 18.7371 32.786 17.9624 32.786 16.9868C32.786 16.0112 33.6026 15.2365 34.6309 15.2365C35.6593 15.2365 36.4759 16.0112 36.4759 16.9868ZM31.4249 24.7629C31.4249 22.1804 29.217 20.0858 26.4949 20.0858C23.7728 20.0858 21.5649 22.1804 21.5649 24.7629C21.5649 27.3453 23.7728 29.44 26.4949 29.44C29.217 29.44 31.4249 27.3453 31.4249 24.7629ZM34.1772 24.7629C34.1772 28.78 30.7293 32.0511 26.4949 32.0511C22.2606 32.0511 18.8126 28.78 18.8126 24.7629C18.8126 20.7457 22.2606 17.4746 26.4949 17.4746C30.7293 17.4746 34.1772 20.7457 34.1772 24.7629ZM39.0165 30.9034C39.0165 34.2892 36.1432 37.0152 32.5742 37.0152H19.9619C16.393 37.0152 13.5197 34.2892 13.5197 30.9034V18.938C13.5197 15.5521 16.393 12.8262 19.9619 12.8262H32.5742C36.1432 12.8262 39.0165 15.5521 39.0165 18.938V30.9034ZM41.92 18.9667C41.92 14.06 37.7159 10.0716 32.544 10.0716H19.9619C14.79 10.0716 10.5859 14.06 10.5859 18.9667V30.9034C10.5859 35.81 14.79 39.7985 19.9619 39.7985H32.544C37.7159 39.7985 41.92 35.81 41.92 30.9034V18.9667V18.9667Z" fill="#F9F7FA"/>
<path opacity="0.05" d="M36.3247 16.872C36.3247 17.8189 35.508 18.6224 34.4797 18.6224C33.4513 18.6224 32.6347 17.8476 32.6347 16.872C32.6347 15.8964 33.4513 15.1217 34.4797 15.1217C35.508 15.1217 36.3247 15.8964 36.3247 16.872ZM31.2737 24.6481C31.2737 22.0656 29.0658 19.971 26.3437 19.971C23.6216 19.971 21.4137 22.0656 21.4137 24.6481C21.4137 27.2305 23.6216 29.3252 26.3437 29.3252C29.0658 29.3252 31.2737 27.2305 31.2737 24.6481ZM34.026 24.6481C34.026 28.6652 30.578 31.9363 26.3437 31.9363C22.1093 31.9363 18.6614 28.6652 18.6614 24.6481C18.6614 20.6309 22.1093 17.3598 26.3437 17.3598C30.578 17.3598 34.026 20.6309 34.026 24.6481ZM38.8653 30.7886C38.8653 34.1745 35.992 36.9004 32.423 36.9004H19.8107C16.2417 36.9004 13.3684 34.1745 13.3684 30.7886V18.8232C13.3684 15.4373 16.2417 12.7114 19.8107 12.7114H32.423C35.992 12.7114 38.8653 15.4373 38.8653 18.8232V30.7886ZM41.7688 18.8519C41.7688 13.9453 37.5647 9.95679 32.3928 9.95679H19.8107C14.6387 9.95679 10.4346 13.9453 10.4346 18.8519V30.7886C10.4346 35.6953 14.6387 39.6837 19.8107 39.6837H32.3928C37.5647 39.6837 41.7688 35.6953 41.7688 30.7886V18.8519V18.8519Z" fill="#F7F5F9"/>
<path opacity="0.06" d="M36.2037 16.7286C36.2037 17.6755 35.387 18.4789 34.3587 18.4789C33.3304 18.4789 32.5137 17.7041 32.5137 16.7286C32.5137 15.753 33.3304 14.9782 34.3587 14.9782C35.387 14.9782 36.2037 15.753 36.2037 16.7286ZM31.1527 24.5046C31.1527 21.9222 28.9448 19.8275 26.2227 19.8275C23.5006 19.8275 21.2927 21.9222 21.2927 24.5046C21.2927 27.0871 23.5006 29.1817 26.2227 29.1817C28.9448 29.1817 31.1527 27.0871 31.1527 24.5046ZM33.905 24.5046C33.905 28.5218 30.4571 31.7929 26.2227 31.7929C21.9884 31.7929 18.5404 28.5218 18.5404 24.5046C18.5404 20.4875 21.9884 17.2164 26.2227 17.2164C30.4571 17.2164 33.905 20.4875 33.905 24.5046ZM38.7443 30.6451C38.7443 34.031 35.871 36.7569 32.302 36.7569H19.6897C16.1208 36.7569 13.2475 34.031 13.2475 30.6451V18.6797C13.2475 15.2939 16.1208 12.5679 19.6897 12.5679H32.302C35.871 12.5679 38.7443 15.2939 38.7443 18.6797V30.6451ZM41.6478 18.7084C41.6478 13.8018 37.4437 9.81332 32.2718 9.81332H19.6897C14.5178 9.81332 10.3137 13.8018 10.3137 18.7084V30.6451C10.3137 35.5518 14.5178 39.5402 19.6897 39.5402H32.2718C37.4437 39.5402 41.6478 35.5518 41.6478 30.6451V18.7084V18.7084Z" fill="#F5F2F7"/>
<path opacity="0.07" d="M36.0827 16.6138C36.0827 17.5607 35.2661 18.3641 34.2377 18.3641C33.2094 18.3641 32.3928 17.5894 32.3928 16.6138C32.3928 15.6382 33.2094 14.8634 34.2377 14.8634C35.2661 14.8634 36.0827 15.6382 36.0827 16.6138ZM31.0317 24.3898C31.0317 21.8074 28.8238 19.7127 26.1017 19.7127C23.3797 19.7127 21.1718 21.8074 21.1718 24.3898C21.1718 26.9723 23.3797 29.0669 26.1017 29.0669C28.8238 29.0669 31.0317 26.9723 31.0317 24.3898ZM33.7841 24.3898C33.7841 28.407 30.3361 31.6781 26.1017 31.6781C21.8674 31.6781 18.4194 28.407 18.4194 24.3898C18.4194 20.3727 21.8674 17.1016 26.1017 17.1016C30.3361 17.1016 33.7841 20.3727 33.7841 24.3898ZM38.6233 30.5303C38.6233 33.9162 35.75 36.6421 32.1811 36.6421H19.5687C15.9998 36.6421 13.1265 33.9162 13.1265 30.5303V18.565C13.1265 15.1791 15.9998 12.4532 19.5687 12.4532H32.1811C35.75 12.4532 38.6233 15.1791 38.6233 18.565V30.5303ZM41.5269 18.5937C41.5269 13.687 37.3228 9.69854 32.1508 9.69854H19.5687C14.3968 9.69854 10.1927 13.687 10.1927 18.5937V30.5303C10.1927 35.437 14.3968 39.4255 19.5687 39.4255H32.1508C37.3228 39.4255 41.5269 35.437 41.5269 30.5303V18.5937Z" fill="#F3F0F6"/>
<path opacity="0.08" d="M35.9617 16.499C35.9617 17.4459 35.1451 18.2493 34.1167 18.2493C33.0884 18.2493 32.2718 17.4746 32.2718 16.499C32.2718 15.5234 33.0884 14.7487 34.1167 14.7487C35.1451 14.7487 35.9617 15.5234 35.9617 16.499ZM30.9107 24.2751C30.9107 21.6926 28.7028 19.5979 25.9807 19.5979C23.2587 19.5979 21.0508 21.6926 21.0508 24.2751C21.0508 26.8575 23.2587 28.9522 25.9807 28.9522C28.7028 28.9522 30.9107 26.8575 30.9107 24.2751ZM33.6631 24.2751C33.6631 28.2922 30.2151 31.5633 25.9807 31.5633C21.7464 31.5633 18.2984 28.2922 18.2984 24.2751C18.2984 20.2579 21.7464 16.9868 25.9807 16.9868C30.2151 16.9868 33.6631 20.2579 33.6631 24.2751ZM38.5023 30.4156C38.5023 33.8014 35.629 36.5274 32.0601 36.5274H19.4477C15.8788 36.5274 13.0055 33.8014 13.0055 30.4156V18.4502C13.0055 15.0643 15.8788 12.3384 19.4477 12.3384H32.0601C35.629 12.3384 38.5023 15.0643 38.5023 18.4502V30.4156ZM41.4059 18.4789C41.4059 13.5722 37.2018 9.58377 32.0298 9.58377H19.4477C14.2758 9.58377 10.0717 13.5722 10.0717 18.4789V30.4156C10.0717 35.3222 14.2758 39.3107 19.4477 39.3107H32.0298C37.2018 39.3107 41.4059 35.3222 41.4059 30.4156V18.4789V18.4789Z" fill="#F1EDF4"/>
<path opacity="0.1" d="M35.8105 16.3555C35.8105 17.3024 34.9939 18.1059 33.9655 18.1059C32.9372 18.1059 32.1206 17.3311 32.1206 16.3555C32.1206 15.3799 32.9372 14.6052 33.9655 14.6052C34.9939 14.6052 35.8105 15.3799 35.8105 16.3555ZM30.7595 24.1316C30.7595 21.5491 28.5516 19.4545 25.8295 19.4545C23.1074 19.4545 20.8995 21.5491 20.8995 24.1316C20.8995 26.714 23.1074 28.8087 25.8295 28.8087C28.5516 28.8087 30.7595 26.714 30.7595 24.1316ZM33.5118 24.1316C33.5118 28.1487 30.0639 31.4198 25.8295 31.4198C21.5952 31.4198 18.1472 28.1487 18.1472 24.1316C18.1472 20.1144 21.5952 16.8433 25.8295 16.8433C30.0639 16.8433 33.5118 20.1144 33.5118 24.1316ZM38.3511 30.2721C38.3511 33.658 35.4778 36.3839 31.9088 36.3839H19.2965C15.7276 36.3839 12.8543 33.658 12.8543 30.2721V18.3067C12.8543 14.9208 15.7276 12.1949 19.2965 12.1949H31.9088C35.4778 12.1949 38.3511 14.9208 38.3511 18.3067V30.2721ZM41.2547 18.3354C41.2547 13.4288 37.0505 9.44029 31.8786 9.44029H19.2965C14.1246 9.44029 9.92047 13.4288 9.92047 18.3354V30.2721C9.92047 35.1788 14.1246 39.1672 19.2965 39.1672H31.8786C37.0505 39.1672 41.2547 35.1788 41.2547 30.2721V18.3354V18.3354Z" fill="#EFEBF3"/>
<path opacity="0.11" d="M35.6895 16.2408C35.6895 17.1877 34.8729 17.9911 33.8446 17.9911C32.8162 17.9911 31.9996 17.2164 31.9996 16.2408C31.9996 15.2652 32.8162 14.4904 33.8446 14.4904C34.8729 14.4904 35.6895 15.2652 35.6895 16.2408ZM30.6385 24.0168C30.6385 21.4344 28.4306 19.3397 25.7086 19.3397C22.9865 19.3397 20.7786 21.4344 20.7786 24.0168C20.7786 26.5993 22.9865 28.6939 25.7086 28.6939C28.4306 28.6939 30.6385 26.5993 30.6385 24.0168ZM33.3909 24.0168C33.3909 28.034 29.9429 31.3051 25.7086 31.3051C21.4742 31.3051 18.0262 28.034 18.0262 24.0168C18.0262 19.9997 21.4742 16.7286 25.7086 16.7286C29.9429 16.7286 33.3909 19.9997 33.3909 24.0168ZM38.2301 30.1573C38.2301 33.5432 35.3568 36.2691 31.7879 36.2691H19.1756C15.6066 36.2691 12.7333 33.5432 12.7333 30.1573V18.1919C12.7333 14.8061 15.6066 12.0801 19.1756 12.0801H31.7879C35.3568 12.0801 38.2301 14.8061 38.2301 18.1919V30.1573ZM41.1337 18.2206C41.1337 13.314 36.9296 9.32552 31.7576 9.32552H19.1756C14.0036 9.32552 9.7995 13.314 9.7995 18.2206V30.1573C9.7995 35.064 14.0036 39.0524 19.1756 39.0524H31.7576C36.9296 39.0524 41.1337 35.064 41.1337 30.1573V18.2206Z" fill="#EDE8F1"/>
<path opacity="0.12" d="M35.5685 16.126C35.5685 17.0729 34.7519 17.8763 33.7236 17.8763C32.6952 17.8763 31.8786 17.1016 31.8786 16.126C31.8786 15.1504 32.6952 14.3757 33.7236 14.3757C34.7519 14.3757 35.5685 15.1504 35.5685 16.126ZM30.5175 23.902C30.5175 21.3196 28.3096 19.2249 25.5876 19.2249C22.8655 19.2249 20.6576 21.3196 20.6576 23.902C20.6576 26.4845 22.8655 28.5792 25.5876 28.5792C28.3096 28.5792 30.5175 26.4845 30.5175 23.902ZM33.2699 23.902C33.2699 27.9192 29.8219 31.1903 25.5876 31.1903C21.3532 31.1903 17.9052 27.9192 17.9052 23.902C17.9052 19.8849 21.3532 16.6138 25.5876 16.6138C29.8219 16.6138 33.2699 19.8849 33.2699 23.902ZM38.1091 30.0425C38.1091 33.4284 35.2358 36.1543 31.6669 36.1543H19.0546C15.4856 36.1543 12.6123 33.4284 12.6123 30.0425V18.0772C12.6123 14.6913 15.4856 11.9654 19.0546 11.9654H31.6669C35.2358 11.9654 38.1091 14.6913 38.1091 18.0772V30.0425ZM41.0127 18.1059C41.0127 13.1992 36.8086 9.21075 31.6366 9.21075H19.0546C13.8826 9.21075 9.6785 13.1992 9.6785 18.1059V30.0425C9.6785 34.9492 13.8826 38.9377 19.0546 38.9377H31.6366C36.8086 38.9377 41.0127 34.9492 41.0127 30.0425V18.1059V18.1059Z" fill="#EBE5F0"/>
<path opacity="0.13" d="M35.4173 15.9825C35.4173 16.9294 34.6007 17.7328 33.5723 17.7328C32.544 17.7328 31.7274 16.9581 31.7274 15.9825C31.7274 15.0069 32.544 14.2322 33.5723 14.2322C34.6007 14.2322 35.4173 15.0069 35.4173 15.9825ZM30.3663 23.7586C30.3663 21.1761 28.1584 19.0815 25.4363 19.0815C22.7143 19.0815 20.5063 21.1761 20.5063 23.7586C20.5063 26.341 22.7143 28.4357 25.4363 28.4357C28.1584 28.4357 30.3663 26.341 30.3663 23.7586ZM33.1187 23.7586C33.1187 27.7757 29.6707 31.0468 25.4363 31.0468C21.202 31.0468 17.754 27.7757 17.754 23.7586C17.754 19.7414 21.202 16.4703 25.4363 16.4703C29.6707 16.4703 33.1187 19.7414 33.1187 23.7586ZM37.9579 29.8991C37.9579 33.2849 35.0846 36.0109 31.5157 36.0109H18.9033C15.3344 36.0109 12.4611 33.2849 12.4611 29.8991V17.9337C12.4611 14.5478 15.3344 11.8219 18.9033 11.8219H31.5157C35.0846 11.8219 37.9579 14.5478 37.9579 17.9337V29.8991ZM40.8615 17.9624C40.8615 13.0557 36.6574 9.06728 31.4854 9.06728H18.9033C13.7314 9.06728 9.52728 13.0557 9.52728 17.9624V29.8991C9.52728 34.8057 13.7314 38.7942 18.9033 38.7942H31.4854C36.6574 38.7942 40.8615 34.8057 40.8615 29.8991V17.9624Z" fill="#E9E3EE"/>
<path opacity="0.14" d="M35.2963 15.8677C35.2963 16.8146 34.4797 17.6181 33.4514 17.6181C32.423 17.6181 31.6064 16.8433 31.6064 15.8677C31.6064 14.8921 32.423 14.1174 33.4514 14.1174C34.4797 14.1174 35.2963 14.8921 35.2963 15.8677ZM30.2454 23.6438C30.2454 21.0613 28.0375 18.9667 25.3154 18.9667C22.5933 18.9667 20.3854 21.0613 20.3854 23.6438C20.3854 26.2262 22.5933 28.3209 25.3154 28.3209C28.0375 28.3209 30.2454 26.2262 30.2454 23.6438ZM32.9977 23.6438C32.9977 27.6609 29.5497 30.9321 25.3154 30.9321C21.081 30.9321 17.633 27.6609 17.633 23.6438C17.633 19.6266 21.081 16.3555 25.3154 16.3555C29.5497 16.3555 32.9977 19.6266 32.9977 23.6438ZM37.8369 29.7843C37.8369 33.1702 34.9636 35.8961 31.3947 35.8961H18.7824C15.2134 35.8961 12.3401 33.1702 12.3401 29.7843V17.8189C12.3401 14.433 15.2134 11.7071 18.7824 11.7071H31.3947C34.9636 11.7071 37.8369 14.433 37.8369 17.8189V29.7843ZM40.7405 17.8476C40.7405 12.941 36.5364 8.9525 31.3644 8.9525H18.7824C13.6104 8.9525 9.40631 12.941 9.40631 17.8476V29.7843C9.40631 34.691 13.6104 38.6794 18.7824 38.6794H31.3644C36.5364 38.6794 40.7405 34.691 40.7405 29.7843V17.8476V17.8476Z" fill="#E7E0ED"/>
<path opacity="0.15" d="M35.1754 15.753C35.1754 16.6999 34.3587 17.5033 33.3304 17.5033C32.302 17.5033 31.4854 16.7286 31.4854 15.753C31.4854 14.7774 32.302 14.0026 33.3304 14.0026C34.3587 14.0026 35.1754 14.7774 35.1754 15.753ZM30.1244 23.529C30.1244 20.9466 27.9165 18.8519 25.1944 18.8519C22.4723 18.8519 20.2644 20.9466 20.2644 23.529C20.2644 26.1115 22.4723 28.2061 25.1944 28.2061C27.9165 28.2061 30.1244 26.1115 30.1244 23.529ZM32.8767 23.529C32.8767 27.5462 29.4287 30.8173 25.1944 30.8173C20.96 30.8173 17.5121 27.5462 17.5121 23.529C17.5121 19.5119 20.96 16.2408 25.1944 16.2408C29.4287 16.2408 32.8767 19.5119 32.8767 23.529ZM37.716 29.6695C37.716 33.0554 34.8426 35.7813 31.2737 35.7813H18.6614C15.0924 35.7813 12.2191 33.0554 12.2191 29.6695V17.7041C12.2191 14.3183 15.0924 11.5923 18.6614 11.5923H31.2737C34.8426 11.5923 37.716 14.3183 37.716 17.7041V29.6695ZM40.6195 17.7328C40.6195 12.8262 36.4154 8.83772 31.2435 8.83772H18.6614C13.4894 8.83772 9.28534 12.8262 9.28534 17.7328V29.6695C9.28534 34.5762 13.4894 38.5646 18.6614 38.5646H31.2435C36.4154 38.5646 40.6195 34.5762 40.6195 29.6695V17.7328Z" fill="#E5DEEB"/>
<path opacity="0.17" d="M35.0241 15.6382C35.0241 16.5851 34.2075 17.3885 33.1791 17.3885C32.1508 17.3885 31.3342 16.6138 31.3342 15.6382C31.3342 14.6626 32.1508 13.8879 33.1791 13.8879C34.2075 13.8879 35.0241 14.6626 35.0241 15.6382ZM29.9731 23.4142C29.9731 20.8318 27.7652 18.7371 25.0432 18.7371C22.3211 18.7371 20.1132 20.8318 20.1132 23.4142C20.1132 25.9967 22.3211 28.0914 25.0432 28.0914C27.7652 28.0914 29.9731 25.9967 29.9731 23.4142ZM32.7255 23.4142C32.7255 27.4314 29.2775 30.7025 25.0432 30.7025C20.8088 30.7025 17.3608 27.4314 17.3608 23.4142C17.3608 19.3971 20.8088 16.126 25.0432 16.126C29.2775 16.126 32.7255 19.3971 32.7255 23.4142ZM37.5647 29.5547C37.5647 32.9406 34.6914 35.6665 31.1225 35.6665H18.5102C14.9412 35.6665 12.0679 32.9406 12.0679 29.5547V17.5894C12.0679 14.2035 14.9412 11.4776 18.5102 11.4776H31.1225C34.6914 11.4776 37.5647 14.2035 37.5647 17.5894V29.5547ZM40.4683 17.6181C40.4683 12.7114 36.2642 8.72295 31.0922 8.72295H18.5102C13.3382 8.72295 9.13409 12.7114 9.13409 17.6181V29.5547C9.13409 34.4614 13.3382 38.4499 18.5102 38.4499H31.0922C36.2642 38.4499 40.4683 34.4614 40.4683 29.5547V17.6181V17.6181Z" fill="#E3DBEA"/>
<path opacity="0.18" d="M34.9031 15.4947C34.9031 16.4416 34.0865 17.245 33.0582 17.245C32.0298 17.245 31.2132 16.4703 31.2132 15.4947C31.2132 14.5191 32.0298 13.7444 33.0582 13.7444C34.0865 13.7444 34.9031 14.5191 34.9031 15.4947ZM29.8522 23.2708C29.8522 20.6883 27.6443 18.5937 24.9222 18.5937C22.2001 18.5937 19.9922 20.6883 19.9922 23.2708C19.9922 25.8532 22.2001 27.9479 24.9222 27.9479C27.6443 27.9479 29.8522 25.8532 29.8522 23.2708ZM32.6045 23.2708C32.6045 27.2879 29.1565 30.559 24.9222 30.559C20.6878 30.559 17.2398 27.2879 17.2398 23.2708C17.2398 19.2536 20.6878 15.9825 24.9222 15.9825C29.1565 15.9825 32.6045 19.2536 32.6045 23.2708ZM37.4437 29.4113C37.4437 32.7972 34.5704 35.5231 31.0015 35.5231H18.3892C14.8202 35.5231 11.9469 32.7972 11.9469 29.4113V17.4459C11.9469 14.06 14.8202 11.3341 18.3892 11.3341H31.0015C34.5704 11.3341 37.4437 14.06 37.4437 17.4459V29.4113ZM40.3473 17.4746C40.3473 12.5679 36.1432 8.57948 30.9712 8.57948H18.3892C13.2172 8.57948 9.01312 12.5679 9.01312 17.4746V29.4113C9.01312 34.3179 13.2172 38.3064 18.3892 38.3064H30.9712C36.1432 38.3064 40.3473 34.3179 40.3473 29.4113V17.4746Z" fill="#E2D9E8"/>
<path opacity="0.19" d="M34.7821 15.3799C34.7821 16.3268 33.9655 17.1303 32.9372 17.1303C31.9088 17.1303 31.0922 16.3555 31.0922 15.3799C31.0922 14.4043 31.9088 13.6296 32.9372 13.6296C33.9655 13.6296 34.7821 14.4043 34.7821 15.3799ZM29.7312 23.156C29.7312 20.5735 27.5233 18.4789 24.8012 18.4789C22.0791 18.4789 19.8712 20.5735 19.8712 23.156C19.8712 25.7385 22.0791 27.8331 24.8012 27.8331C27.5233 27.8331 29.7312 25.7385 29.7312 23.156ZM32.4835 23.156C32.4835 27.1732 29.0355 30.4443 24.8012 30.4443C20.5668 30.4443 17.1189 27.1732 17.1189 23.156C17.1189 19.1388 20.5668 15.8677 24.8012 15.8677C29.0355 15.8677 32.4835 19.1388 32.4835 23.156ZM37.3227 29.2965C37.3227 32.6824 34.4494 35.4083 30.8805 35.4083H18.2682C14.6992 35.4083 11.8259 32.6824 11.8259 29.2965V17.3311C11.8259 13.9452 14.6992 11.2193 18.2682 11.2193H30.8805C34.4494 11.2193 37.3227 13.9452 37.3227 17.3311V29.2965ZM40.2263 17.3598C40.2263 12.4532 36.0222 8.4647 30.8502 8.4647H18.2682C13.0962 8.4647 8.89212 12.4532 8.89212 17.3598V29.2965C8.89212 34.2032 13.0962 38.1916 18.2682 38.1916H30.8502C36.0222 38.1916 40.2263 34.2032 40.2263 29.2965V17.3598V17.3598Z" fill="#E0D6E7"/>
<path opacity="0.2" d="M34.6612 15.2652C34.6612 16.2121 33.8445 17.0155 32.8162 17.0155C31.7879 17.0155 30.9712 16.2408 30.9712 15.2652C30.9712 14.2896 31.7879 13.5148 32.8162 13.5148C33.8445 13.5148 34.6612 14.2896 34.6612 15.2652ZM29.6102 23.0412C29.6102 20.4588 27.4023 18.3641 24.6802 18.3641C21.9581 18.3641 19.7502 20.4588 19.7502 23.0412C19.7502 25.6237 21.9581 27.7183 24.6802 27.7183C27.4023 27.7183 29.6102 25.6237 29.6102 23.0412ZM32.3625 23.0412C32.3625 27.0584 28.9146 30.3295 24.6802 30.3295C20.4459 30.3295 16.9979 27.0584 16.9979 23.0412C16.9979 19.0241 20.4459 15.753 24.6802 15.753C28.9146 15.753 32.3625 19.0241 32.3625 23.0412ZM37.2018 29.1817C37.2018 32.5676 34.3285 35.2935 30.7595 35.2935H18.1472C14.5783 35.2935 11.705 32.5676 11.705 29.1817V17.2164C11.705 13.8305 14.5783 11.1045 18.1472 11.1045H30.7595C34.3285 11.1045 37.2018 13.8305 37.2018 17.2164V29.1817ZM40.1053 17.245C40.1053 12.3384 35.9012 8.34993 30.7293 8.34993H18.1472C12.9753 8.34993 8.77115 12.3384 8.77115 17.245V29.1817C8.77115 34.0884 12.9753 38.0768 18.1472 38.0768H30.7293C35.9012 38.0768 40.1053 34.0884 40.1053 29.1817V17.245Z" fill="#DED3E5"/>
<path opacity="0.21" d="M34.51 15.1217C34.51 16.0686 33.6933 16.872 32.665 16.872C31.6366 16.872 30.82 16.0973 30.82 15.1217C30.82 14.1461 31.6366 13.3714 32.665 13.3714C33.6933 13.3714 34.51 14.1461 34.51 15.1217ZM29.459 22.8978C29.459 20.3153 27.2511 18.2206 24.529 18.2206C21.8069 18.2206 19.599 20.3153 19.599 22.8978C19.599 25.4802 21.8069 27.5749 24.529 27.5749C27.2511 27.5749 29.459 25.4802 29.459 22.8978ZM32.2113 22.8978C32.2113 26.9149 28.7633 30.186 24.529 30.186C20.2946 30.186 16.8467 26.9149 16.8467 22.8978C16.8467 18.8806 20.2946 15.6095 24.529 15.6095C28.7633 15.6095 32.2113 18.8806 32.2113 22.8978ZM37.0506 29.0383C37.0506 32.4241 34.1773 35.1501 30.6083 35.1501H17.996C14.427 35.1501 11.5537 32.4241 11.5537 29.0383V17.0729C11.5537 13.687 14.427 10.9611 17.996 10.9611H30.6083C34.1773 10.9611 37.0506 13.687 37.0506 17.0729V29.0383ZM39.9541 17.1016C39.9541 12.1949 35.75 8.20645 30.5781 8.20645H17.996C12.824 8.20645 8.61993 12.1949 8.61993 17.1016V29.0383C8.61993 33.9449 12.824 37.9334 17.996 37.9334H30.5781C35.75 37.9334 39.9541 33.9449 39.9541 29.0383V17.1016Z" fill="#DCD1E4"/>
<path opacity="0.23" d="M34.389 15.0069C34.389 15.9538 33.5723 16.7573 32.544 16.7573C31.5156 16.7573 30.699 15.9825 30.699 15.0069C30.699 14.0313 31.5156 13.2566 32.544 13.2566C33.5723 13.2566 34.389 14.0313 34.389 15.0069ZM29.338 22.783C29.338 20.2005 27.1301 18.1059 24.408 18.1059C21.6859 18.1059 19.478 20.2005 19.478 22.783C19.478 25.3654 21.6859 27.4601 24.408 27.4601C27.1301 27.4601 29.338 25.3654 29.338 22.783ZM32.0903 22.783C32.0903 26.8001 28.6423 30.0712 24.408 30.0712C20.1736 30.0712 16.7257 26.8001 16.7257 22.783C16.7257 18.7658 20.1736 15.4947 24.408 15.4947C28.6423 15.4947 32.0903 18.7658 32.0903 22.783ZM36.9296 28.9235C36.9296 32.3094 34.0563 35.0353 30.4873 35.0353H17.875C14.306 35.0353 11.4327 32.3094 11.4327 28.9235V16.9581C11.4327 13.5722 14.306 10.8463 17.875 10.8463H30.4873C34.0563 10.8463 36.9296 13.5722 36.9296 16.9581V28.9235ZM39.8331 16.9868C39.8331 12.0801 35.629 8.09168 30.4571 8.09168H17.875C12.703 8.09168 8.49893 12.0801 8.49893 16.9868V28.9235C8.49893 33.8301 12.703 37.8186 17.875 37.8186H30.4571C35.629 37.8186 39.8331 33.8301 39.8331 28.9235V16.9868V16.9868Z" fill="#DACEE2"/>
<path opacity="0.24" d="M34.268 14.8921C34.268 15.839 33.4514 16.6425 32.423 16.6425C31.3947 16.6425 30.578 15.8677 30.578 14.8921C30.578 13.9165 31.3947 13.1418 32.423 13.1418C33.4514 13.1418 34.268 13.9165 34.268 14.8921ZM29.217 22.6682C29.217 20.0857 27.0091 17.9911 24.287 17.9911C21.5649 17.9911 19.357 20.0857 19.357 22.6682C19.357 25.2507 21.5649 27.3453 24.287 27.3453C27.0091 27.3453 29.217 25.2507 29.217 22.6682ZM31.9693 22.6682C31.9693 26.6853 28.5214 29.9565 24.287 29.9565C20.0527 29.9565 16.6047 26.6853 16.6047 22.6682C16.6047 18.651 20.0527 15.3799 24.287 15.3799C28.5214 15.3799 31.9693 18.651 31.9693 22.6682ZM36.8086 28.8087C36.8086 32.1946 33.9353 34.9205 30.3663 34.9205H17.754C14.1851 34.9205 11.3118 32.1946 11.3118 28.8087V16.8433C11.3118 13.4574 14.1851 10.7315 17.754 10.7315H30.3663C33.9353 10.7315 36.8086 13.4574 36.8086 16.8433V28.8087ZM39.7121 16.872C39.7121 11.9654 35.508 7.97691 30.3361 7.97691H17.754C12.5821 7.97691 8.37796 11.9654 8.37796 16.872V28.8087C8.37796 33.7154 12.5821 37.7038 17.754 37.7038H30.3361C35.508 37.7038 39.7121 33.7154 39.7121 28.8087V16.872V16.872Z" fill="#D8CCE1"/>
<path opacity="0.25" d="M34.1168 14.7487C34.1168 15.6956 33.3001 16.499 32.2718 16.499C31.2435 16.499 30.4268 15.7243 30.4268 14.7487C30.4268 13.7731 31.2435 12.9983 32.2718 12.9983C33.3001 12.9983 34.1168 13.7731 34.1168 14.7487ZM29.0658 22.5247C29.0658 19.9423 26.8579 17.8476 24.1358 17.8476C21.4137 17.8476 19.2058 19.9423 19.2058 22.5247C19.2058 25.1072 21.4137 27.2018 24.1358 27.2018C26.8579 27.2018 29.0658 25.1072 29.0658 22.5247ZM31.8181 22.5247C31.8181 26.5419 28.3702 29.813 24.1358 29.813C19.9015 29.813 16.4535 26.5419 16.4535 22.5247C16.4535 18.5076 19.9015 15.2365 24.1358 15.2365C28.3702 15.2365 31.8181 18.5076 31.8181 22.5247ZM36.6574 28.6652C36.6574 32.0511 33.7841 34.777 30.2151 34.777H17.6028C14.0339 34.777 11.1605 32.0511 11.1605 28.6652V16.6999C11.1605 13.314 14.0339 10.5881 17.6028 10.5881H30.2151C33.7841 10.5881 36.6574 13.314 36.6574 16.6999V28.6652ZM39.5609 16.7286C39.5609 11.8219 35.3568 7.83344 30.1849 7.83344H17.6028C12.4309 7.83344 8.22675 11.8219 8.22675 16.7286V28.6652C8.22675 33.5719 12.4309 37.5604 17.6028 37.5604H30.1849C35.3568 37.5604 39.5609 33.5719 39.5609 28.6652V16.7286V16.7286Z" fill="#D6C9DF"/>
<path opacity="0.26" d="M33.9958 14.6339C33.9958 15.5808 33.1791 16.3842 32.1508 16.3842C31.1225 16.3842 30.3058 15.6095 30.3058 14.6339C30.3058 13.6583 31.1225 12.8836 32.1508 12.8836C33.1791 12.8836 33.9958 13.6583 33.9958 14.6339ZM28.9448 22.4099C28.9448 19.8275 26.7369 17.7328 24.0148 17.7328C21.2927 17.7328 19.0848 19.8275 19.0848 22.4099C19.0848 24.9924 21.2927 27.0871 24.0148 27.0871C26.7369 27.0871 28.9448 24.9924 28.9448 22.4099ZM31.6971 22.4099C31.6971 26.4271 28.2492 29.6982 24.0148 29.6982C19.7805 29.6982 16.3325 26.4271 16.3325 22.4099C16.3325 18.3928 19.7805 15.1217 24.0148 15.1217C28.2492 15.1217 31.6971 18.3928 31.6971 22.4099ZM36.5364 28.5504C36.5364 31.9363 33.6631 34.6623 30.0941 34.6623H17.4818C13.9129 34.6623 11.0395 31.9363 11.0395 28.5504V16.5851C11.0395 13.1992 13.9129 10.4733 17.4818 10.4733H30.0941C33.6631 10.4733 36.5364 13.1992 36.5364 16.5851V28.5504ZM39.4399 16.6138C39.4399 11.7071 35.2358 7.71866 30.0639 7.71866H17.4818C12.3099 7.71866 8.10574 11.7071 8.10574 16.6138V28.5504C8.10574 33.4571 12.3099 37.4456 17.4818 37.4456H30.0639C35.2358 37.4456 39.4399 33.4571 39.4399 28.5504V16.6138Z" fill="#D4C7DD"/>
<path opacity="0.27" d="M33.8748 14.5191C33.8748 15.466 33.0582 16.2695 32.0298 16.2695C31.0015 16.2695 30.1849 15.4947 30.1849 14.5191C30.1849 13.5435 31.0015 12.7688 32.0298 12.7688C33.0582 12.7688 33.8748 13.5435 33.8748 14.5191ZM28.8238 22.2952C28.8238 19.7127 26.6159 17.6181 23.8938 17.6181C21.1717 17.6181 18.9638 19.7127 18.9638 22.2952C18.9638 24.8776 21.1717 26.9723 23.8938 26.9723C26.6159 26.9723 28.8238 24.8776 28.8238 22.2952ZM31.5761 22.2952C31.5761 26.3123 28.1282 29.5834 23.8938 29.5834C19.6595 29.5834 16.2115 26.3123 16.2115 22.2952C16.2115 18.278 19.6595 15.0069 23.8938 15.0069C28.1282 15.0069 31.5761 18.278 31.5761 22.2952ZM36.4154 28.4357C36.4154 31.8216 33.5421 34.5475 29.9731 34.5475H17.3608C13.7919 34.5475 10.9186 31.8216 10.9186 28.4357V16.4703C10.9186 13.0844 13.7919 10.3585 17.3608 10.3585H29.9731C33.5421 10.3585 36.4154 13.0844 36.4154 16.4703V28.4357ZM39.319 16.499C39.319 11.5923 35.1148 7.60388 29.9429 7.60388H17.3608C12.1889 7.60388 7.98477 11.5923 7.98477 16.499V28.4357C7.98477 33.3423 12.1889 37.3308 17.3608 37.3308H29.9429C35.1148 37.3308 39.319 33.3423 39.319 28.4357V16.499V16.499Z" fill="#D2C4DC"/>
<path opacity="0.29" d="M33.7235 14.4043C33.7235 15.3512 32.9069 16.1547 31.8786 16.1547C30.8502 16.1547 30.0336 15.3799 30.0336 14.4043C30.0336 13.4287 30.8502 12.654 31.8786 12.654C32.9069 12.654 33.7235 13.4287 33.7235 14.4043ZM28.6726 22.1804C28.6726 19.598 26.4647 17.5033 23.7426 17.5033C21.0205 17.5033 18.8126 19.598 18.8126 22.1804C18.8126 24.7629 21.0205 26.8575 23.7426 26.8575C26.4647 26.8575 28.6726 24.7629 28.6726 22.1804ZM31.4249 22.1804C31.4249 26.1976 27.9769 29.4687 23.7426 29.4687C19.5082 29.4687 16.0603 26.1976 16.0603 22.1804C16.0603 18.1633 19.5082 14.8921 23.7426 14.8921C27.9769 14.8921 31.4249 18.1633 31.4249 22.1804ZM36.2642 28.3209C36.2642 31.7068 33.3908 34.4327 29.8219 34.4327H17.2096C13.6406 34.4327 10.7673 31.7068 10.7673 28.3209V16.3555C10.7673 12.9696 13.6406 10.2437 17.2096 10.2437H29.8219C33.3908 10.2437 36.2642 12.9696 36.2642 16.3555V28.3209ZM39.1677 16.3842C39.1677 11.4776 34.9636 7.48911 29.7917 7.48911H17.2096C12.0376 7.48911 7.83353 11.4776 7.83353 16.3842V28.3209C7.83353 33.2276 12.0376 37.216 17.2096 37.216H29.7917C34.9636 37.216 39.1677 33.2276 39.1677 28.3209V16.3842Z" fill="#D0C2DA"/>
<path opacity="0.3" d="M33.6026 14.2609C33.6026 15.2078 32.786 16.0112 31.7576 16.0112C30.7293 16.0112 29.9126 15.2365 29.9126 14.2609C29.9126 13.2853 30.7293 12.5105 31.7576 12.5105C32.786 12.5105 33.6026 13.2853 33.6026 14.2609ZM28.5516 22.0369C28.5516 19.4545 26.3437 17.3598 23.6216 17.3598C20.8995 17.3598 18.6916 19.4545 18.6916 22.0369C18.6916 24.6194 20.8995 26.714 23.6216 26.714C26.3437 26.714 28.5516 24.6194 28.5516 22.0369ZM31.3039 22.0369C31.3039 26.0541 27.856 29.3252 23.6216 29.3252C19.3873 29.3252 15.9393 26.0541 15.9393 22.0369C15.9393 18.0198 19.3873 14.7487 23.6216 14.7487C27.856 14.7487 31.3039 18.0198 31.3039 22.0369ZM36.1432 28.1774C36.1432 31.5633 33.2699 34.2892 29.7009 34.2892H17.0886C13.5197 34.2892 10.6463 31.5633 10.6463 28.1774V16.2121C10.6463 12.8262 13.5197 10.1002 17.0886 10.1002H29.7009C33.2699 10.1002 36.1432 12.8262 36.1432 16.2121V28.1774ZM39.0467 16.2408C39.0467 11.3341 34.8426 7.34563 29.6707 7.34563H17.0886C11.9167 7.34563 7.71255 11.3341 7.71255 16.2408V28.1774C7.71255 33.0841 11.9167 37.0726 17.0886 37.0726H29.6707C34.8426 37.0726 39.0467 33.0841 39.0467 28.1774V16.2408V16.2408Z" fill="#CEBFD9"/>
<path opacity="0.31" d="M33.4816 14.1461C33.4816 15.093 32.665 15.8964 31.6366 15.8964C30.6083 15.8964 29.7917 15.1217 29.7917 14.1461C29.7917 13.1705 30.6083 12.3958 31.6366 12.3958C32.665 12.3958 33.4816 13.1705 33.4816 14.1461ZM28.4306 21.9222C28.4306 19.3397 26.2227 17.245 23.5006 17.245C20.7786 17.245 18.5706 19.3397 18.5706 21.9222C18.5706 24.5046 20.7786 26.5993 23.5006 26.5993C26.2227 26.5993 28.4306 24.5046 28.4306 21.9222ZM31.183 21.9222C31.183 25.9393 27.735 29.2104 23.5006 29.2104C19.2663 29.2104 15.8183 25.9393 15.8183 21.9222C15.8183 17.905 19.2663 14.6339 23.5006 14.6339C27.735 14.6339 31.183 17.905 31.183 21.9222ZM36.0222 28.0627C36.0222 31.4485 33.1489 34.1745 29.58 34.1745H16.9676C13.3987 34.1745 10.5254 31.4485 10.5254 28.0627V16.0973C10.5254 12.7114 13.3987 9.98548 16.9676 9.98548H29.58C33.1489 9.98548 36.0222 12.7114 36.0222 16.0973V28.0627ZM38.9258 16.126C38.9258 11.2193 34.7217 7.23086 29.5497 7.23086H16.9676C11.7957 7.23086 7.59158 11.2193 7.59158 16.126V28.0627C7.59158 32.9693 11.7957 36.9578 16.9676 36.9578H29.5497C34.7217 36.9578 38.9258 32.9693 38.9258 28.0627V16.126Z" fill="#CCBCD7"/>
<path opacity="0.32" d="M33.3606 14.0313C33.3606 14.9782 32.544 15.7817 31.5157 15.7817C30.4873 15.7817 29.6707 15.0069 29.6707 14.0313C29.6707 13.0557 30.4873 12.281 31.5157 12.281C32.544 12.281 33.3606 13.0557 33.3606 14.0313ZM28.3097 21.8074C28.3097 19.2249 26.1018 17.1303 23.3797 17.1303C20.6576 17.1303 18.4497 19.2249 18.4497 21.8074C18.4497 24.3898 20.6576 26.4845 23.3797 26.4845C26.1018 26.4845 28.3097 24.3898 28.3097 21.8074ZM31.062 21.8074C31.062 25.8245 27.614 29.0956 23.3797 29.0956C19.1453 29.0956 15.6974 25.8245 15.6974 21.8074C15.6974 17.7902 19.1453 14.5191 23.3797 14.5191C27.614 14.5191 31.062 17.7902 31.062 21.8074ZM35.9012 27.9479C35.9012 31.3338 33.0279 34.0597 29.459 34.0597H16.8467C13.2777 34.0597 10.4044 31.3338 10.4044 27.9479V15.9825C10.4044 12.5966 13.2777 9.8707 16.8467 9.8707H29.459C33.0279 9.8707 35.9012 12.5966 35.9012 15.9825V27.9479ZM38.8048 16.0112C38.8048 11.1045 34.6007 7.11609 29.4287 7.11609H16.8467C11.6747 7.11609 7.47061 11.1045 7.47061 16.0112V27.9479C7.47061 32.8545 11.6747 36.843 16.8467 36.843H29.4287C34.6007 36.843 38.8048 32.8545 38.8048 27.9479V16.0112V16.0112Z" fill="#CABAD6"/>
<path opacity="0.33" d="M33.2094 13.8879C33.2094 14.8348 32.3928 15.6382 31.3644 15.6382C30.3361 15.6382 29.5195 14.8635 29.5195 13.8879C29.5195 12.9123 30.3361 12.1375 31.3644 12.1375C32.3928 12.1375 33.2094 12.9123 33.2094 13.8879ZM28.1584 21.6639C28.1584 19.0815 25.9505 16.9868 23.2284 16.9868C20.5063 16.9868 18.2984 19.0815 18.2984 21.6639C18.2984 24.2464 20.5063 26.341 23.2284 26.341C25.9505 26.341 28.1584 24.2464 28.1584 21.6639ZM30.9107 21.6639C30.9107 25.6811 27.4628 28.9522 23.2284 28.9522C18.9941 28.9522 15.5461 25.6811 15.5461 21.6639C15.5461 17.6468 18.9941 14.3757 23.2284 14.3757C27.4628 14.3757 30.9107 17.6468 30.9107 21.6639ZM35.75 27.8044C35.75 31.1903 32.8767 33.9162 29.3077 33.9162H16.6954C13.1265 33.9162 10.2532 31.1903 10.2532 27.8044V15.839C10.2532 12.4532 13.1265 9.72724 16.6954 9.72724H29.3077C32.8767 9.72724 35.75 12.4532 35.75 15.839V27.8044ZM38.6536 15.8677C38.6536 10.9611 34.4494 6.97261 29.2775 6.97261H16.6954C11.5235 6.97261 7.31937 10.9611 7.31937 15.8677V27.8044C7.31937 32.7111 11.5235 36.6995 16.6954 36.6995H29.2775C34.4494 36.6995 38.6536 32.7111 38.6536 27.8044V15.8677V15.8677Z" fill="#C8B7D4"/>
<path opacity="0.35" d="M33.0884 13.7731C33.0884 14.72 32.2718 15.5234 31.2434 15.5234C30.2151 15.5234 29.3985 14.7487 29.3985 13.7731C29.3985 12.7975 30.2151 12.0228 31.2434 12.0228C32.2718 12.0228 33.0884 12.7975 33.0884 13.7731ZM28.0374 21.5491C28.0374 18.9667 25.8295 16.872 23.1075 16.872C20.3854 16.872 18.1775 18.9667 18.1775 21.5491C18.1775 24.1316 20.3854 26.2263 23.1075 26.2263C25.8295 26.2263 28.0374 24.1316 28.0374 21.5491ZM30.7898 21.5491C30.7898 25.5663 27.3418 28.8374 23.1075 28.8374C18.8731 28.8374 15.4251 25.5663 15.4251 21.5491C15.4251 17.532 18.8731 14.2609 23.1075 14.2609C27.3418 14.2609 30.7898 17.532 30.7898 21.5491ZM35.629 27.6896C35.629 31.0755 32.7557 33.8015 29.1868 33.8015H16.5745C13.0055 33.8015 10.1322 31.0755 10.1322 27.6896V15.7243C10.1322 12.3384 13.0055 9.61246 16.5745 9.61246H29.1868C32.7557 9.61246 35.629 12.3384 35.629 15.7243V27.6896ZM38.5326 15.753C38.5326 10.8463 34.3285 6.85785 29.1565 6.85785H16.5745C11.4025 6.85785 7.19839 10.8463 7.19839 15.753V27.6896C7.19839 32.5963 11.4025 36.5848 16.5745 36.5848H29.1565C34.3285 36.5848 38.5326 32.5963 38.5326 27.6896V15.753Z" fill="#C6B5D3"/>
<path opacity="0.36" d="M32.9674 13.6583C32.9674 14.6052 32.1508 15.4086 31.1224 15.4086C30.0941 15.4086 29.2775 14.6339 29.2775 13.6583C29.2775 12.6827 30.0941 11.908 31.1224 11.908C32.1508 11.908 32.9674 12.6827 32.9674 13.6583ZM27.9164 21.4344C27.9164 18.8519 25.7085 16.7573 22.9865 16.7573C20.2644 16.7573 18.0565 18.8519 18.0565 21.4344C18.0565 24.0168 20.2644 26.1115 22.9865 26.1115C25.7085 26.1115 27.9164 24.0168 27.9164 21.4344ZM30.6688 21.4344C30.6688 25.4515 27.2208 28.7226 22.9865 28.7226C18.7521 28.7226 15.3041 25.4515 15.3041 21.4344C15.3041 17.4172 18.7521 14.1461 22.9865 14.1461C27.2208 14.1461 30.6688 17.4172 30.6688 21.4344ZM35.508 27.5749C35.508 30.9607 32.6347 33.6867 29.0658 33.6867H16.4535C12.8845 33.6867 10.0112 30.9607 10.0112 27.5749V15.6095C10.0112 12.2236 12.8845 9.49768 16.4535 9.49768H29.0658C32.6347 9.49768 35.508 12.2236 35.508 15.6095V27.5749ZM38.4116 15.6382C38.4116 10.7315 34.2075 6.74306 29.0355 6.74306H16.4535C11.2815 6.74306 7.07739 10.7315 7.07739 15.6382V27.5749C7.07739 32.4815 11.2815 36.47 16.4535 36.47H29.0355C34.2075 36.47 38.4116 32.4815 38.4116 27.5749V15.6382Z" fill="#C4B2D1"/>
<path opacity="0.37" d="M32.8162 13.5148C32.8162 14.4617 31.9996 15.2652 30.9712 15.2652C29.9429 15.2652 29.1263 14.4904 29.1263 13.5148C29.1263 12.5392 29.9429 11.7645 30.9712 11.7645C31.9996 11.7645 32.8162 12.5392 32.8162 13.5148ZM27.7652 21.2909C27.7652 18.7084 25.5573 16.6138 22.8352 16.6138C20.1132 16.6138 17.9052 18.7084 17.9052 21.2909C17.9052 23.8733 20.1132 25.968 22.8352 25.968C25.5573 25.968 27.7652 23.8733 27.7652 21.2909ZM30.5175 21.2909C30.5175 25.308 27.0696 28.5792 22.8352 28.5792C18.6009 28.5792 15.1529 25.308 15.1529 21.2909C15.1529 17.2737 18.6009 14.0026 22.8352 14.0026C27.0696 14.0026 30.5175 17.2737 30.5175 21.2909ZM35.3568 27.4314C35.3568 30.8173 32.4835 33.5432 28.9145 33.5432H16.3022C12.7333 33.5432 9.85998 30.8173 9.85998 27.4314V15.466C9.85998 12.0801 12.7333 9.35422 16.3022 9.35422H28.9145C32.4835 9.35422 35.3568 12.0801 35.3568 15.466V27.4314ZM38.2604 15.4947C38.2604 10.5881 34.0563 6.5996 28.8843 6.5996H16.3022C11.1303 6.5996 6.92618 10.5881 6.92618 15.4947V27.4314C6.92618 32.3381 11.1303 36.3265 16.3022 36.3265H28.8843C34.0563 36.3265 38.2604 32.3381 38.2604 27.4314V15.4947Z" fill="#C2B0D0"/>
<path opacity="0.38" d="M32.6952 13.4001C32.6952 14.347 31.8786 15.1504 30.8502 15.1504C29.8219 15.1504 29.0053 14.3756 29.0053 13.4001C29.0053 12.4245 29.8219 11.6497 30.8502 11.6497C31.8786 11.6497 32.6952 12.4245 32.6952 13.4001ZM27.6443 21.1761C27.6443 18.5937 25.4363 16.499 22.7143 16.499C19.9922 16.499 17.7843 18.5937 17.7843 21.1761C17.7843 23.7586 19.9922 25.8532 22.7143 25.8532C25.4363 25.8532 27.6443 23.7586 27.6443 21.1761ZM30.3966 21.1761C30.3966 25.1933 26.9486 28.4644 22.7143 28.4644C18.4799 28.4644 15.0319 25.1933 15.0319 21.1761C15.0319 17.159 18.4799 13.8879 22.7143 13.8879C26.9486 13.8879 30.3966 17.159 30.3966 21.1761ZM35.2358 27.3166C35.2358 30.7025 32.3625 33.4284 28.7936 33.4284H16.1813C12.6123 33.4284 9.739 30.7025 9.739 27.3166V15.3512C9.739 11.9654 12.6123 9.23943 16.1813 9.23943H28.7936C32.3625 9.23943 35.2358 11.9654 35.2358 15.3512V27.3166ZM38.1394 15.3799C38.1394 10.4733 33.9353 6.48482 28.7633 6.48482H16.1813C11.0093 6.48482 6.80521 10.4733 6.80521 15.3799V27.3166C6.80521 32.2233 11.0093 36.2117 16.1813 36.2117H28.7633C33.9353 36.2117 38.1394 32.2233 38.1394 27.3166V15.3799V15.3799Z" fill="#C0ADCE"/>
<path opacity="0.39" d="M32.5742 13.2853C32.5742 14.2322 31.7576 15.0356 30.7293 15.0356C29.7009 15.0356 28.8843 14.2609 28.8843 13.2853C28.8843 12.3097 29.7009 11.5349 30.7293 11.5349C31.7576 11.5349 32.5742 12.3097 32.5742 13.2853ZM27.5233 21.0613C27.5233 18.4789 25.3154 16.3842 22.5933 16.3842C19.8712 16.3842 17.6633 18.4789 17.6633 21.0613C17.6633 23.6438 19.8712 25.7384 22.5933 25.7384C25.3154 25.7384 27.5233 23.6438 27.5233 21.0613ZM30.2756 21.0613C30.2756 25.0785 26.8276 28.3496 22.5933 28.3496C18.3589 28.3496 14.911 25.0785 14.911 21.0613C14.911 17.0442 18.3589 13.7731 22.5933 13.7731C26.8276 13.7731 30.2756 17.0442 30.2756 21.0613ZM35.1149 27.2018C35.1149 30.5877 32.2416 33.3136 28.6726 33.3136H16.0603C12.4913 33.3136 9.61803 30.5877 9.61803 27.2018V15.2365C9.61803 11.8506 12.4913 9.12466 16.0603 9.12466H28.6726C32.2416 9.12466 35.1149 11.8506 35.1149 15.2365V27.2018ZM38.0184 15.2652C38.0184 10.3585 33.8143 6.37004 28.6424 6.37004H16.0603C10.8883 6.37004 6.68423 10.3585 6.68423 15.2652V27.2018C6.68423 32.1085 10.8883 36.097 16.0603 36.097H28.6424C33.8143 36.097 38.0184 32.1085 38.0184 27.2018V15.2652Z" fill="#BEABCD"/>
<path opacity="0.4" d="M32.423 13.1705C32.423 14.1174 31.6064 14.9208 30.578 14.9208C29.5497 14.9208 28.7331 14.1461 28.7331 13.1705C28.7331 12.1949 29.5497 11.4202 30.578 11.4202C31.6064 11.4202 32.423 12.1949 32.423 13.1705ZM27.372 20.9466C27.372 18.3641 25.1641 16.2695 22.442 16.2695C19.72 16.2695 17.512 18.3641 17.512 20.9466C17.512 23.529 19.72 25.6237 22.442 25.6237C25.1641 25.6237 27.372 23.529 27.372 20.9466ZM30.1244 20.9466C30.1244 24.9637 26.6764 28.2348 22.442 28.2348C18.2077 28.2348 14.7597 24.9637 14.7597 20.9466C14.7597 16.9294 18.2077 13.6583 22.442 13.6583C26.6764 13.6583 30.1244 16.9294 30.1244 20.9466ZM34.9636 27.0871C34.9636 30.473 32.0903 33.1989 28.5213 33.1989H15.909C12.3401 33.1989 9.46678 30.473 9.46678 27.0871V15.1217C9.46678 11.7358 12.3401 9.00989 15.909 9.00989H28.5213C32.0903 9.00989 34.9636 11.7358 34.9636 15.1217V27.0871ZM37.8672 15.1504C37.8672 10.2437 33.6631 6.25526 28.4911 6.25526H15.909C10.7371 6.25526 6.53299 10.2437 6.53299 15.1504V27.0871C6.53299 31.9937 10.7371 35.9822 15.909 35.9822H28.4911C33.6631 35.9822 37.8672 31.9937 37.8672 27.0871V15.1504V15.1504Z" fill="#BCA8CB"/>
<path opacity="0.42" d="M32.302 13.027C32.302 13.9739 31.4854 14.7774 30.4571 14.7774C29.4287 14.7774 28.6121 14.0026 28.6121 13.027C28.6121 12.0514 29.4287 11.2767 30.4571 11.2767C31.4854 11.2767 32.302 12.0514 32.302 13.027ZM27.2511 20.8031C27.2511 18.2206 25.0431 16.126 22.3211 16.126C19.599 16.126 17.3911 18.2206 17.3911 20.8031C17.3911 23.3855 19.599 25.4802 22.3211 25.4802C25.0431 25.4802 27.2511 23.3855 27.2511 20.8031ZM30.0034 20.8031C30.0034 24.8202 26.5554 28.0913 22.3211 28.0913C18.0867 28.0913 14.6387 24.8202 14.6387 20.8031C14.6387 16.7859 18.0867 13.5148 22.3211 13.5148C26.5554 13.5148 30.0034 16.7859 30.0034 20.8031ZM34.8426 26.9436C34.8426 30.3295 31.9693 33.0554 28.4004 33.0554H15.7881C12.2191 33.0554 9.34581 30.3295 9.34581 26.9436V14.9782C9.34581 11.5923 12.2191 8.86642 15.7881 8.86642H28.4004C31.9693 8.86642 34.8426 11.5923 34.8426 14.9782V26.9436ZM37.7462 15.0069C37.7462 10.1003 33.5421 6.11179 28.3701 6.11179H15.7881C10.6161 6.11179 6.41202 10.1003 6.41202 15.0069V26.9436C6.41202 31.8503 10.6161 35.8387 15.7881 35.8387H28.3701C33.5421 35.8387 37.7462 31.8503 37.7462 26.9436V15.0069Z" fill="#BAA5CA"/>
<path opacity="0.43" d="M32.1811 12.9123C32.1811 13.8592 31.3644 14.6626 30.3361 14.6626C29.3078 14.6626 28.4911 13.8879 28.4911 12.9123C28.4911 11.9367 29.3078 11.1619 30.3361 11.1619C31.3644 11.1619 32.1811 11.9367 32.1811 12.9123ZM27.1301 20.6883C27.1301 18.1059 24.9222 16.0112 22.2001 16.0112C19.478 16.0112 17.2701 18.1059 17.2701 20.6883C17.2701 23.2708 19.478 25.3654 22.2001 25.3654C24.9222 25.3654 27.1301 23.2708 27.1301 20.6883ZM29.8824 20.6883C29.8824 24.7055 26.4344 27.9766 22.2001 27.9766C17.9657 27.9766 14.5178 24.7055 14.5178 20.6883C14.5178 16.6712 17.9657 13.4001 22.2001 13.4001C26.4344 13.4001 29.8824 16.6712 29.8824 20.6883ZM34.7217 26.8288C34.7217 30.2147 31.8484 32.9406 28.2794 32.9406H15.6671C12.0981 32.9406 9.22485 30.2147 9.22485 26.8288V14.8634C9.22485 11.4776 12.0981 8.75164 15.6671 8.75164H28.2794C31.8484 8.75164 34.7217 11.4776 34.7217 14.8634V26.8288ZM37.6252 14.8921C37.6252 9.98548 33.4211 5.99702 28.2492 5.99702H15.6671C10.4951 5.99702 6.29105 9.98548 6.29105 14.8921V26.8288C6.29105 31.7355 10.4951 35.7239 15.6671 35.7239H28.2492C33.4211 35.7239 37.6252 31.7355 37.6252 26.8288V14.8921V14.8921Z" fill="#B8A3C8"/>
<path opacity="0.44" d="M32.0298 12.7975C32.0298 13.7444 31.2132 14.5478 30.1849 14.5478C29.1565 14.5478 28.3399 13.7731 28.3399 12.7975C28.3399 11.8219 29.1565 11.0472 30.1849 11.0472C31.2132 11.0472 32.0298 11.8219 32.0298 12.7975ZM26.9788 20.5735C26.9788 17.9911 24.7709 15.8964 22.0488 15.8964C19.3268 15.8964 17.1189 17.9911 17.1189 20.5735C17.1189 23.156 19.3268 25.2507 22.0488 25.2507C24.7709 25.2507 26.9788 23.156 26.9788 20.5735ZM29.7312 20.5735C29.7312 24.5907 26.2832 27.8618 22.0488 27.8618C17.8145 27.8618 14.3665 24.5907 14.3665 20.5735C14.3665 16.5564 17.8145 13.2853 22.0488 13.2853C26.2832 13.2853 29.7312 16.5564 29.7312 20.5735ZM34.5704 26.714C34.5704 30.0999 31.6971 32.8258 28.1282 32.8258H15.5159C11.9469 32.8258 9.0736 30.0999 9.0736 26.714V14.7487C9.0736 11.3628 11.9469 8.63686 15.5159 8.63686H28.1282C31.6971 8.63686 34.5704 11.3628 34.5704 14.7487V26.714ZM37.474 14.7774C37.474 9.8707 33.2699 5.88225 28.0979 5.88225H15.5159C10.3439 5.88225 6.1398 9.8707 6.1398 14.7774V26.714C6.1398 31.6207 10.3439 35.6092 15.5159 35.6092H28.0979C33.2699 35.6092 37.474 31.6207 37.474 26.714V14.7774V14.7774Z" fill="#B6A0C7"/>
<path opacity="0.45" d="M31.9089 12.654C31.9089 13.6009 31.0922 14.4043 30.0639 14.4043C29.0355 14.4043 28.2189 13.6296 28.2189 12.654C28.2189 11.6784 29.0355 10.9037 30.0639 10.9037C31.0922 10.9037 31.9089 11.6784 31.9089 12.654ZM26.8579 20.4301C26.8579 17.8476 24.65 15.753 21.9279 15.753C19.2058 15.753 16.9979 17.8476 16.9979 20.4301C16.9979 23.0125 19.2058 25.1072 21.9279 25.1072C24.65 25.1072 26.8579 23.0125 26.8579 20.4301ZM29.6102 20.4301C29.6102 24.4472 26.1622 27.7183 21.9279 27.7183C17.6935 27.7183 14.2456 24.4472 14.2456 20.4301C14.2456 16.4129 17.6935 13.1418 21.9279 13.1418C26.1622 13.1418 29.6102 16.4129 29.6102 20.4301ZM34.4495 26.5706C34.4495 29.9565 31.5762 32.6824 28.0072 32.6824H15.3949C11.8259 32.6824 8.95263 29.9565 8.95263 26.5706V14.6052C8.95263 11.2193 11.8259 8.4934 15.3949 8.4934H28.0072C31.5762 8.4934 34.4495 11.2193 34.4495 14.6052V26.5706ZM37.353 14.6339C37.353 9.72724 33.1489 5.73878 27.977 5.73878H15.3949C10.2229 5.73878 6.01883 9.72724 6.01883 14.6339V26.5706C6.01883 31.4772 10.2229 35.4657 15.3949 35.4657H27.977C33.1489 35.4657 37.353 31.4772 37.353 26.5706V14.6339Z" fill="#B49EC5"/>
<path opacity="0.46" d="M31.7879 12.5392C31.7879 13.4861 30.9712 14.2896 29.9429 14.2896C28.9145 14.2896 28.0979 13.5148 28.0979 12.5392C28.0979 11.5637 28.9145 10.7889 29.9429 10.7889C30.9712 10.7889 31.7879 11.5637 31.7879 12.5392ZM26.7369 20.3153C26.7369 17.7328 24.529 15.6382 21.8069 15.6382C19.0848 15.6382 16.8769 17.7328 16.8769 20.3153C16.8769 22.8978 19.0848 24.9924 21.8069 24.9924C24.529 24.9924 26.7369 22.8978 26.7369 20.3153ZM29.4892 20.3153C29.4892 24.3324 26.0412 27.6036 21.8069 27.6036C17.5725 27.6036 14.1246 24.3324 14.1246 20.3153C14.1246 16.2981 17.5725 13.027 21.8069 13.027C26.0412 13.027 29.4892 16.2981 29.4892 20.3153ZM34.3285 26.4558C34.3285 29.8417 31.4551 32.5676 27.8862 32.5676H15.2739C11.7049 32.5676 8.83163 29.8417 8.83163 26.4558V14.4904C8.83163 11.1046 11.7049 8.37862 15.2739 8.37862H27.8862C31.4551 8.37862 34.3285 11.1046 34.3285 14.4904V26.4558ZM37.232 14.5191C37.232 9.61246 33.0279 5.62401 27.856 5.62401H15.2739C10.1019 5.62401 5.89783 9.61246 5.89783 14.5191V26.4558C5.89783 31.3625 10.1019 35.3509 15.2739 35.3509H27.856C33.0279 35.3509 37.232 31.3625 37.232 26.4558V14.5191V14.5191Z" fill="#B29BC4"/>
<path opacity="0.48" d="M31.6669 12.4245C31.6669 13.3714 30.8502 14.1748 29.8219 14.1748C28.7936 14.1748 27.9769 13.4001 27.9769 12.4245C27.9769 11.4489 28.7936 10.6741 29.8219 10.6741C30.8502 10.6741 31.6669 11.4489 31.6669 12.4245ZM26.6159 20.2005C26.6159 17.6181 24.408 15.5234 21.6859 15.5234C18.9638 15.5234 16.7559 17.6181 16.7559 20.2005C16.7559 22.783 18.9638 24.8776 21.6859 24.8776C24.408 24.8776 26.6159 22.783 26.6159 20.2005ZM29.3682 20.2005C29.3682 24.2177 25.9203 27.4888 21.6859 27.4888C17.4516 27.4888 14.0036 24.2177 14.0036 20.2005C14.0036 16.1834 17.4516 12.9123 21.6859 12.9123C25.9203 12.9123 29.3682 16.1834 29.3682 20.2005ZM34.2075 26.341C34.2075 29.7269 31.3342 32.4528 27.7652 32.4528H15.1529C11.584 32.4528 8.71065 29.7269 8.71065 26.341V14.3756C8.71065 10.9898 11.584 8.26384 15.1529 8.26384H27.7652C31.3342 8.26384 34.2075 10.9898 34.2075 14.3756V26.341ZM37.111 14.4043C37.111 9.49768 32.9069 5.50922 27.735 5.50922H15.1529C9.98095 5.50922 5.77686 9.49768 5.77686 14.4043V26.341C5.77686 31.2477 9.98095 35.2361 15.1529 35.2361H27.735C32.9069 35.2361 37.111 31.2477 37.111 26.341V14.4043V14.4043Z" fill="#B099C2"/>
<path opacity="0.49" d="M31.5157 12.281C31.5157 13.2279 30.699 14.0313 29.6707 14.0313C28.6424 14.0313 27.8257 13.2566 27.8257 12.281C27.8257 11.3054 28.6424 10.5307 29.6707 10.5307C30.699 10.5307 31.5157 11.3054 31.5157 12.281ZM26.4647 20.0571C26.4647 17.4746 24.2568 15.3799 21.5347 15.3799C18.8126 15.3799 16.6047 17.4746 16.6047 20.0571C16.6047 22.6395 18.8126 24.7342 21.5347 24.7342C24.2568 24.7342 26.4647 22.6395 26.4647 20.0571ZM29.217 20.0571C29.217 24.0742 25.769 27.3453 21.5347 27.3453C17.3004 27.3453 13.8524 24.0742 13.8524 20.0571C13.8524 16.0399 17.3004 12.7688 21.5347 12.7688C25.769 12.7688 29.217 16.0399 29.217 20.0571ZM34.0563 26.1976C34.0563 29.5834 31.183 32.3094 27.614 32.3094H15.0017C11.4328 32.3094 8.55944 29.5834 8.55944 26.1976V14.2322C8.55944 10.8463 11.4328 8.12038 15.0017 8.12038H27.614C31.183 8.12038 34.0563 10.8463 34.0563 14.2322V26.1976ZM36.9598 14.2609C36.9598 9.35421 32.7557 5.36576 27.5838 5.36576H15.0017C9.82975 5.36576 5.62564 9.35421 5.62564 14.2609V26.1976C5.62564 31.1042 9.82975 35.0927 15.0017 35.0927H27.5838C32.7557 35.0927 36.9598 31.1042 36.9598 26.1976V14.2609V14.2609Z" fill="#AE96C1"/>
<path opacity="0.5" d="M31.3947 12.1662C31.3947 13.1131 30.5781 13.9165 29.5497 13.9165C28.5214 13.9165 27.7048 13.1418 27.7048 12.1662C27.7048 11.1906 28.5214 10.4159 29.5497 10.4159C30.5781 10.4159 31.3947 11.1906 31.3947 12.1662ZM26.3437 19.9423C26.3437 17.3598 24.1358 15.2652 21.4137 15.2652C18.6916 15.2652 16.4837 17.3598 16.4837 19.9423C16.4837 22.5247 18.6916 24.6194 21.4137 24.6194C24.1358 24.6194 26.3437 22.5247 26.3437 19.9423ZM29.096 19.9423C29.096 23.9594 25.6481 27.2305 21.4137 27.2305C17.1794 27.2305 13.7314 23.9594 13.7314 19.9423C13.7314 15.9251 17.1794 12.654 21.4137 12.654C25.6481 12.654 29.096 15.9251 29.096 19.9423ZM33.9353 26.0828C33.9353 29.4687 31.062 32.1946 27.493 32.1946H14.8807C11.3118 32.1946 8.43846 29.4687 8.43846 26.0828V14.1174C8.43846 10.7315 11.3118 8.00559 14.8807 8.00559H27.493C31.062 8.00559 33.9353 10.7315 33.9353 14.1174V26.0828ZM36.8388 14.1461C36.8388 9.23943 32.6347 5.25098 27.4628 5.25098H14.8807C9.70877 5.25098 5.50467 9.23943 5.50467 14.1461V26.0828C5.50467 30.9894 9.70877 34.9779 14.8807 34.9779H27.4628C32.6347 34.9779 36.8388 30.9894 36.8388 26.0828V14.1461Z" fill="#AC93BF"/>
<path opacity="0.51" d="M31.2737 12.0514C31.2737 12.9983 30.4571 13.8018 29.4287 13.8018C28.4004 13.8018 27.5838 13.027 27.5838 12.0514C27.5838 11.0758 28.4004 10.3011 29.4287 10.3011C30.4571 10.3011 31.2737 11.0758 31.2737 12.0514ZM26.2227 19.8275C26.2227 17.245 24.0148 15.1504 21.2927 15.1504C18.5706 15.1504 16.3627 17.245 16.3627 19.8275C16.3627 22.41 18.5706 24.5046 21.2927 24.5046C24.0148 24.5046 26.2227 22.41 26.2227 19.8275ZM28.975 19.8275C28.975 23.8447 25.5271 27.1158 21.2927 27.1158C17.0584 27.1158 13.6104 23.8447 13.6104 19.8275C13.6104 15.8104 17.0584 12.5392 21.2927 12.5392C25.5271 12.5392 28.975 15.8104 28.975 19.8275ZM33.8143 25.968C33.8143 29.3539 30.941 32.0798 27.372 32.0798H14.7597C11.1908 32.0798 8.31747 29.3539 8.31747 25.968V14.0026C8.31747 10.6167 11.1908 7.89083 14.7597 7.89083H27.372C30.941 7.89083 33.8143 10.6167 33.8143 14.0026V25.968ZM36.7179 14.0313C36.7179 9.12466 32.5137 5.1362 27.3418 5.1362H14.7597C9.58777 5.1362 5.38367 9.12466 5.38367 14.0313V25.968C5.38367 30.8747 9.58777 34.8631 14.7597 34.8631H27.3418C32.5137 34.8631 36.7179 30.8747 36.7179 25.968V14.0313V14.0313Z" fill="#AB91BD"/>
<path opacity="0.52" d="M31.1225 11.9367C31.1225 12.8836 30.3058 13.687 29.2775 13.687C28.2492 13.687 27.4325 12.9123 27.4325 11.9367C27.4325 10.9611 28.2492 10.1863 29.2775 10.1863C30.3058 10.1863 31.1225 10.9611 31.1225 11.9367ZM26.0715 19.7127C26.0715 17.1303 23.8636 15.0356 21.1415 15.0356C18.4194 15.0356 16.2115 17.1303 16.2115 19.7127C16.2115 22.2952 18.4194 24.3898 21.1415 24.3898C23.8636 24.3898 26.0715 22.2952 26.0715 19.7127ZM28.8238 19.7127C28.8238 23.7299 25.3758 27.001 21.1415 27.001C16.9072 27.001 13.4592 23.7299 13.4592 19.7127C13.4592 15.6956 16.9072 12.4245 21.1415 12.4245C25.3758 12.4245 28.8238 15.6956 28.8238 19.7127ZM33.6631 25.8532C33.6631 29.2391 30.7898 31.965 27.2208 31.965H14.6085C11.0396 31.965 8.16624 29.2391 8.16624 25.8532V13.8879C8.16624 10.502 11.0396 7.77605 14.6085 7.77605H27.2208C30.7898 7.77605 33.6631 10.502 33.6631 13.8879V25.8532ZM36.5666 13.9166C36.5666 9.00989 32.3625 5.02144 27.1906 5.02144H14.6085C9.43655 5.02144 5.23245 9.00989 5.23245 13.9166V25.8532C5.23245 30.7599 9.43655 34.7483 14.6085 34.7483H27.1906C32.3625 34.7483 36.5666 30.7599 36.5666 25.8532V13.9166Z" fill="#A98EBC"/>
<path opacity="0.54" d="M31.0015 11.7932C31.0015 12.7401 30.1848 13.5435 29.1565 13.5435C28.1282 13.5435 27.3115 12.7688 27.3115 11.7932C27.3115 10.8176 28.1282 10.0429 29.1565 10.0429C30.1848 10.0429 31.0015 10.8176 31.0015 11.7932ZM25.9505 19.5693C25.9505 16.9868 23.7426 14.8921 21.0205 14.8921C18.2984 14.8921 16.0905 16.9868 16.0905 19.5693C16.0905 22.1517 18.2984 24.2464 21.0205 24.2464C23.7426 24.2464 25.9505 22.1517 25.9505 19.5693ZM28.7028 19.5693C28.7028 23.5864 25.2548 26.8575 21.0205 26.8575C16.7862 26.8575 13.3382 23.5864 13.3382 19.5693C13.3382 15.5521 16.7862 12.281 21.0205 12.281C25.2548 12.281 28.7028 15.5521 28.7028 19.5693ZM33.5421 25.7098C33.5421 29.0956 30.6688 31.8216 27.0998 31.8216H14.4875C10.9186 31.8216 8.04525 29.0956 8.04525 25.7098V13.7444C8.04525 10.3585 10.9186 7.63259 14.4875 7.63259H27.0998C30.6688 7.63259 33.5421 10.3585 33.5421 13.7444V25.7098ZM36.4456 13.7731C36.4456 8.86642 32.2415 4.87796 27.0696 4.87796H14.4875C9.31555 4.87796 5.11145 8.86642 5.11145 13.7731V25.7098C5.11145 30.6164 9.31555 34.6049 14.4875 34.6049H27.0696C32.2415 34.6049 36.4456 30.6164 36.4456 25.7098V13.7731V13.7731Z" fill="#A78CBA"/>
<path opacity="0.55" d="M30.8805 11.6784C30.8805 12.6253 30.0639 13.4287 29.0355 13.4287C28.0072 13.4287 27.1906 12.654 27.1906 11.6784C27.1906 10.7028 28.0072 9.9281 29.0355 9.9281C30.0639 9.9281 30.8805 10.7028 30.8805 11.6784ZM25.8295 19.4545C25.8295 16.872 23.6216 14.7774 20.8995 14.7774C18.1775 14.7774 15.9695 16.872 15.9695 19.4545C15.9695 22.0369 18.1775 24.1316 20.8995 24.1316C23.6216 24.1316 25.8295 22.0369 25.8295 19.4545ZM28.5818 19.4545C28.5818 23.4716 25.1339 26.7427 20.8995 26.7427C16.6652 26.7427 13.2172 23.4716 13.2172 19.4545C13.2172 15.4373 16.6652 12.1662 20.8995 12.1662C25.1339 12.1662 28.5818 15.4373 28.5818 19.4545ZM33.4211 25.595C33.4211 28.9809 30.5478 31.7068 26.9788 31.7068H14.3665C10.7976 31.7068 7.92428 28.9809 7.92428 25.595V13.6296C7.92428 10.2437 10.7976 7.51781 14.3665 7.51781H26.9788C30.5478 7.51781 33.4211 10.2437 33.4211 13.6296V25.595ZM36.3247 13.6583C36.3247 8.75164 32.1206 4.76319 26.9486 4.76319H14.3665C9.19459 4.76319 4.99048 8.75164 4.99048 13.6583V25.595C4.99048 30.5016 9.19459 34.4901 14.3665 34.4901H26.9486C32.1206 34.4901 36.3247 30.5016 36.3247 25.595V13.6583Z" fill="#A589B9"/>
<path opacity="0.56" d="M30.7293 11.5636C30.7293 12.5105 29.9127 13.314 28.8843 13.314C27.856 13.314 27.0394 12.5392 27.0394 11.5636C27.0394 10.5881 27.856 9.81331 28.8843 9.81331C29.9127 9.81331 30.7293 10.5881 30.7293 11.5636ZM25.6783 19.3397C25.6783 16.7572 23.4704 14.6626 20.7483 14.6626C18.0262 14.6626 15.8183 16.7572 15.8183 19.3397C15.8183 21.9222 18.0262 24.0168 20.7483 24.0168C23.4704 24.0168 25.6783 21.9222 25.6783 19.3397ZM28.4306 19.3397C28.4306 23.3568 24.9827 26.628 20.7483 26.628C16.514 26.628 13.066 23.3568 13.066 19.3397C13.066 15.3225 16.514 12.0514 20.7483 12.0514C24.9827 12.0514 28.4306 15.3225 28.4306 19.3397ZM33.2699 25.4802C33.2699 28.8661 30.3966 31.592 26.8276 31.592H14.2153C10.6464 31.592 7.77307 28.8661 7.77307 25.4802V13.5148C7.77307 10.1289 10.6464 7.40302 14.2153 7.40302H26.8276C30.3966 7.40302 33.2699 10.1289 33.2699 13.5148V25.4802ZM36.1734 13.5435C36.1734 8.63686 31.9693 4.64841 26.7974 4.64841H14.2153C9.04336 4.64841 4.83926 8.63686 4.83926 13.5435V25.4802C4.83926 30.3869 9.04336 34.3753 14.2153 34.3753H26.7974C31.9693 34.3753 36.1734 30.3869 36.1734 25.4802V13.5435Z" fill="#A387B7"/>
<path opacity="0.57" d="M30.6083 11.4202C30.6083 12.3671 29.7917 13.1705 28.7633 13.1705C27.735 13.1705 26.9183 12.3958 26.9183 11.4202C26.9183 10.4446 27.735 9.66985 28.7633 9.66985C29.7917 9.66985 30.6083 10.4446 30.6083 11.4202ZM25.5573 19.1962C25.5573 16.6138 23.3494 14.5191 20.6273 14.5191C17.9052 14.5191 15.6973 16.6138 15.6973 19.1962C15.6973 21.7787 17.9052 23.8733 20.6273 23.8733C23.3494 23.8733 25.5573 21.7787 25.5573 19.1962ZM28.3096 19.1962C28.3096 23.2134 24.8617 26.4845 20.6273 26.4845C16.393 26.4845 12.945 23.2134 12.945 19.1962C12.945 15.1791 16.393 11.908 20.6273 11.908C24.8617 11.908 28.3096 15.1791 28.3096 19.1962ZM33.1489 25.3367C33.1489 28.7226 30.2756 31.4485 26.7066 31.4485H14.0943C10.5254 31.4485 7.65206 28.7226 7.65206 25.3367V13.3714C7.65206 9.98548 10.5254 7.25956 14.0943 7.25956H26.7066C30.2756 7.25956 33.1489 9.98548 33.1489 13.3714V25.3367ZM36.0524 13.4001C36.0524 8.4934 31.8483 4.50494 26.6764 4.50494H14.0943C8.92237 4.50494 4.71826 8.4934 4.71826 13.4001V25.3367C4.71826 30.2434 8.92237 34.2318 14.0943 34.2318H26.6764C31.8483 34.2318 36.0524 30.2434 36.0524 25.3367V13.4001V13.4001Z" fill="#A184B6"/>
<path opacity="0.58" d="M30.4873 11.3054C30.4873 12.2523 29.6707 13.0557 28.6423 13.0557C27.614 13.0557 26.7974 12.281 26.7974 11.3054C26.7974 10.3298 27.614 9.55507 28.6423 9.55507C29.6707 9.55507 30.4873 10.3298 30.4873 11.3054ZM25.4363 19.0815C25.4363 16.499 23.2284 14.4043 20.5064 14.4043C17.7843 14.4043 15.5764 16.499 15.5764 19.0815C15.5764 21.6639 17.7843 23.7586 20.5064 23.7586C23.2284 23.7586 25.4363 21.6639 25.4363 19.0815ZM28.1887 19.0815C28.1887 23.0986 24.7407 26.3697 20.5064 26.3697C16.272 26.3697 12.824 23.0986 12.824 19.0815C12.824 15.0643 16.272 11.7932 20.5064 11.7932C24.7407 11.7932 28.1887 15.0643 28.1887 19.0815ZM33.0279 25.222C33.0279 28.6078 30.1546 31.3338 26.5857 31.3338H13.9734C10.4044 31.3338 7.53109 28.6078 7.53109 25.222V13.2566C7.53109 9.87071 10.4044 7.14478 13.9734 7.14478H26.5857C30.1546 7.14478 33.0279 9.87071 33.0279 13.2566V25.222ZM35.9315 13.2853C35.9315 8.37862 31.7274 4.39017 26.5554 4.39017H13.9734C8.8014 4.39017 4.59729 8.37862 4.59729 13.2853V25.222C4.59729 30.1286 8.8014 34.1171 13.9734 34.1171H26.5554C31.7274 34.1171 35.9315 30.1286 35.9315 25.222V13.2853V13.2853Z" fill="#9F82B4"/>
<path opacity="0.6" d="M30.3663 11.1906C30.3663 12.1375 29.5497 12.941 28.5214 12.941C27.493 12.941 26.6764 12.1662 26.6764 11.1906C26.6764 10.215 27.493 9.44029 28.5214 9.44029C29.5497 9.44029 30.3663 10.215 30.3663 11.1906ZM25.3154 18.9667C25.3154 16.3842 23.1074 14.2896 20.3854 14.2896C17.6633 14.2896 15.4554 16.3842 15.4554 18.9667C15.4554 21.5491 17.6633 23.6438 20.3854 23.6438C23.1074 23.6438 25.3154 21.5491 25.3154 18.9667ZM28.0677 18.9667C28.0677 22.9838 24.6197 26.2549 20.3854 26.2549C16.151 26.2549 12.703 22.9838 12.703 18.9667C12.703 14.9495 16.151 11.6784 20.3854 11.6784C24.6197 11.6784 28.0677 14.9495 28.0677 18.9667ZM32.9069 25.1072C32.9069 28.4931 30.0336 31.219 26.4647 31.219H13.8524C10.2834 31.219 7.41011 28.4931 7.41011 25.1072V13.1418C7.41011 9.75592 10.2834 7.03 13.8524 7.03H26.4647C30.0336 7.03 32.9069 9.75592 32.9069 13.1418V25.1072ZM35.8105 13.1705C35.8105 8.26385 31.6064 4.27538 26.4344 4.27538H13.8524C8.68042 4.27538 4.47632 8.26385 4.47632 13.1705V25.1072C4.47632 30.0138 8.68042 34.0023 13.8524 34.0023H26.4344C31.6064 34.0023 35.8105 30.0138 35.8105 25.1072V13.1705Z" fill="#9D7FB3"/>
<path opacity="0.61" d="M30.2151 11.0472C30.2151 11.9941 29.3985 12.7975 28.3701 12.7975C27.3418 12.7975 26.5252 12.0228 26.5252 11.0472C26.5252 10.0716 27.3418 9.29683 28.3701 9.29683C29.3985 9.29683 30.2151 10.0716 30.2151 11.0472ZM25.1641 18.8232C25.1641 16.2408 22.9562 14.1461 20.2341 14.1461C17.5121 14.1461 15.3041 16.2408 15.3041 18.8232C15.3041 21.4057 17.5121 23.5003 20.2341 23.5003C22.9562 23.5003 25.1641 21.4057 25.1641 18.8232ZM27.9165 18.8232C27.9165 22.8404 24.4685 26.1115 20.2341 26.1115C15.9998 26.1115 12.5518 22.8404 12.5518 18.8232C12.5518 14.8061 15.9998 11.5349 20.2341 11.5349C24.4685 11.5349 27.9165 14.8061 27.9165 18.8232ZM32.7557 24.9637C32.7557 28.3496 29.8824 31.0755 26.3134 31.0755H13.7011C10.1322 31.0755 7.25888 28.3496 7.25888 24.9637V12.9983C7.25888 9.61246 10.1322 6.88653 13.7011 6.88653H26.3134C29.8824 6.88653 32.7557 9.61246 32.7557 12.9983V24.9637ZM35.6593 13.027C35.6593 8.12037 31.4552 4.13192 26.2832 4.13192H13.7011C8.52918 4.13192 4.32507 8.12037 4.32507 13.027V24.9637C4.32507 29.8704 8.52918 33.8588 13.7011 33.8588H26.2832C31.4552 33.8588 35.6593 29.8704 35.6593 24.9637V13.027Z" fill="#9B7CB1"/>
<path opacity="0.62" d="M30.0941 10.9324C30.0941 11.8793 29.2775 12.6827 28.2491 12.6827C27.2208 12.6827 26.4042 11.908 26.4042 10.9324C26.4042 9.95679 27.2208 9.18205 28.2491 9.18205C29.2775 9.18205 30.0941 9.95679 30.0941 10.9324ZM25.0431 18.7084C25.0431 16.126 22.8352 14.0313 20.1132 14.0313C17.3911 14.0313 15.1832 16.126 15.1832 18.7084C15.1832 21.2909 17.3911 23.3855 20.1132 23.3855C22.8352 23.3855 25.0431 21.2909 25.0431 18.7084ZM27.7955 18.7084C27.7955 22.7256 24.3475 25.9967 20.1132 25.9967C15.8788 25.9967 12.4308 22.7256 12.4308 18.7084C12.4308 14.6913 15.8788 11.4202 20.1132 11.4202C24.3475 11.4202 27.7955 14.6913 27.7955 18.7084ZM32.6347 24.8489C32.6347 28.2348 29.7614 30.9607 26.1925 30.9607H13.5802C10.0112 30.9607 7.13789 28.2348 7.13789 24.8489V12.8836C7.13789 9.49769 10.0112 6.77176 13.5802 6.77176H26.1925C29.7614 6.77176 32.6347 9.49769 32.6347 12.8836V24.8489ZM35.5383 12.9123C35.5383 8.00561 31.3342 4.01714 26.1622 4.01714H13.5802C8.4082 4.01714 4.2041 8.00561 4.2041 12.9123V24.8489C4.2041 29.7556 8.4082 33.7441 13.5802 33.7441H26.1622C31.3342 33.7441 35.5383 29.7556 35.5383 24.8489V12.9123V12.9123Z" fill="#997AB0"/>
<path opacity="0.63" d="M29.9732 10.8176C29.9732 11.7645 29.1565 12.5679 28.1282 12.5679C27.0998 12.5679 26.2832 11.7932 26.2832 10.8176C26.2832 9.842 27.0998 9.06728 28.1282 9.06728C29.1565 9.06728 29.9732 9.842 29.9732 10.8176ZM24.9222 18.5937C24.9222 16.0112 22.7143 13.9165 19.9922 13.9165C17.2701 13.9165 15.0622 16.0112 15.0622 18.5937C15.0622 21.1761 17.2701 23.2708 19.9922 23.2708C22.7143 23.2708 24.9222 21.1761 24.9222 18.5937ZM27.6745 18.5937C27.6745 22.6108 24.2265 25.8819 19.9922 25.8819C15.7578 25.8819 12.3099 22.6108 12.3099 18.5937C12.3099 14.5765 15.7578 11.3054 19.9922 11.3054C24.2265 11.3054 27.6745 14.5765 27.6745 18.5937ZM32.5138 24.7342C32.5138 28.12 29.6405 30.846 26.0715 30.846H13.4592C9.89023 30.846 7.01693 28.12 7.01693 24.7342V12.7688C7.01693 9.3829 9.89023 6.65698 13.4592 6.65698H26.0715C29.6405 6.65698 32.5138 9.3829 32.5138 12.7688V24.7342ZM35.4173 12.7975C35.4173 7.89082 31.2132 3.90236 26.0412 3.90236H13.4592C8.28723 3.90236 4.08313 7.89082 4.08313 12.7975V24.7342C4.08313 29.6408 8.28723 33.6293 13.4592 33.6293H26.0412C31.2132 33.6293 35.4173 29.6408 35.4173 24.7342V12.7975Z" fill="#9777AE"/>
<path opacity="0.64" d="M29.8219 10.6741C29.8219 11.621 29.0053 12.4245 27.9769 12.4245C26.9486 12.4245 26.132 11.6497 26.132 10.6741C26.132 9.69854 26.9486 8.9238 27.9769 8.9238C29.0053 8.9238 29.8219 9.69854 29.8219 10.6741ZM24.7709 18.4502C24.7709 15.8677 22.563 13.7731 19.8409 13.7731C17.1189 13.7731 14.9109 15.8677 14.9109 18.4502C14.9109 21.0326 17.1189 23.1273 19.8409 23.1273C22.563 23.1273 24.7709 21.0326 24.7709 18.4502ZM27.5233 18.4502C27.5233 22.4673 24.0753 25.7384 19.8409 25.7384C15.6066 25.7384 12.1586 22.4673 12.1586 18.4502C12.1586 14.433 15.6066 11.1619 19.8409 11.1619C24.0753 11.1619 27.5233 14.433 27.5233 18.4502ZM32.3625 24.5907C32.3625 27.9766 29.4892 30.7025 25.9203 30.7025H13.3079C9.73899 30.7025 6.86568 27.9766 6.86568 24.5907V12.6253C6.86568 9.23944 9.73899 6.51351 13.3079 6.51351H25.9203C29.4892 6.51351 32.3625 9.23944 32.3625 12.6253V24.5907ZM35.2661 12.654C35.2661 7.74736 31.062 3.7589 25.89 3.7589H13.3079C8.13598 3.7589 3.93188 7.74736 3.93188 12.654V24.5907C3.93188 29.4974 8.13598 33.4858 13.3079 33.4858H25.89C31.062 33.4858 35.2661 29.4974 35.2661 24.5907V12.654V12.654Z" fill="#9575AD"/>
<path opacity="0.65" d="M29.7009 10.5594C29.7009 11.5063 28.8843 12.3097 27.856 12.3097C26.8276 12.3097 26.011 11.535 26.011 10.5594C26.011 9.58376 26.8276 8.80904 27.856 8.80904C28.8843 8.80904 29.7009 9.58376 29.7009 10.5594ZM24.65 18.3354C24.65 15.753 22.442 13.6583 19.72 13.6583C16.9979 13.6583 14.79 15.753 14.79 18.3354C14.79 20.9179 16.9979 23.0125 19.72 23.0125C22.442 23.0125 24.65 20.9179 24.65 18.3354ZM27.4023 18.3354C27.4023 22.3526 23.9543 25.6237 19.72 25.6237C15.4856 25.6237 12.0377 22.3526 12.0377 18.3354C12.0377 14.3183 15.4856 11.0472 19.72 11.0472C23.9543 11.0472 27.4023 14.3183 27.4023 18.3354ZM32.2415 24.4759C32.2415 27.8618 29.3682 30.5877 25.7993 30.5877H13.187C9.61802 30.5877 6.74472 27.8618 6.74472 24.4759V12.5105C6.74472 9.12466 9.61802 6.39875 13.187 6.39875H25.7993C29.3682 6.39875 32.2415 9.12466 32.2415 12.5105V24.4759ZM35.1451 12.5392C35.1451 7.63258 30.941 3.64412 25.769 3.64412H13.187C8.01501 3.64412 3.81091 7.63258 3.81091 12.5392V24.4759C3.81091 29.3826 8.01501 33.371 13.187 33.371H25.769C30.941 33.371 35.1451 29.3826 35.1451 24.4759V12.5392Z" fill="#9372AB"/>
<path opacity="0.67" d="M29.58 10.4446C29.58 11.3915 28.7633 12.1949 27.735 12.1949C26.7067 12.1949 25.89 11.4202 25.89 10.4446C25.89 9.46899 26.7067 8.69426 27.735 8.69426C28.7633 8.69426 29.58 9.46899 29.58 10.4446ZM24.529 18.2206C24.529 15.6382 22.3211 13.5435 19.599 13.5435C16.8769 13.5435 14.669 15.6382 14.669 18.2206C14.669 20.8031 16.8769 22.8978 19.599 22.8978C22.3211 22.8978 24.529 20.8031 24.529 18.2206ZM27.2813 18.2206C27.2813 22.2378 23.8334 25.5089 19.599 25.5089C15.3647 25.5089 11.9167 22.2378 11.9167 18.2206C11.9167 14.2035 15.3647 10.9324 19.599 10.9324C23.8334 10.9324 27.2813 14.2035 27.2813 18.2206ZM32.1206 24.3611C32.1206 27.747 29.2473 30.473 25.6783 30.473H13.066C9.49706 30.473 6.62374 27.747 6.62374 24.3611V12.3958C6.62374 9.00989 9.49706 6.28397 13.066 6.28397H25.6783C29.2473 6.28397 32.1206 9.00989 32.1206 12.3958V24.3611ZM35.0241 12.4245C35.0241 7.5178 30.82 3.52935 25.6481 3.52935H13.066C7.89405 3.52935 3.68994 7.5178 3.68994 12.4245V24.3611C3.68994 29.2678 7.89405 33.2563 13.066 33.2563H25.6481C30.82 33.2563 35.0241 29.2678 35.0241 24.3611V12.4245V12.4245Z" fill="#9170AA"/>
<path opacity="0.68" d="M29.4287 10.3298C29.4287 11.2767 28.6121 12.0801 27.5838 12.0801C26.5554 12.0801 25.7388 11.3054 25.7388 10.3298C25.7388 9.35422 26.5554 8.57948 27.5838 8.57948C28.6121 8.57948 29.4287 9.35422 29.4287 10.3298ZM24.3777 18.1059C24.3777 15.5234 22.1698 13.4288 19.4477 13.4288C16.7257 13.4288 14.5178 15.5234 14.5178 18.1059C14.5178 20.6883 16.7257 22.783 19.4477 22.783C22.1698 22.783 24.3777 20.6883 24.3777 18.1059ZM27.1301 18.1059C27.1301 22.123 23.6821 25.3941 19.4477 25.3941C15.2134 25.3941 11.7654 22.123 11.7654 18.1059C11.7654 14.0887 15.2134 10.8176 19.4477 10.8176C23.6821 10.8176 27.1301 14.0887 27.1301 18.1059ZM31.9693 24.2464C31.9693 27.6322 29.096 30.3582 25.5271 30.3582H12.9147C9.3458 30.3582 6.4725 27.6322 6.4725 24.2464V12.281C6.4725 8.89512 9.3458 6.16919 12.9147 6.16919H25.5271C29.096 6.16919 31.9693 8.89512 31.9693 12.281V24.2464ZM34.8729 12.3097C34.8729 7.40303 30.6688 3.41457 25.4968 3.41457H12.9147C7.7428 3.41457 3.5387 7.40303 3.5387 12.3097V24.2464C3.5387 29.153 7.7428 33.1415 12.9147 33.1415H25.4968C30.6688 33.1415 34.8729 29.153 34.8729 24.2464V12.3097V12.3097Z" fill="#8F6DA8"/>
<path opacity="0.69" d="M29.3077 10.1863C29.3077 11.1332 28.4911 11.9367 27.4628 11.9367C26.4344 11.9367 25.6178 11.1619 25.6178 10.1863C25.6178 9.21075 26.4344 8.43601 27.4628 8.43601C28.4911 8.43601 29.3077 9.21075 29.3077 10.1863ZM24.2568 17.9624C24.2568 15.3799 22.0489 13.2853 19.3268 13.2853C16.6047 13.2853 14.3968 15.3799 14.3968 17.9624C14.3968 20.5448 16.6047 22.6395 19.3268 22.6395C22.0489 22.6395 24.2568 20.5448 24.2568 17.9624ZM27.0091 17.9624C27.0091 21.9795 23.5611 25.2507 19.3268 25.2507C15.0924 25.2507 11.6445 21.9795 11.6445 17.9624C11.6445 13.9452 15.0924 10.6741 19.3268 10.6741C23.5611 10.6741 27.0091 13.9452 27.0091 17.9624ZM31.8484 24.1029C31.8484 27.4888 28.975 30.2147 25.4061 30.2147H12.7938C9.22484 30.2147 6.35153 27.4888 6.35153 24.1029V12.1375C6.35153 8.75164 9.22484 6.02572 12.7938 6.02572H25.4061C28.975 6.02572 31.8484 8.75164 31.8484 12.1375V24.1029ZM34.7519 12.1662C34.7519 7.25956 30.5478 3.2711 25.3759 3.2711H12.7938C7.62183 3.2711 3.41772 7.25956 3.41772 12.1662V24.1029C3.41772 29.0096 7.62183 32.998 12.7938 32.998H25.3759C30.5478 32.998 34.7519 29.0096 34.7519 24.1029V12.1662Z" fill="#8D6BA7"/>
<path opacity="0.7" d="M29.1867 10.0716C29.1867 11.0185 28.3701 11.8219 27.3418 11.8219C26.3134 11.8219 25.4968 11.0472 25.4968 10.0716C25.4968 9.09597 26.3134 8.32123 27.3418 8.32123C28.3701 8.32123 29.1867 9.09597 29.1867 10.0716ZM24.1358 17.8476C24.1358 15.2652 21.9279 13.1705 19.2058 13.1705C16.4837 13.1705 14.2758 15.2652 14.2758 17.8476C14.2758 20.4301 16.4837 22.5247 19.2058 22.5247C21.9279 22.5247 24.1358 20.4301 24.1358 17.8476ZM26.8881 17.8476C26.8881 21.8648 23.4401 25.1359 19.2058 25.1359C14.9714 25.1359 11.5235 21.8648 11.5235 17.8476C11.5235 13.8305 14.9714 10.5594 19.2058 10.5594C23.4401 10.5594 26.8881 13.8305 26.8881 17.8476ZM31.7274 23.9881C31.7274 27.374 28.854 30.0999 25.2851 30.0999H12.6728C9.10384 30.0999 6.23052 27.374 6.23052 23.9881V12.0228C6.23052 8.63687 9.10384 5.91094 12.6728 5.91094H25.2851C28.854 5.91094 31.7274 8.63687 31.7274 12.0228V23.9881ZM34.6309 12.0514C34.6309 7.14478 30.4268 3.15633 25.2549 3.15633H12.6728C7.50083 3.15633 3.29672 7.14478 3.29672 12.0514V23.9881C3.29672 28.8948 7.50083 32.8832 12.6728 32.8832H25.2549C30.4268 32.8832 34.6309 28.8948 34.6309 23.9881V12.0514Z" fill="#8B68A5"/>
<path opacity="0.71" d="M29.0658 9.95679C29.0658 10.9037 28.2491 11.7071 27.2208 11.7071C26.1925 11.7071 25.3758 10.9324 25.3758 9.95679C25.3758 8.98119 26.1925 8.20646 27.2208 8.20646C28.2491 8.20646 29.0658 8.98119 29.0658 9.95679ZM24.0148 17.7328C24.0148 15.1504 21.8069 13.0557 19.0848 13.0557C16.3627 13.0557 14.1548 15.1504 14.1548 17.7328C14.1548 20.3153 16.3627 22.41 19.0848 22.41C21.8069 22.41 24.0148 20.3153 24.0148 17.7328ZM26.7671 17.7328C26.7671 21.75 23.3191 25.0211 19.0848 25.0211C14.8505 25.0211 11.4025 21.75 11.4025 17.7328C11.4025 13.7157 14.8505 10.4446 19.0848 10.4446C23.3191 10.4446 26.7671 13.7157 26.7671 17.7328ZM31.6064 23.8734C31.6064 27.2592 28.7331 29.9852 25.1641 29.9852H12.5518C8.98285 29.9852 6.10954 27.2592 6.10954 23.8734V11.908C6.10954 8.52209 8.98285 5.79616 12.5518 5.79616H25.1641C28.7331 5.79616 31.6064 8.52209 31.6064 11.908V23.8734ZM34.5099 11.9367C34.5099 7.03001 30.3058 3.04155 25.1339 3.04155H12.5518C7.37985 3.04155 3.17575 7.03001 3.17575 11.9367V23.8734C3.17575 28.78 7.37985 32.7685 12.5518 32.7685H25.1339C30.3058 32.7685 34.5099 28.78 34.5099 23.8734V11.9367V11.9367Z" fill="#8965A4"/>
<path opacity="0.73" d="M28.9145 9.81332C28.9145 10.7602 28.0979 11.5636 27.0696 11.5636C26.0412 11.5636 25.2246 10.7889 25.2246 9.81332C25.2246 8.83772 26.0412 8.06298 27.0696 8.06298C28.0979 8.06298 28.9145 8.83772 28.9145 9.81332ZM23.8636 17.5894C23.8636 15.0069 21.6557 12.9123 18.9336 12.9123C16.2115 12.9123 14.0036 15.0069 14.0036 17.5894C14.0036 20.1718 16.2115 22.2665 18.9336 22.2665C21.6557 22.2665 23.8636 20.1718 23.8636 17.5894ZM26.6159 17.5894C26.6159 21.6065 23.1679 24.8776 18.9336 24.8776C14.6992 24.8776 11.2513 21.6065 11.2513 17.5894C11.2513 13.5722 14.6992 10.3011 18.9336 10.3011C23.1679 10.3011 26.6159 13.5722 26.6159 17.5894ZM31.4552 23.7299C31.4552 27.1158 28.5818 29.8417 25.0129 29.8417H12.4006C8.83164 29.8417 5.95833 27.1158 5.95833 23.7299V11.7645C5.95833 8.37862 8.83164 5.65269 12.4006 5.65269H25.0129C28.5818 5.65269 31.4552 8.37862 31.4552 11.7645V23.7299ZM34.3587 11.7932C34.3587 6.88653 30.1546 2.89808 24.9827 2.89808H12.4006C7.22863 2.89808 3.02454 6.88653 3.02454 11.7932V23.7299C3.02454 28.6365 7.22863 32.625 12.4006 32.625H24.9827C30.1546 32.625 34.3587 28.6365 34.3587 23.7299V11.7932V11.7932Z" fill="#8763A2"/>
<path opacity="0.74" d="M28.7936 9.69854C28.7936 10.6454 27.977 11.4489 26.9486 11.4489C25.9203 11.4489 25.1037 10.6741 25.1037 9.69854C25.1037 8.72295 25.9203 7.94821 26.9486 7.94821C27.977 7.94821 28.7936 8.72295 28.7936 9.69854ZM23.7426 17.4746C23.7426 14.8922 21.5347 12.7975 18.8126 12.7975C16.0905 12.7975 13.8826 14.8922 13.8826 17.4746C13.8826 20.0571 16.0905 22.1517 18.8126 22.1517C21.5347 22.1517 23.7426 20.0571 23.7426 17.4746ZM26.4949 17.4746C26.4949 21.4918 23.047 24.7629 18.8126 24.7629C14.5783 24.7629 11.1303 21.4918 11.1303 17.4746C11.1303 13.4575 14.5783 10.1863 18.8126 10.1863C23.047 10.1863 26.4949 13.4575 26.4949 17.4746ZM31.3342 23.6151C31.3342 27.001 28.4609 29.7269 24.8919 29.7269H12.2796C8.71067 29.7269 5.83736 27.001 5.83736 23.6151V11.6497C5.83736 8.26384 8.71067 5.53792 12.2796 5.53792H24.8919C28.4609 5.53792 31.3342 8.26384 31.3342 11.6497V23.6151ZM34.2377 11.6784C34.2377 6.77177 30.0336 2.7833 24.8617 2.7833H12.2796C7.10766 2.7833 2.90356 6.77177 2.90356 11.6784V23.6151C2.90356 28.5218 7.10766 32.5102 12.2796 32.5102H24.8617C30.0336 32.5102 34.2377 28.5218 34.2377 23.6151V11.6784Z" fill="#8560A1"/>
<path opacity="0.75" d="M28.6726 9.58377C28.6726 10.5307 27.856 11.3341 26.8276 11.3341C25.7993 11.3341 24.9826 10.5594 24.9826 9.58377C24.9826 8.60818 25.7993 7.83344 26.8276 7.83344C27.856 7.83344 28.6726 8.60818 28.6726 9.58377ZM23.6216 17.3598C23.6216 14.7774 21.4137 12.6827 18.6916 12.6827C15.9695 12.6827 13.7616 14.7774 13.7616 17.3598C13.7616 19.9423 15.9695 22.0369 18.6916 22.0369C21.4137 22.0369 23.6216 19.9423 23.6216 17.3598ZM26.3739 17.3598C26.3739 21.377 22.926 24.6481 18.6916 24.6481C14.4573 24.6481 11.0093 21.377 11.0093 17.3598C11.0093 13.3427 14.4573 10.0716 18.6916 10.0716C22.926 10.0716 26.3739 13.3427 26.3739 17.3598ZM31.2132 23.5003C31.2132 26.8862 28.3399 29.6121 24.7709 29.6121H12.1586C8.58966 29.6121 5.71636 26.8862 5.71636 23.5003V11.535C5.71636 8.14907 8.58966 5.42315 12.1586 5.42315H24.7709C28.3399 5.42315 31.2132 8.14907 31.2132 11.535V23.5003ZM34.1167 11.5637C34.1167 6.65699 29.9126 2.66853 24.7407 2.66853H12.1586C6.98666 2.66853 2.78256 6.65699 2.78256 11.5637V23.5003C2.78256 28.407 6.98666 32.3954 12.1586 32.3954H24.7407C29.9126 32.3954 34.1167 28.407 34.1167 23.5003V11.5637V11.5637Z" fill="#835E9F"/>
<path opacity="0.76" d="M28.5214 9.44029C28.5214 10.3872 27.7047 11.1906 26.6764 11.1906C25.6481 11.1906 24.8314 10.4159 24.8314 9.44029C24.8314 8.4647 25.6481 7.68996 26.6764 7.68996C27.7047 7.68996 28.5214 8.4647 28.5214 9.44029ZM23.4704 17.2164C23.4704 14.6339 21.2625 12.5392 18.5404 12.5392C15.8183 12.5392 13.6104 14.6339 13.6104 17.2164C13.6104 19.7988 15.8183 21.8935 18.5404 21.8935C21.2625 21.8935 23.4704 19.7988 23.4704 17.2164ZM26.2227 17.2164C26.2227 21.2335 22.7747 24.5046 18.5404 24.5046C14.306 24.5046 10.8581 21.2335 10.8581 17.2164C10.8581 13.1992 14.306 9.9281 18.5404 9.9281C22.7747 9.9281 26.2227 13.1992 26.2227 17.2164ZM31.062 23.3569C31.062 26.7427 28.1887 29.4687 24.6197 29.4687H12.0074C8.43845 29.4687 5.56514 26.7427 5.56514 23.3569V11.3915C5.56514 8.0056 8.43845 5.27968 12.0074 5.27968H24.6197C28.1887 5.27968 31.062 8.0056 31.062 11.3915V23.3569ZM33.9655 11.4202C33.9655 6.51352 29.7614 2.52505 24.5895 2.52505H12.0074C6.83545 2.52505 2.63135 6.51352 2.63135 11.4202V23.3569C2.63135 28.2635 6.83545 32.252 12.0074 32.252H24.5895C29.7614 32.252 33.9655 28.2635 33.9655 23.3569V11.4202Z" fill="#815B9D"/>
<path opacity="0.77" d="M28.4004 9.32552C28.4004 10.2724 27.5838 11.0758 26.5554 11.0758C25.5271 11.0758 24.7105 10.3011 24.7105 9.32552C24.7105 8.34993 25.5271 7.57519 26.5554 7.57519C27.5838 7.57519 28.4004 8.34993 28.4004 9.32552ZM23.3494 17.1016C23.3494 14.5191 21.1415 12.4245 18.4194 12.4245C15.6973 12.4245 13.4894 14.5191 13.4894 17.1016C13.4894 19.684 15.6973 21.7787 18.4194 21.7787C21.1415 21.7787 23.3494 19.684 23.3494 17.1016ZM26.1017 17.1016C26.1017 21.1187 22.6538 24.3898 18.4194 24.3898C14.1851 24.3898 10.7371 21.1187 10.7371 17.1016C10.7371 13.0844 14.1851 9.81331 18.4194 9.81331C22.6538 9.81331 26.1017 13.0844 26.1017 17.1016ZM30.941 23.2421C30.941 26.628 28.0677 29.3539 24.4987 29.3539H11.8864C8.31748 29.3539 5.44418 26.628 5.44418 23.2421V11.2767C5.44418 7.89082 8.31748 5.1649 11.8864 5.1649H24.4987C28.0677 5.1649 30.941 7.89082 30.941 11.2767V23.2421ZM33.8446 11.3054C33.8446 6.39874 29.6404 2.41029 24.4685 2.41029H11.8864C6.71447 2.41029 2.51038 6.39874 2.51038 11.3054V23.2421C2.51038 28.1487 6.71447 32.1372 11.8864 32.1372H24.4685C29.6404 32.1372 33.8446 28.1487 33.8446 23.2421V11.3054V11.3054Z" fill="#7F599C"/>
<path opacity="0.79" d="M28.2794 9.21075C28.2794 10.1576 27.4628 10.9611 26.4344 10.9611C25.4061 10.9611 24.5895 10.1863 24.5895 9.21075C24.5895 8.23515 25.4061 7.46042 26.4344 7.46042C27.4628 7.46042 28.2794 8.23515 28.2794 9.21075ZM23.2284 16.9868C23.2284 14.4043 21.0205 12.3097 18.2984 12.3097C15.5764 12.3097 13.3684 14.4043 13.3684 16.9868C13.3684 19.5693 15.5764 21.6639 18.2984 21.6639C21.0205 21.6639 23.2284 19.5693 23.2284 16.9868ZM25.9807 16.9868C25.9807 21.004 22.5328 24.2751 18.2984 24.2751C14.0641 24.2751 10.6161 21.004 10.6161 16.9868C10.6161 12.9696 14.0641 9.69854 18.2984 9.69854C22.5328 9.69854 25.9807 12.9696 25.9807 16.9868ZM30.82 23.1273C30.82 26.5132 27.9467 29.2391 24.3777 29.2391H11.7654C8.19649 29.2391 5.32318 26.5132 5.32318 23.1273V11.1619C5.32318 7.77605 8.19649 5.05012 11.7654 5.05012H24.3777C27.9467 5.05012 30.82 7.77605 30.82 11.1619V23.1273ZM33.7236 11.1906C33.7236 6.28396 29.5195 2.29551 24.3475 2.29551H11.7654C6.59348 2.29551 2.38937 6.28396 2.38937 11.1906V23.1273C2.38937 28.034 6.59348 32.0224 11.7654 32.0224H24.3475C29.5195 32.0224 33.7236 28.034 33.7236 23.1273V11.1906Z" fill="#7D569A"/>
<path opacity="0.8" d="M28.1282 9.09597C28.1282 10.0429 27.3116 10.8463 26.2832 10.8463C25.2549 10.8463 24.4382 10.0716 24.4382 9.09597C24.4382 8.12038 25.2549 7.34564 26.2832 7.34564C27.3116 7.34564 28.1282 8.12038 28.1282 9.09597ZM23.0772 16.872C23.0772 14.2896 20.8693 12.1949 18.1472 12.1949C15.4251 12.1949 13.2172 14.2896 13.2172 16.872C13.2172 19.4545 15.4251 21.5491 18.1472 21.5491C20.8693 21.5491 23.0772 19.4545 23.0772 16.872ZM25.8295 16.872C25.8295 20.8892 22.3816 24.1603 18.1472 24.1603C13.9129 24.1603 10.4649 20.8892 10.4649 16.872C10.4649 12.8549 13.9129 9.58377 18.1472 9.58377C22.3816 9.58377 25.8295 12.8549 25.8295 16.872ZM30.6688 23.0125C30.6688 26.3984 27.7955 29.1243 24.2265 29.1243H11.6142C8.04526 29.1243 5.17196 26.3984 5.17196 23.0125V11.0472C5.17196 7.66127 8.04526 4.93535 11.6142 4.93535H24.2265C27.7955 4.93535 30.6688 7.66127 30.6688 11.0472V23.0125ZM33.5723 11.0758C33.5723 6.16918 29.3682 2.18073 24.1963 2.18073H11.6142C6.44226 2.18073 2.23816 6.16918 2.23816 11.0758V23.0125C2.23816 27.9192 6.44226 31.9076 11.6142 31.9076H24.1963C29.3682 31.9076 33.5723 27.9192 33.5723 23.0125V11.0758Z" fill="#7B5499"/>
<path opacity="0.81" d="M28.0072 8.9525C28.0072 9.8994 27.1906 10.7028 26.1622 10.7028C25.1339 10.7028 24.3172 9.92809 24.3172 8.9525C24.3172 7.97691 25.1339 7.20217 26.1622 7.20217C27.1906 7.20217 28.0072 7.97691 28.0072 8.9525ZM22.9562 16.7286C22.9562 14.1461 20.7483 12.0514 18.0262 12.0514C15.3041 12.0514 13.0962 14.1461 13.0962 16.7286C13.0962 19.311 15.3041 21.4057 18.0262 21.4057C20.7483 21.4057 22.9562 19.311 22.9562 16.7286ZM25.7085 16.7286C25.7085 20.7457 22.2606 24.0168 18.0262 24.0168C13.7919 24.0168 10.3439 20.7457 10.3439 16.7286C10.3439 12.7114 13.7919 9.44029 18.0262 9.44029C22.2606 9.44029 25.7085 12.7114 25.7085 16.7286ZM30.5478 22.8691C30.5478 26.2549 27.6745 28.9809 24.1055 28.9809H11.4932C7.92427 28.9809 5.05096 26.2549 5.05096 22.8691V10.9037C5.05096 7.5178 7.92427 4.79188 11.4932 4.79188H24.1055C27.6745 4.79188 30.5478 7.5178 30.5478 10.9037V22.8691ZM33.4513 10.9324C33.4513 6.02571 29.2472 2.03726 24.0753 2.03726H11.4932C6.32127 2.03726 2.11716 6.02571 2.11716 10.9324V22.8691C2.11716 27.7757 6.32127 31.7642 11.4932 31.7642H24.0753C29.2472 31.7642 33.4513 27.7757 33.4513 22.8691V10.9324V10.9324Z" fill="#795197"/>
<path opacity="0.82" d="M27.8862 8.83772C27.8862 9.78462 27.0696 10.5881 26.0412 10.5881C25.0129 10.5881 24.1963 9.81332 24.1963 8.83772C24.1963 7.86213 25.0129 7.08739 26.0412 7.08739C27.0696 7.08739 27.8862 7.86213 27.8862 8.83772ZM22.8352 16.6138C22.8352 14.0313 20.6273 11.9367 17.9052 11.9367C15.1832 11.9367 12.9752 14.0313 12.9752 16.6138C12.9752 19.1962 15.1832 21.2909 17.9052 21.2909C20.6273 21.2909 22.8352 19.1962 22.8352 16.6138ZM25.5876 16.6138C25.5876 20.6309 22.1396 23.902 17.9052 23.902C13.6709 23.902 10.2229 20.6309 10.2229 16.6138C10.2229 12.5966 13.6709 9.32553 17.9052 9.32553C22.1396 9.32553 25.5876 12.5966 25.5876 16.6138ZM30.4268 22.7543C30.4268 26.1402 27.5535 28.8661 23.9845 28.8661H11.3722C7.80329 28.8661 4.92998 26.1402 4.92998 22.7543V10.7889C4.92998 7.40303 7.80329 4.6771 11.3722 4.6771H23.9845C27.5535 4.6771 30.4268 7.40303 30.4268 10.7889V22.7543ZM33.3304 10.8176C33.3304 5.91094 29.1263 1.92249 23.9543 1.92249H11.3722C6.20028 1.92249 1.99619 5.91094 1.99619 10.8176V22.7543C1.99619 27.6609 6.20028 31.6494 11.3722 31.6494H23.9543C29.1263 31.6494 33.3304 27.6609 33.3304 22.7543V10.8176V10.8176Z" fill="#774E96"/>
<path opacity="0.83" d="M27.7652 8.72295C27.7652 9.66985 26.9486 10.4733 25.9203 10.4733C24.8919 10.4733 24.0753 9.69854 24.0753 8.72295C24.0753 7.74735 24.8919 6.97261 25.9203 6.97261C26.9486 6.97261 27.7652 7.74735 27.7652 8.72295ZM22.7143 16.499C22.7143 13.9166 20.5063 11.8219 17.7843 11.8219C15.0622 11.8219 12.8543 13.9166 12.8543 16.499C12.8543 19.0815 15.0622 21.1761 17.7843 21.1761C20.5063 21.1761 22.7143 19.0815 22.7143 16.499ZM25.4666 16.499C25.4666 20.5162 22.0186 23.7873 17.7843 23.7873C13.5499 23.7873 10.1019 20.5162 10.1019 16.499C10.1019 12.4819 13.5499 9.21075 17.7843 9.21075C22.0186 9.21075 25.4666 12.4819 25.4666 16.499ZM30.3058 22.6395C30.3058 26.0254 27.4325 28.7513 23.8636 28.7513H11.2513C7.68232 28.7513 4.809 26.0254 4.809 22.6395V10.6741C4.809 7.28825 7.68232 4.56233 11.2513 4.56233H23.8636C27.4325 4.56233 30.3058 7.28825 30.3058 10.6741V22.6395ZM33.2094 10.7028C33.2094 5.79617 29.0053 1.80771 23.8333 1.80771H11.2513C6.07931 1.80771 1.87521 5.79617 1.87521 10.7028V22.6395C1.87521 27.5462 6.07931 31.5346 11.2513 31.5346H23.8333C29.0053 31.5346 33.2094 27.5462 33.2094 22.6395V10.7028Z" fill="#764C94"/>
<path opacity="0.85" d="M27.614 8.57948C27.614 9.52638 26.7974 10.3298 25.769 10.3298C24.7407 10.3298 23.9241 9.55507 23.9241 8.57948C23.9241 7.60388 24.7407 6.82914 25.769 6.82914C26.7974 6.82914 27.614 7.60388 27.614 8.57948ZM22.563 16.3555C22.563 13.7731 20.3551 11.6784 17.633 11.6784C14.911 11.6784 12.7031 13.7731 12.7031 16.3555C12.7031 18.938 14.911 21.0326 17.633 21.0326C20.3551 21.0326 22.563 18.938 22.563 16.3555ZM25.3154 16.3555C25.3154 20.3727 21.8674 23.6438 17.633 23.6438C13.3987 23.6438 9.95073 20.3727 9.95073 16.3555C9.95073 12.3384 13.3987 9.06728 17.633 9.06728C21.8674 9.06728 25.3154 12.3384 25.3154 16.3555ZM30.1546 22.496C30.1546 25.8819 27.2813 28.6078 23.7124 28.6078H11.1001C7.5311 28.6078 4.65779 25.8819 4.65779 22.496V10.5307C4.65779 7.14478 7.5311 4.41885 11.1001 4.41885H23.7124C27.2813 4.41885 30.1546 7.14478 30.1546 10.5307V22.496ZM33.0582 10.5594C33.0582 5.65269 28.8541 1.66424 23.6821 1.66424H11.1001C5.9281 1.66424 1.724 5.65269 1.724 10.5594V22.496C1.724 27.4027 5.9281 31.3912 11.1001 31.3912H23.6821C28.8541 31.3912 33.0582 27.4027 33.0582 22.496V10.5594Z" fill="#744993"/>
<path opacity="0.86" d="M27.493 8.4647C27.493 9.4116 26.6764 10.215 25.6481 10.215C24.6197 10.215 23.8031 9.44029 23.8031 8.4647C23.8031 7.48911 24.6197 6.71438 25.6481 6.71438C26.6764 6.71438 27.493 7.48911 27.493 8.4647ZM22.442 16.2408C22.442 13.6583 20.2341 11.5636 17.512 11.5636C14.79 11.5636 12.5821 13.6583 12.5821 16.2408C12.5821 18.8232 14.79 20.9179 17.512 20.9179C20.2341 20.9179 22.442 18.8232 22.442 16.2408ZM25.1944 16.2408C25.1944 20.2579 21.7464 23.529 17.512 23.529C13.2777 23.529 9.82974 20.2579 9.82974 16.2408C9.82974 12.2236 13.2777 8.9525 17.512 8.9525C21.7464 8.9525 25.1944 12.2236 25.1944 16.2408ZM30.0336 22.3813C30.0336 25.7671 27.1603 28.4931 23.5914 28.4931H10.9791C7.4101 28.4931 4.5368 25.7671 4.5368 22.3813V10.4159C4.5368 7.03 7.4101 4.30409 10.9791 4.30409H23.5914C27.1603 4.30409 30.0336 7.03 30.0336 10.4159V22.3813ZM32.9372 10.4446C32.9372 5.53792 28.7331 1.54946 23.5611 1.54946H10.9791C5.8071 1.54946 1.603 5.53792 1.603 10.4446V22.3813C1.603 27.2879 5.8071 31.2764 10.9791 31.2764H23.5611C28.7331 31.2764 32.9372 27.2879 32.9372 22.3813V10.4446V10.4446Z" fill="#724791"/>
<path opacity="0.87" d="M27.372 8.34993C27.372 9.29683 26.5554 10.1002 25.5271 10.1002C24.4987 10.1002 23.6821 9.32552 23.6821 8.34993C23.6821 7.37434 24.4987 6.5996 25.5271 6.5996C26.5554 6.5996 27.372 7.37434 27.372 8.34993ZM22.3211 16.126C22.3211 13.5435 20.1132 11.4489 17.3911 11.4489C14.669 11.4489 12.4611 13.5435 12.4611 16.126C12.4611 18.7084 14.669 20.8031 17.3911 20.8031C20.1132 20.8031 22.3211 18.7084 22.3211 16.126ZM25.0734 16.126C25.0734 20.1431 21.6254 23.4142 17.3911 23.4142C13.1567 23.4142 9.70876 20.1431 9.70876 16.126C9.70876 12.1088 13.1567 8.83772 17.3911 8.83772C21.6254 8.83772 25.0734 12.1088 25.0734 16.126ZM29.9127 22.2665C29.9127 25.6524 27.0393 28.3783 23.4704 28.3783H10.8581C7.28913 28.3783 4.41583 25.6524 4.41583 22.2665V10.3011C4.41583 6.91523 7.28913 4.18931 10.8581 4.18931H23.4704C27.0393 4.18931 29.9127 6.91523 29.9127 10.3011V22.2665ZM32.8162 10.3298C32.8162 5.42314 28.6121 1.43469 23.4402 1.43469H10.8581C5.68612 1.43469 1.48203 5.42314 1.48203 10.3298V22.2665C1.48203 27.1731 5.68612 31.1616 10.8581 31.1616H23.4402C28.6121 31.1616 32.8162 27.1731 32.8162 22.2665V10.3298Z" fill="#704490"/>
<path opacity="0.88" d="M27.2208 8.20645C27.2208 9.15335 26.4042 9.95678 25.3759 9.95678C24.3475 9.95678 23.5309 9.18205 23.5309 8.20645C23.5309 7.23086 24.3475 6.45613 25.3759 6.45613C26.4042 6.45613 27.2208 7.23086 27.2208 8.20645ZM22.1699 15.9825C22.1699 13.4001 19.9619 11.3054 17.2399 11.3054C14.5178 11.3054 12.3099 13.4001 12.3099 15.9825C12.3099 18.565 14.5178 20.6596 17.2399 20.6596C19.9619 20.6596 22.1699 18.565 22.1699 15.9825ZM24.9222 15.9825C24.9222 19.9997 21.4742 23.2708 17.2399 23.2708C13.0055 23.2708 9.55755 19.9997 9.55755 15.9825C9.55755 11.9654 13.0055 8.69425 17.2399 8.69425C21.4742 8.69425 24.9222 11.9654 24.9222 15.9825ZM29.7614 22.123C29.7614 25.5089 26.8881 28.2348 23.3192 28.2348H10.7069C7.13791 28.2348 4.26461 25.5089 4.26461 22.123V10.1576C4.26461 6.77176 7.13791 4.04584 10.7069 4.04584H23.3192C26.8881 4.04584 29.7614 6.77176 29.7614 10.1576V22.123ZM32.665 10.1863C32.665 5.27968 28.4609 1.29121 23.2889 1.29121H10.7069C5.53491 1.29121 1.33081 5.27968 1.33081 10.1863V22.123C1.33081 27.0297 5.53491 31.0181 10.7069 31.0181H23.2889C28.4609 31.0181 32.665 27.0297 32.665 22.123V10.1863V10.1863Z" fill="#6E428E"/>
<path opacity="0.89" d="M27.0998 8.09168C27.0998 9.03858 26.2832 9.842 25.2549 9.842C24.2265 9.842 23.4099 9.06727 23.4099 8.09168C23.4099 7.11609 24.2265 6.34135 25.2549 6.34135C26.2832 6.34135 27.0998 7.11609 27.0998 8.09168ZM22.0489 15.8677C22.0489 13.2853 19.8409 11.1906 17.1189 11.1906C14.3968 11.1906 12.1889 13.2853 12.1889 15.8677C12.1889 18.4502 14.3968 20.5448 17.1189 20.5448C19.8409 20.5448 22.0489 18.4502 22.0489 15.8677ZM24.8012 15.8677C24.8012 19.8849 21.3532 23.156 17.1189 23.156C12.8845 23.156 9.43655 19.8849 9.43655 15.8677C9.43655 11.8506 12.8845 8.57947 17.1189 8.57947C21.3532 8.57947 24.8012 11.8506 24.8012 15.8677ZM29.6404 22.0082C29.6404 25.3941 26.7671 28.12 23.1982 28.12H10.5859C7.01692 28.12 4.14361 25.3941 4.14361 22.0082V10.0429C4.14361 6.65699 7.01692 3.93106 10.5859 3.93106H23.1982C26.7671 3.93106 29.6404 6.65699 29.6404 10.0429V22.0082ZM32.544 10.0716C32.544 5.1649 28.3399 1.17645 23.1679 1.17645H10.5859C5.41392 1.17645 1.20981 5.1649 1.20981 10.0716V22.0082C1.20981 26.9149 5.41392 30.9033 10.5859 30.9033H23.1679C28.3399 30.9033 32.544 26.9149 32.544 22.0082V10.0716Z" fill="#6C3F8D"/>
<path opacity="0.9" d="M26.9789 7.97691C26.9789 8.92381 26.1622 9.72724 25.1339 9.72724C24.1055 9.72724 23.2889 8.9525 23.2889 7.97691C23.2889 7.00131 24.1055 6.22657 25.1339 6.22657C26.1622 6.22657 26.9789 7.00131 26.9789 7.97691ZM21.9279 15.753C21.9279 13.1705 19.72 11.0758 16.9979 11.0758C14.2758 11.0758 12.0679 13.1705 12.0679 15.753C12.0679 18.3354 14.2758 20.4301 16.9979 20.4301C19.72 20.4301 21.9279 18.3354 21.9279 15.753ZM24.6802 15.753C24.6802 19.7701 21.2322 23.0412 16.9979 23.0412C12.7635 23.0412 9.31558 19.7701 9.31558 15.753C9.31558 11.7358 12.7635 8.4647 16.9979 8.4647C21.2322 8.4647 24.6802 11.7358 24.6802 15.753ZM29.5195 21.8935C29.5195 25.2793 26.6462 28.0053 23.0772 28.0053H10.4649C6.89595 28.0053 4.02264 25.2793 4.02264 21.8935V9.92809C4.02264 6.54221 6.89595 3.81628 10.4649 3.81628H23.0772C26.6462 3.81628 29.5195 6.54221 29.5195 9.92809V21.8935ZM32.423 9.95678C32.423 5.05012 28.2189 1.06167 23.047 1.06167H10.4649C5.29295 1.06167 1.08884 5.05012 1.08884 9.95678V21.8935C1.08884 26.8001 5.29295 30.7886 10.4649 30.7886H23.047C28.2189 30.7886 32.423 26.8001 32.423 21.8935V9.95678V9.95678Z" fill="#6A3C8B"/>
<path opacity="0.92" d="M26.8276 7.86213C26.8276 8.80903 26.011 9.61246 24.9826 9.61246C23.9543 9.61246 23.1377 8.83772 23.1377 7.86213C23.1377 6.88654 23.9543 6.1118 24.9826 6.1118C26.011 6.1118 26.8276 6.88654 26.8276 7.86213ZM21.7766 15.6382C21.7766 13.0557 19.5687 10.9611 16.8467 10.9611C14.1246 10.9611 11.9167 13.0557 11.9167 15.6382C11.9167 18.2206 14.1246 20.3153 16.8467 20.3153C19.5687 20.3153 21.7766 18.2206 21.7766 15.6382ZM24.529 15.6382C24.529 19.6553 21.081 22.9264 16.8467 22.9264C12.6123 22.9264 9.16433 19.6553 9.16433 15.6382C9.16433 11.621 12.6123 8.34993 16.8467 8.34993C21.081 8.34993 24.529 11.621 24.529 15.6382ZM29.3682 21.7787C29.3682 25.1646 26.4949 27.8905 22.926 27.8905H10.3137C6.74471 27.8905 3.87139 25.1646 3.87139 21.7787V9.81332C3.87139 6.42743 6.74471 3.70151 10.3137 3.70151H22.926C26.4949 3.70151 29.3682 6.42743 29.3682 9.81332V21.7787ZM32.2718 9.84201C32.2718 4.93534 28.0677 0.946892 22.8957 0.946892H10.3137C5.1417 0.946892 0.937592 4.93534 0.937592 9.84201V21.7787C0.937592 26.6854 5.1417 30.6738 10.3137 30.6738H22.8957C28.0677 30.6738 32.2718 26.6854 32.2718 21.7787V9.84201V9.84201Z" fill="#683A8A"/>
<path opacity="0.93" d="M26.7066 7.71866C26.7066 8.66556 25.89 9.46899 24.8617 9.46899C23.8333 9.46899 23.0167 8.69425 23.0167 7.71866C23.0167 6.74306 23.8333 5.96833 24.8617 5.96833C25.89 5.96833 26.7066 6.74306 26.7066 7.71866ZM21.6557 15.4947C21.6557 12.9123 19.4478 10.8176 16.7257 10.8176C14.0036 10.8176 11.7957 12.9123 11.7957 15.4947C11.7957 18.0772 14.0036 20.1718 16.7257 20.1718C19.4478 20.1718 21.6557 18.0772 21.6557 15.4947ZM24.408 15.4947C24.408 19.5119 20.96 22.783 16.7257 22.783C12.4913 22.783 9.04336 19.5119 9.04336 15.4947C9.04336 11.4776 12.4913 8.20645 16.7257 8.20645C20.96 8.20645 24.408 11.4776 24.408 15.4947ZM29.2473 21.6352C29.2473 25.0211 26.3739 27.747 22.805 27.747H10.1927C6.62373 27.747 3.75042 25.0211 3.75042 21.6352V9.66985C3.75042 6.28396 6.62373 3.55804 10.1927 3.55804H22.805C26.3739 3.55804 29.2473 6.28396 29.2473 9.66985V21.6352ZM32.1508 9.69854C32.1508 4.79187 27.9467 0.803421 22.7748 0.803421H10.1927C5.02073 0.803421 0.81662 4.79187 0.81662 9.69854V21.6352C0.81662 26.5419 5.02073 30.5303 10.1927 30.5303H22.7748C27.9467 30.5303 32.1508 26.5419 32.1508 21.6352V9.69854V9.69854Z" fill="#663788"/>
<path opacity="0.94" d="M26.5857 7.60388C26.5857 8.55078 25.769 9.35421 24.7407 9.35421C23.7123 9.35421 22.8957 8.57948 22.8957 7.60388C22.8957 6.62829 23.7123 5.85355 24.7407 5.85355C25.769 5.85355 26.5857 6.62829 26.5857 7.60388ZM21.5347 15.3799C21.5347 12.7975 19.3268 10.7028 16.6047 10.7028C13.8826 10.7028 11.6747 12.7975 11.6747 15.3799C11.6747 17.9624 13.8826 20.057 16.6047 20.057C19.3268 20.057 21.5347 17.9624 21.5347 15.3799ZM24.287 15.3799C24.287 19.3971 20.839 22.6682 16.6047 22.6682C12.3703 22.6682 8.92238 19.3971 8.92238 15.3799C8.92238 11.3628 12.3703 8.09168 16.6047 8.09168C20.839 8.09168 24.287 11.3628 24.287 15.3799ZM29.1263 21.5204C29.1263 24.9063 26.253 27.6322 22.684 27.6322H10.0717C6.50275 27.6322 3.62944 24.9063 3.62944 21.5204V9.55507C3.62944 6.16919 6.50275 3.44326 10.0717 3.44326H22.684C26.253 3.44326 29.1263 6.16919 29.1263 9.55507V21.5204ZM32.0298 9.58377C32.0298 4.67711 27.8257 0.688644 22.6538 0.688644H10.0717C4.89975 0.688644 0.695648 4.67711 0.695648 9.58377V21.5204C0.695648 26.4271 4.89975 30.4156 10.0717 30.4156H22.6538C27.8257 30.4156 32.0298 26.4271 32.0298 21.5204V9.58377Z" fill="#643587"/>
<path opacity="0.95" d="M26.4647 7.48911C26.4647 8.43601 25.6481 9.23944 24.6197 9.23944C23.5914 9.23944 22.7748 8.4647 22.7748 7.48911C22.7748 6.51351 23.5914 5.73878 24.6197 5.73878C25.6481 5.73878 26.4647 6.51351 26.4647 7.48911ZM21.4137 15.2652C21.4137 12.6827 19.2058 10.5881 16.4837 10.5881C13.7616 10.5881 11.5537 12.6827 11.5537 15.2652C11.5537 17.8476 13.7616 19.9423 16.4837 19.9423C19.2058 19.9423 21.4137 17.8476 21.4137 15.2652ZM24.166 15.2652C24.166 19.2823 20.7181 22.5534 16.4837 22.5534C12.2494 22.5534 8.80142 19.2823 8.80142 15.2652C8.80142 11.248 12.2494 7.97691 16.4837 7.97691C20.7181 7.97691 24.166 11.248 24.166 15.2652ZM29.0053 21.4057C29.0053 24.7916 26.132 27.5175 22.563 27.5175H9.95073C6.38178 27.5175 3.50848 24.7916 3.50848 21.4057V9.44029C3.50848 6.05441 6.38178 3.32849 9.95073 3.32849H22.563C26.132 3.32849 29.0053 6.05441 29.0053 9.44029V21.4057ZM31.9089 9.46899C31.9089 4.56233 27.7047 0.573868 22.5328 0.573868H9.95073C4.77878 0.573868 0.574677 4.56233 0.574677 9.46899V21.4057C0.574677 26.3123 4.77878 30.3008 9.95073 30.3008H22.5328C27.7047 30.3008 31.9089 26.3123 31.9089 21.4057V9.46899V9.46899Z" fill="#623285"/>
<path opacity="0.96" d="M26.3134 7.34563C26.3134 8.29253 25.4968 9.09597 24.4685 9.09597C23.4401 9.09597 22.6235 8.32123 22.6235 7.34563C22.6235 6.37004 23.4401 5.5953 24.4685 5.5953C25.4968 5.5953 26.3134 6.37004 26.3134 7.34563ZM21.2625 15.1217C21.2625 12.5392 19.0546 10.4446 16.3325 10.4446C13.6104 10.4446 11.4025 12.5392 11.4025 15.1217C11.4025 17.7041 13.6104 19.7988 16.3325 19.7988C19.0546 19.7988 21.2625 17.7041 21.2625 15.1217ZM24.0148 15.1217C24.0148 19.1388 20.5668 22.4099 16.3325 22.4099C12.0981 22.4099 8.65016 19.1388 8.65016 15.1217C8.65016 11.1045 12.0981 7.83344 16.3325 7.83344C20.5668 7.83344 24.0148 11.1045 24.0148 15.1217ZM28.8541 21.2622C28.8541 24.6481 25.9808 27.374 22.4118 27.374H9.79949C6.23053 27.374 3.35722 24.6481 3.35722 21.2622V9.29682C3.35722 5.91094 6.23053 3.18501 9.79949 3.18501H22.4118C25.9808 3.18501 28.8541 5.91094 28.8541 9.29682V21.2622ZM31.7576 9.32552C31.7576 4.41886 27.5535 0.430397 22.3815 0.430397H9.79949C4.62753 0.430397 0.423431 4.41886 0.423431 9.32552V21.2622C0.423431 26.1689 4.62753 30.1573 9.79949 30.1573H22.3815C27.5535 30.1573 31.7576 26.1689 31.7576 21.2622V9.32552V9.32552Z" fill="#603084"/>
<path opacity="0.98" d="M26.1925 7.23086C26.1925 8.17776 25.3759 8.98119 24.3475 8.98119C23.3192 8.98119 22.5025 8.20645 22.5025 7.23086C22.5025 6.25526 23.3192 5.48054 24.3475 5.48054C25.3759 5.48054 26.1925 6.25526 26.1925 7.23086ZM21.1415 15.0069C21.1415 12.4245 18.9336 10.3298 16.2115 10.3298C13.4894 10.3298 11.2815 12.4245 11.2815 15.0069C11.2815 17.5894 13.4894 19.684 16.2115 19.684C18.9336 19.684 21.1415 17.5894 21.1415 15.0069ZM23.8938 15.0069C23.8938 19.0241 20.4459 22.2952 16.2115 22.2952C11.9772 22.2952 8.5292 19.0241 8.5292 15.0069C8.5292 10.9898 11.9772 7.71866 16.2115 7.71866C20.4459 7.71866 23.8938 10.9898 23.8938 15.0069ZM28.7331 21.1474C28.7331 24.5333 25.8598 27.2592 22.2908 27.2592H9.67851C6.10956 27.2592 3.23626 24.5333 3.23626 21.1474V9.18205C3.23626 5.79616 6.10956 3.07025 9.67851 3.07025H22.2908C25.8598 3.07025 28.7331 5.79616 28.7331 9.18205V21.1474ZM31.6366 9.21075C31.6366 4.30408 27.4325 0.31562 22.2606 0.31562H9.67851C4.50656 0.31562 0.30246 4.30408 0.30246 9.21075V21.1474C0.30246 26.0541 4.50656 30.0425 9.67851 30.0425H22.2606C27.4325 30.0425 31.6366 26.0541 31.6366 21.1474V9.21075Z" fill="#5E2D82"/>
<path opacity="0.99" d="M26.0715 7.11609C26.0715 8.06299 25.2549 8.86642 24.2265 8.86642C23.1982 8.86642 22.3815 8.09168 22.3815 7.11609C22.3815 6.14049 23.1982 5.36576 24.2265 5.36576C25.2549 5.36576 26.0715 6.14049 26.0715 7.11609ZM21.0205 14.8921C21.0205 12.3097 18.8126 10.215 16.0905 10.215C13.3684 10.215 11.1605 12.3097 11.1605 14.8921C11.1605 17.4746 13.3684 19.5693 16.0905 19.5693C18.8126 19.5693 21.0205 17.4746 21.0205 14.8921ZM23.7728 14.8921C23.7728 18.9093 20.3249 22.1804 16.0905 22.1804C11.8562 22.1804 8.4082 18.9093 8.4082 14.8921C8.4082 10.875 11.8562 7.60388 16.0905 7.60388C20.3249 7.60388 23.7728 10.875 23.7728 14.8921ZM28.6121 21.0326C28.6121 24.4185 25.7388 27.1444 22.1698 27.1444H9.55752C5.98857 27.1444 3.11526 24.4185 3.11526 21.0326V9.06728C3.11526 5.68139 5.98857 2.95547 9.55752 2.95547H22.1698C25.7388 2.95547 28.6121 5.68139 28.6121 9.06728V21.0326ZM31.5156 9.09596C31.5156 4.1893 27.3115 0.200851 22.1396 0.200851H9.55752C4.38557 0.200851 0.181458 4.1893 0.181458 9.09596V21.0326C0.181458 25.9393 4.38557 29.9278 9.55752 29.9278H22.1396C27.3115 29.9278 31.5156 25.9393 31.5156 21.0326V9.09596V9.09596Z" fill="#5C2B81"/>
<path d="M25.9203 6.97261C25.9203 7.91951 25.1036 8.72294 24.0753 8.72294C23.047 8.72294 22.2303 7.9482 22.2303 6.97261C22.2303 5.99702 23.047 5.22229 24.0753 5.22229C25.1036 5.22229 25.9203 5.99702 25.9203 6.97261ZM20.8693 14.7487C20.8693 12.1662 18.6614 10.0716 15.9393 10.0716C13.2172 10.0716 11.0093 12.1662 11.0093 14.7487C11.0093 17.3311 13.2172 19.4258 15.9393 19.4258C18.6614 19.4258 20.8693 17.3311 20.8693 14.7487ZM23.6216 14.7487C23.6216 18.7658 20.1736 22.0369 15.9393 22.0369C11.7049 22.0369 8.25698 18.7658 8.25698 14.7487C8.25698 10.7315 11.7049 7.46041 15.9393 7.46041C20.1736 7.46041 23.6216 10.7315 23.6216 14.7487ZM28.4609 20.8892C28.4609 24.2751 25.5876 27.001 22.0186 27.001H9.4063C5.83735 27.001 2.96405 24.2751 2.96405 20.8892V8.9238C2.96405 5.53791 5.83735 2.812 9.4063 2.812H22.0186C25.5876 2.812 28.4609 5.53791 28.4609 8.9238V20.8892ZM31.3644 8.9525C31.3644 4.04584 27.1603 0.057373 21.9884 0.057373H9.4063C4.23434 0.057373 0.0302429 4.04584 0.0302429 8.9525V20.8892C0.0302429 25.7958 4.23434 29.7843 9.4063 29.7843H21.9884C27.1603 29.7843 31.3644 25.7958 31.3644 20.8892V8.9525Z" fill="#5A287F"/>
</g>
<path d="M25.9203 6.97262C25.9203 7.91951 25.1036 8.72295 24.0753 8.72295C23.047 8.72295 22.2303 7.94821 22.2303 6.97262C22.2303 5.99702 23.047 5.22229 24.0753 5.22229C25.1036 5.22229 25.9203 5.99702 25.9203 6.97262ZM23.6519 14.7487C23.6519 18.7658 20.2039 22.0369 15.9695 22.0369C11.7352 22.0369 8.28722 18.7658 8.28722 14.7487C8.28722 10.7315 11.7352 7.46042 15.9695 7.46042C20.2039 7.46042 23.6519 10.7315 23.6519 14.7487ZM20.8995 14.7487C20.8995 12.1662 18.6916 10.0716 15.9695 10.0716C13.2475 10.0716 11.0395 12.1662 11.0395 14.7487C11.0395 17.3311 13.2475 19.4258 15.9695 19.4258C18.6916 19.4258 20.8995 17.3311 20.8995 14.7487ZM31.5459 8.89511C31.5459 3.98845 27.3418 0 22.1698 0H9.37605C4.2041 0 0 3.98845 0 8.89511V21.0326C0 25.9393 4.2041 29.9278 9.37605 29.9278H22.1698C27.3418 29.9278 31.5459 25.9393 31.5459 21.0326V8.89511V8.89511ZM28.4609 20.9179C28.4609 24.3038 25.5876 27.0297 22.0186 27.0297H9.49704C5.92809 27.0297 3.05478 24.3038 3.05478 20.9179V9.03858C3.05478 5.6527 5.92809 2.92677 9.49704 2.92677H22.0186C25.5876 2.92677 28.4609 5.6527 28.4609 9.03858V20.9179Z" fill="white"/>
</svg>
