<svg width="23" height="29" viewBox="0 0 23 29" fill="none" xmlns="http://www.w3.org/2000/svg">
<path d="M13.8453 15.6239L16.4007 16.3739C17.4707 12.9627 15.4771 9.35412 11.9507 8.31905L11.1753 10.791C13.2962 11.4135 14.4888 13.5722 13.8453 15.6239ZM18.956 17.124L21.5114 17.8741C23.4383 11.7314 19.8516 5.23913 13.5014 3.37524L12.726 5.84715C17.6707 7.2985 20.4564 12.3409 18.956 17.124ZM18.8768 21.8249C17.2797 21.3561 15.824 20.6589 14.5364 19.7815C14.4203 19.7069 14.2875 19.641 14.1597 19.6035C13.8275 19.506 13.4693 19.5358 13.1401 19.6956L9.47629 21.5897C6.4187 18.7486 4.35003 15.0234 3.6112 10.9733L7.27892 9.06691C7.73747 8.85057 7.99089 8.39855 7.98603 7.92471C7.9475 6.40169 8.1572 4.84354 8.64181 3.2986C8.85504 2.61883 8.45454 1.89389 7.75181 1.68762L3.27989 0.375027C2.57716 0.168762 1.82774 0.556178 1.6145 1.23595C-2.02593 12.8415 4.74697 25.1011 16.7445 28.6226C17.4472 28.8289 18.1967 28.4414 18.4099 27.7617L19.7668 23.4358C19.98 22.7561 19.5795 22.0311 18.8768 21.8249ZM3.82053 3.23321L5.73707 3.79575C5.48533 4.90964 5.3397 6.04117 5.31178 7.15327L3.30944 8.19874C3.26747 6.55322 3.42377 4.89842 3.82053 3.23321V3.23321ZM16.2538 25.7386C14.6022 25.1323 13.0675 24.3309 11.6932 23.3742L13.6917 22.341C14.6847 22.9564 15.7381 23.4681 16.8392 23.8723L16.2538 25.7386Z" fill="#A7AA19"/>
</svg>
