<svg width="44" height="54" viewBox="0 0 44 54" fill="none" xmlns="http://www.w3.org/2000/svg">
<path d="M44 5.33333H22H19.25H5.5V0H0V5.33333V32V53.3333H5.5V32H16.5H19.25H44L38.5 18.6667L44 5.33333ZM33.385 20.64L35.86 26.6667H19.25H16.5H5.5V10.6667H19.25H22H35.8875L33.4125 16.6933L32.5875 18.6667L33.385 20.64ZM24.75 18.6667C24.75 21.6 22.275 24 19.25 24C16.225 24 13.75 21.6 13.75 18.6667C13.75 15.7333 16.225 13.3333 19.25 13.3333C22.275 13.3333 24.75 15.7333 24.75 18.6667Z" fill="black"/>
</svg>
