<svg width="53" height="47" viewBox="0 0 53 47" fill="none" xmlns="http://www.w3.org/2000/svg">
<path d="M47.25 9.83333H39.375V4.91667C39.375 2.18792 37.0388 0 34.125 0H18.375C15.4612 0 13.125 2.18792 13.125 4.91667V9.83333H5.25C2.33625 9.83333 0 12.0212 0 14.75V41.7917C0 44.5204 2.33625 46.7083 5.25 46.7083H47.25C50.1638 46.7083 52.5 44.5204 52.5 41.7917V14.75C52.5 12.0212 50.1638 9.83333 47.25 9.83333ZM18.375 4.91667H34.125V9.83333H18.375V4.91667ZM47.25 41.7917H5.25V36.875H47.25V41.7917ZM47.25 29.5H5.25V14.75H13.125V19.6667H18.375V14.75H34.125V19.6667H39.375V14.75H47.25V29.5Z" fill="black"/>
</svg>
