<svg width="38" height="28" viewBox="0 0 38 28" fill="none" xmlns="http://www.w3.org/2000/svg">
<g style="mix-blend-mode:multiply" opacity="0.6">
<path opacity="0.01" d="M27.852 17.905L20.6858 21.3483C20.3847 21.4918 19.5717 21.2909 19.5717 20.9753V13.9166C19.5717 13.6009 20.4148 13.4001 20.7159 13.5722L27.6413 17.1877C27.9424 17.3598 28.1833 17.7616 27.8822 17.905H27.852ZM37.6981 14.2322C37.6981 10.875 34.8376 8.17778 31.3448 8.17778H15.0552C11.5323 8.17778 8.7019 10.9037 8.7019 14.2322V21.4631C8.7019 24.8203 11.5624 27.5175 15.0552 27.5175H31.3448C34.8677 27.5175 37.6981 24.7916 37.6981 21.4631V14.2322V14.2322Z" fill="#FDFCFC"/>
<path opacity="0.03" d="M27.7316 17.8189L20.5654 21.2622C20.2643 21.4057 19.4513 21.2048 19.4513 20.8892V13.8305C19.4513 13.5148 20.2944 13.314 20.5955 13.4862L27.5208 17.1016C27.8219 17.2738 28.0628 17.6755 27.7617 17.8189H27.7316ZM37.5777 14.1461C37.5777 10.7889 34.7172 8.09169 31.2244 8.09169H14.9347C11.4118 8.09169 8.58148 10.8176 8.58148 14.1461V21.377C8.58148 24.7342 11.442 27.4314 14.9347 27.4314H31.2244C34.7473 27.4314 37.5777 24.7055 37.5777 21.377V14.1461Z" fill="#FBF8F8"/>
<path opacity="0.04" d="M27.6413 17.7042L20.475 21.1474C20.1739 21.2909 19.3309 21.09 19.3309 20.7744V13.7157C19.3309 13.4001 20.1739 13.1992 20.475 13.3714L27.4004 16.9868C27.7015 17.159 27.9424 17.5607 27.6413 17.7042V17.7042ZM37.4873 14.0313C37.4873 10.6742 34.6269 7.97692 31.1341 7.97692H14.8444C11.3215 7.97692 8.49115 10.7028 8.49115 14.0313V21.2622C8.49115 24.6194 11.3516 27.3166 14.8444 27.3166H31.1341C34.657 27.3166 37.4873 24.5907 37.4873 21.2622V14.0313Z" fill="#F9F5F5"/>
<path opacity="0.05" d="M27.5208 17.6181L20.3546 21.0613C20.0535 21.2048 19.2104 21.004 19.2104 20.6883V13.6296C19.2104 13.314 20.0535 13.1131 20.3546 13.2853L27.2799 16.9007C27.581 17.0729 27.8219 17.4746 27.5208 17.6181V17.6181ZM37.3368 13.9453C37.3368 10.5881 34.4763 7.89083 30.9835 7.89083H14.6938C11.1709 7.89083 8.34058 10.6168 8.34058 13.9453V21.1761C8.34058 24.5333 11.2011 27.2305 14.6938 27.2305H30.9835C34.5064 27.2305 37.3368 24.5046 37.3368 21.1761V13.9453V13.9453Z" fill="#F7F2F2"/>
<path opacity="0.06" d="M27.4305 17.5033L20.2642 20.9466C19.9631 21.09 19.1201 20.8892 19.1201 20.5736V13.5148C19.1201 13.1992 19.9631 12.9984 20.2642 13.1705L27.1896 16.786C27.4907 16.9581 27.7316 17.3598 27.4305 17.5033V17.5033ZM37.2464 13.8305C37.2464 10.4733 34.386 7.77606 30.8932 7.77606H14.6035C11.0806 7.77606 8.25024 10.502 8.25024 13.8305V21.0613C8.25024 24.4185 11.1107 27.1158 14.6035 27.1158H30.8932C34.4161 27.1158 37.2464 24.3898 37.2464 21.0613V13.8305V13.8305Z" fill="#F5EFEF"/>
<path opacity="0.08" d="M27.3101 17.4172L20.1438 20.8605C19.8427 21.004 18.9996 20.8031 18.9996 20.4875V13.4288C18.9996 13.1131 19.8427 12.9123 20.1438 13.0844L27.0692 16.6999C27.3703 16.872 27.6112 17.2737 27.3101 17.4172V17.4172ZM37.126 13.7444C37.126 10.3872 34.2655 7.68997 30.7727 7.68997H14.4831C10.9602 7.68997 8.12982 10.4159 8.12982 13.7444V20.9753C8.12982 24.3325 10.9903 27.0297 14.4831 27.0297H30.7727C34.2956 27.0297 37.126 24.3038 37.126 20.9753V13.7444Z" fill="#F3EBEB"/>
<path opacity="0.09" d="M27.2197 17.3025L20.0535 20.7457C19.7524 20.8892 18.9093 20.6883 18.9093 20.3727V13.314C18.9093 12.9984 19.7825 12.7975 20.0535 12.9697L26.9788 16.5851C27.28 16.7573 27.5208 17.159 27.2197 17.3025V17.3025ZM37.0357 13.6296C37.0357 10.2724 34.1752 7.57521 30.6824 7.57521H14.3928C10.8699 7.57521 8.03949 10.3011 8.03949 13.6296V20.8605C8.03949 24.2177 10.9 26.9149 14.3928 26.9149H30.6824C34.2053 26.9149 37.0357 24.189 37.0357 20.8605V13.6296Z" fill="#F1E8E8"/>
<path opacity="0.1" d="M27.0993 17.1877L19.903 20.6309C19.6018 20.7744 18.7588 20.5736 18.7588 20.2579V13.1992C18.7588 12.8836 19.632 12.6827 19.903 12.8549L26.8283 16.4703C27.1294 16.6425 27.3703 17.0442 27.0692 17.1877H27.0993ZM36.9153 13.4862C36.9153 10.129 34.0548 7.43173 30.562 7.43173H14.2723C10.7494 7.43173 7.91907 10.1577 7.91907 13.4862V20.717C7.91907 24.0742 10.7795 26.7714 14.2723 26.7714H30.562C34.0849 26.7714 36.9153 24.0455 36.9153 20.717V13.4862V13.4862Z" fill="#EFE5E5"/>
<path opacity="0.12" d="M26.9788 17.1016L19.7825 20.5449C19.4814 20.6883 18.6383 20.4875 18.6383 20.1718V13.1131C18.6383 12.7975 19.5115 12.5966 19.7825 12.7688L26.7078 16.3842C27.0089 16.5564 27.2498 16.9581 26.9487 17.1016H26.9788ZM36.7948 13.4001C36.7948 10.0429 33.9343 7.34565 30.4415 7.34565H14.1519C10.629 7.34565 7.79858 10.0716 7.79858 13.4001V20.6309C7.79858 23.9881 10.6591 26.6854 14.1519 26.6854H30.4415C33.9644 26.6854 36.7948 23.9594 36.7948 20.6309V13.4001Z" fill="#EDE2E2"/>
<path opacity="0.13" d="M26.8885 16.9868L19.6921 20.4301C19.391 20.5736 18.5479 20.3727 18.5479 20.0571V12.9984C18.5479 12.6827 19.4211 12.4819 19.6921 12.654L26.6175 16.2695C26.9186 16.4416 27.1595 16.8433 26.8584 16.9868H26.8885ZM36.7044 13.2853C36.7044 9.9281 33.844 7.23087 30.3512 7.23087H14.0615C10.5386 7.23087 7.70825 9.9568 7.70825 13.2853V20.5162C7.70825 23.8734 10.5687 26.5706 14.0615 26.5706H30.3512C33.8741 26.5706 36.7044 23.8447 36.7044 20.5162V13.2853Z" fill="#EBDEDE"/>
<path opacity="0.14" d="M26.7681 16.9007L19.5717 20.344C19.2706 20.4875 18.4275 20.2866 18.4275 19.971V12.9123C18.4275 12.5966 19.3007 12.3958 19.5717 12.5679L26.4971 16.1834C26.7982 16.3555 27.0391 16.7573 26.738 16.9007H26.7681ZM36.5539 13.1992C36.5539 9.84202 33.6934 7.14479 30.2007 7.14479H13.911C10.3881 7.14479 7.55774 9.87072 7.55774 13.1992V20.4301C7.55774 23.7873 10.4182 26.4845 13.911 26.4845H30.2007C33.7236 26.4845 36.5539 23.7586 36.5539 20.4301V13.1992Z" fill="#E9DBDB"/>
<path opacity="0.15" d="M26.6778 16.786L19.4814 20.2292C19.1803 20.3727 18.3372 20.1718 18.3372 19.8562V12.7975C18.3372 12.4819 19.2104 12.281 19.4814 12.4532L26.4068 16.0686C26.7079 16.2408 26.9488 16.6425 26.6477 16.786H26.6778ZM36.4636 13.0844C36.4636 9.72725 33.6031 7.03001 30.1103 7.03001H13.8207C10.2978 7.03001 7.46741 9.75594 7.46741 13.0844V20.3153C7.46741 23.6725 10.3279 26.3697 13.8207 26.3697H30.1103C33.6332 26.3697 36.4636 23.6438 36.4636 20.3153V13.0844Z" fill="#E7D8D8"/>
<path opacity="0.17" d="M26.5573 16.6999L19.3609 20.1431C19.0598 20.2866 18.2167 20.0858 18.2167 19.7701V12.7114C18.2167 12.3958 19.0899 12.1949 19.391 12.3671L26.3164 15.9825C26.6175 16.1547 26.8584 16.5564 26.5573 16.6999V16.6999ZM36.3431 12.9984C36.3431 9.64117 33.4826 6.94394 29.9898 6.94394H13.7002C10.1773 6.94394 7.34692 9.66986 7.34692 12.9984V20.2292C7.34692 23.5864 10.2074 26.2836 13.7002 26.2836H29.9898C33.5127 26.2836 36.3431 23.5577 36.3431 20.2292V12.9984V12.9984Z" fill="#E4D4D4"/>
<path opacity="0.18" d="M26.4669 16.5851L19.2706 20.0284C18.9695 20.1718 18.1264 19.971 18.1264 19.6554V12.5966C18.1264 12.281 18.9996 12.0802 19.3007 12.2523L26.2261 15.8678C26.5272 16.0399 26.768 16.4416 26.4669 16.5851V16.5851ZM36.2528 12.8836C36.2528 9.52639 33.3923 6.82916 29.8995 6.82916H13.6099C10.087 6.82916 7.25659 9.55509 7.25659 12.8836V20.1145C7.25659 23.4716 10.1171 26.1689 13.6099 26.1689H29.8995C33.4224 26.1689 36.2528 23.443 36.2528 20.1145V12.8836V12.8836Z" fill="#E2D1D1"/>
<path opacity="0.19" d="M26.3465 16.499L19.1502 19.9423C18.8491 20.0858 18.006 19.8849 18.006 19.5693V12.5106C18.006 12.1949 18.8792 11.9941 19.1803 12.1662L26.1056 15.7817C26.4067 15.9538 26.6476 16.3555 26.3465 16.499V16.499ZM36.1323 12.7688C36.1323 9.41161 33.2719 6.71438 29.7791 6.71438H13.4894C9.96652 6.71438 7.13617 9.4403 7.13617 12.7688V19.9997C7.13617 23.3569 9.99663 26.0541 13.4894 26.0541H29.7791C33.302 26.0541 36.1323 23.3282 36.1323 19.9997V12.7688Z" fill="#E0CECE"/>
<path opacity="0.21" d="M26.2261 16.3842L19.0297 19.8275C18.7286 19.971 17.8856 19.7701 17.8856 19.4545V12.3958C17.8856 12.0801 18.7587 11.8793 19.0599 12.0515L25.9852 15.6669C26.2863 15.8391 26.5272 16.2408 26.2261 16.3842V16.3842ZM36.0119 12.654C36.0119 9.29683 33.1515 6.59961 29.6587 6.59961H13.369C9.84611 6.59961 7.01575 9.32552 7.01575 12.654V19.8849C7.01575 23.2421 9.87622 25.9393 13.369 25.9393H29.6587C33.1816 25.9393 36.0119 23.2134 36.0119 19.8849V12.654V12.654Z" fill="#DECBCB"/>
<path opacity="0.22" d="M26.1358 16.2695L18.9394 19.7127C18.6383 19.8562 17.7651 19.6553 17.7651 19.3397V12.281C17.7651 11.9654 18.6383 11.7645 18.9394 11.9367L25.8648 15.5521C26.1659 15.7243 26.4068 16.126 26.1056 16.2695H26.1358ZM35.9216 12.5393C35.9216 9.18206 33.0611 6.48483 29.5683 6.48483H13.2787C9.75577 6.48483 6.92542 9.21076 6.92542 12.5393V19.7701C6.92542 23.1273 9.78588 25.8245 13.2787 25.8245H29.5683C33.0912 25.8245 35.9216 23.0986 35.9216 19.7701V12.5393V12.5393Z" fill="#DCC7C7"/>
<path opacity="0.23" d="M26.0153 16.1834L18.8189 19.6266C18.5178 19.7701 17.6446 19.5693 17.6446 19.2536V12.1949C17.6446 11.8793 18.5178 11.6784 18.8189 11.8506L25.7443 15.466C26.0454 15.6382 26.2863 16.0399 25.9852 16.1834H26.0153ZM35.771 12.4532C35.771 9.09597 32.9106 6.39874 29.4178 6.39874H13.1281C9.60521 6.39874 6.77484 9.12467 6.77484 12.4532V19.684C6.77484 23.0412 9.63532 25.7385 13.1281 25.7385H29.4178C32.9407 25.7385 35.771 23.0125 35.771 19.684V12.4532V12.4532Z" fill="#DAC4C4"/>
<path opacity="0.24" d="M25.925 16.0686L18.7286 19.5119C18.4275 19.6554 17.5543 19.4545 17.5543 19.1389V12.0802C17.5543 11.7645 18.4275 11.5637 18.7286 11.7358L25.6841 15.3513C25.9852 15.5234 26.2261 15.9251 25.9551 16.0686H25.925ZM35.6807 12.3384C35.6807 8.98121 32.8202 6.28398 29.3274 6.28398H13.0378C9.51488 6.28398 6.68451 9.00991 6.68451 12.3384V19.5693C6.68451 22.9265 9.54499 25.6237 13.0378 25.6237H29.3274C32.8503 25.6237 35.6807 22.8978 35.6807 19.5693V12.3384V12.3384Z" fill="#D8C1C1"/>
<path opacity="0.26" d="M25.8045 15.9825L18.6082 19.4258C18.3071 19.5693 17.4339 19.3684 17.4339 19.0528V11.9941C17.4339 11.6784 18.3071 11.4776 18.6082 11.6497L25.5637 15.2652C25.8648 15.4373 26.1057 15.8391 25.8347 15.9825H25.8045ZM35.5603 12.2523C35.5603 8.89512 32.6998 6.19789 29.207 6.19789H12.9174C9.39445 6.19789 6.56409 8.92382 6.56409 12.2523V19.4832C6.56409 22.8404 9.42456 25.5376 12.9174 25.5376H29.207C32.7299 25.5376 35.5603 22.8117 35.5603 19.4832V12.2523Z" fill="#D6BEBE"/>
<path opacity="0.27" d="M25.7142 15.8678L18.5179 19.311C18.2168 19.4545 17.3436 19.2536 17.3436 18.938V11.8793C17.3436 11.5637 18.2469 11.3628 18.5179 11.535L25.4733 15.1504C25.7744 15.3226 26.0153 15.7243 25.7443 15.8678H25.7142ZM35.4699 12.1375C35.4699 8.78034 32.6095 6.08312 29.1167 6.08312H12.827C9.30412 6.08312 6.47375 8.80904 6.47375 12.1375V19.3684C6.47375 22.7256 9.33423 25.4228 12.827 25.4228H29.1167C32.6396 25.4228 35.4699 22.6969 35.4699 19.3684V12.1375Z" fill="#D4BABA"/>
<path opacity="0.28" d="M25.5938 15.7817L18.3673 19.2249C18.0662 19.3684 17.193 19.1675 17.193 18.8519V11.7932C17.193 11.4776 18.0963 11.2767 18.3673 11.4489L25.3228 15.0643C25.6239 15.2365 25.8648 15.6382 25.5938 15.7817V15.7817ZM35.3495 12.0228C35.3495 8.66558 32.489 5.96835 28.9963 5.96835H12.7066C9.1837 5.96835 6.35333 8.69427 6.35333 12.0228V19.2536C6.35333 22.6108 9.21381 25.3081 12.7066 25.3081H28.9963C32.5192 25.3081 35.3495 22.5821 35.3495 19.2536V12.0228V12.0228Z" fill="#D2B7B7"/>
<path opacity="0.29" d="M25.5035 15.6669L18.277 19.1102C17.9759 19.2536 17.1027 19.0528 17.1027 18.7371V11.6784C17.1027 11.3628 18.006 11.1619 18.277 11.3341L25.2325 14.9495C25.5336 15.1217 25.8046 15.5234 25.5035 15.6669V15.6669ZM35.2592 11.908C35.2592 8.55079 32.3987 5.85356 28.9059 5.85356H12.6163C9.09337 5.85356 6.263 8.57949 6.263 11.908V19.1389C6.263 22.496 9.12348 25.1933 12.6163 25.1933H28.9059C32.4288 25.1933 35.2592 22.4674 35.2592 19.1389V11.908V11.908Z" fill="#D0B4B4"/>
<path opacity="0.31" d="M25.383 15.5521L18.1565 18.9954C17.8554 19.1389 16.9822 18.938 16.9822 18.6224V11.5637C16.9822 11.248 17.8855 11.0472 18.1565 11.2193L25.112 14.8348C25.4131 15.0069 25.6841 15.4086 25.383 15.5521V15.5521ZM35.1387 11.7932C35.1387 8.43602 32.2782 5.73878 28.7854 5.73878H12.4958C8.97288 5.73878 6.14252 8.46471 6.14252 11.7932V19.0241C6.14252 22.3813 9.00299 25.0785 12.4958 25.0785H28.7854C32.3083 25.0785 35.1387 22.3526 35.1387 19.0241V11.7932Z" fill="#CEB1B1"/>
<path opacity="0.32" d="M25.2626 15.466L18.0361 18.9093C17.735 19.0528 16.8618 18.8519 16.8618 18.5363V11.4776C16.8618 11.1619 17.7651 10.9611 18.0361 11.1333L24.9916 14.7487C25.2927 14.9209 25.5637 15.3226 25.2626 15.466V15.466ZM34.9882 11.7071C34.9882 8.34994 32.1277 5.65271 28.6349 5.65271H12.3453C8.82237 5.65271 5.992 8.37864 5.992 11.7071V18.938C5.992 22.2952 8.85248 24.9924 12.3453 24.9924H28.6349C32.1578 24.9924 34.9882 22.2665 34.9882 18.938V11.7071V11.7071Z" fill="#CCADAD"/>
<path opacity="0.33" d="M25.1722 15.3513L17.9458 18.7945C17.6447 18.938 16.7715 18.7371 16.7715 18.4215V11.3628C16.7715 11.0472 17.6748 10.8463 17.9458 11.0185L24.9012 14.6339C25.2023 14.8061 25.4733 15.2078 25.1722 15.3513V15.3513ZM34.8978 11.5924C34.8978 8.23516 32.0374 5.53793 28.5446 5.53793H12.2549C8.73203 5.53793 5.90167 8.26386 5.90167 11.5924V18.8232C5.90167 22.1804 8.76214 24.8776 12.2549 24.8776H28.5446C32.0675 24.8776 34.8978 22.1517 34.8978 18.8232V11.5924V11.5924Z" fill="#CAAAAA"/>
<path opacity="0.35" d="M25.0518 15.2652L17.8253 18.7084C17.5242 18.8519 16.651 18.6511 16.651 18.3354V11.2767C16.651 10.9611 17.5543 10.7602 17.8554 10.9324L24.8109 14.5478C25.112 14.72 25.383 15.1217 25.0819 15.2652H25.0518ZM34.7774 11.5063C34.7774 8.14908 31.9169 5.45185 28.4241 5.45185H12.1345C8.61156 5.45185 5.78119 8.17778 5.78119 11.5063V18.7371C5.78119 22.0943 8.64167 24.7916 12.1345 24.7916H28.4241C31.947 24.7916 34.7774 22.0656 34.7774 18.7371V11.5063Z" fill="#C8A7A7"/>
<path opacity="0.36" d="M24.9614 15.1504L17.735 18.5937C17.4339 18.7371 16.5607 18.5363 16.5607 18.2207V11.1619C16.5607 10.8463 17.464 10.6454 17.7651 10.8176L24.7206 14.4331C25.0217 14.6052 25.2926 15.0069 24.9915 15.1504H24.9614ZM34.687 11.3628C34.687 8.00561 31.8266 5.30838 28.3338 5.30838H12.0441C8.52122 5.30838 5.69086 8.03431 5.69086 11.3628V18.5937C5.69086 21.9509 8.55133 24.6481 12.0441 24.6481H28.3338C31.8567 24.6481 34.687 21.9222 34.687 18.5937V11.3628Z" fill="#C6A3A3"/>
<path opacity="0.37" d="M24.841 15.0643L17.6145 18.5076C17.3134 18.6511 16.4402 18.4502 16.4402 18.1346V11.0759C16.4402 10.7602 17.3435 10.5594 17.6446 10.7315L24.6001 14.347C24.9012 14.5191 25.1722 14.9208 24.8711 15.0643H24.841ZM34.5666 11.2767C34.5666 7.91953 31.7061 5.2223 28.2134 5.2223H11.9237C8.4008 5.2223 5.57043 7.94822 5.57043 11.2767V18.5076C5.57043 21.8648 8.43091 24.562 11.9237 24.562H28.2134C31.7363 24.562 34.5666 21.8361 34.5666 18.5076V11.2767V11.2767Z" fill="#C4A0A0"/>
<path opacity="0.38" d="M24.7507 14.9495L17.5242 18.3928C17.2231 18.5363 16.3499 18.3354 16.3499 18.0198V10.9611C16.3499 10.6454 17.2532 10.4446 17.5543 10.6168L24.5098 14.2322C24.8109 14.4044 25.0819 14.8061 24.7808 14.9495H24.7507ZM34.4763 11.162C34.4763 7.80476 31.6158 5.10753 28.123 5.10753H11.8334C8.31047 5.10753 5.4801 7.83345 5.4801 11.162V18.3928C5.4801 21.75 8.34058 24.4472 11.8334 24.4472H28.123C31.6459 24.4472 34.4763 21.7213 34.4763 18.3928V11.162V11.162Z" fill="#C29D9D"/>
<path opacity="0.4" d="M24.6302 14.8635L17.4038 18.3067C17.1027 18.4502 16.1994 18.2493 16.1994 17.9337V10.875C16.1994 10.5594 17.1027 10.3585 17.4038 10.5307L24.3592 14.1461C24.6604 14.3183 24.9313 14.72 24.6302 14.8635V14.8635ZM34.3559 11.0759C34.3559 7.71867 31.4954 5.02144 28.0026 5.02144H11.7129C8.19004 5.02144 5.35968 7.74736 5.35968 11.0759V18.3067C5.35968 21.6639 8.22015 24.3612 11.7129 24.3612H28.0026C31.5255 24.3612 34.3559 21.6352 34.3559 18.3067V11.0759Z" fill="#C09A9A"/>
<path opacity="0.41" d="M24.5098 14.7487L17.2833 18.192C16.9822 18.3354 16.0789 18.1346 16.0789 17.8189V10.7602C16.0789 10.4446 16.9822 10.2437 17.2833 10.4159L24.2388 14.0313C24.5399 14.2035 24.8109 14.6052 24.5098 14.7487V14.7487ZM34.2053 10.9611C34.2053 7.60389 31.3448 4.90667 27.852 4.90667H11.5624C8.03947 4.90667 5.20911 7.63258 5.20911 10.9611V18.192C5.20911 21.5491 8.06958 24.2464 11.5624 24.2464H27.852C31.3749 24.2464 34.2053 21.5204 34.2053 18.192V10.9611Z" fill="#BE9696"/>
<path opacity="0.42" d="M24.4195 14.6339L17.193 18.0772C16.8919 18.2207 15.9886 18.0198 15.9886 17.7042V10.6455C15.9886 10.3298 16.8919 10.129 17.193 10.3011L24.1485 13.9166C24.4496 14.0887 24.7206 14.4904 24.4195 14.6339V14.6339ZM34.115 10.8463C34.115 7.48912 31.2545 4.79189 27.7617 4.79189H11.472C7.94914 4.79189 5.11877 7.51782 5.11877 10.8463V18.0772C5.11877 21.4344 7.97925 24.1316 11.472 24.1316H27.7617C31.2846 24.1316 34.115 21.4057 34.115 18.0772V10.8463Z" fill="#BC9393"/>
<path opacity="0.44" d="M24.299 14.5478L17.0726 17.9911C16.7715 18.1346 15.8682 17.9337 15.8682 17.6181V10.5594C15.8682 10.2437 16.8016 10.0429 17.0726 10.215L24.028 13.8305C24.3291 14.0026 24.6001 14.4043 24.299 14.5478V14.5478ZM33.9945 10.7602C33.9945 7.40303 31.1341 4.70581 27.6413 4.70581H11.3516C7.82872 4.70581 4.99835 7.43173 4.99835 10.7602V17.9911C4.99835 21.3483 7.85883 24.0455 11.3516 24.0455H27.6413C31.1642 24.0455 33.9945 21.3196 33.9945 17.9911V10.7602V10.7602Z" fill="#BA9090"/>
<path opacity="0.45" d="M24.2087 14.4331L16.9822 17.8763C16.6811 18.0198 15.7778 17.8189 15.7778 17.5033V10.4446C15.7778 10.129 16.7112 9.9281 16.9822 10.1003L23.9377 13.7157C24.2388 13.8879 24.5098 14.2896 24.2087 14.4331V14.4331ZM33.9042 10.6168C33.9042 7.25956 31.0437 4.56233 27.5509 4.56233H11.2613C7.73839 4.56233 4.90802 7.28826 4.90802 10.6168V17.8476C4.90802 21.2048 7.7685 23.902 11.2613 23.902H27.5509C31.0738 23.902 33.9042 21.1761 33.9042 17.8476V10.6168V10.6168Z" fill="#B88D8D"/>
<path opacity="0.46" d="M24.0883 14.347L16.8317 17.7902C16.5306 17.9337 15.6273 17.7328 15.6273 17.4172V10.3585C15.6273 10.0429 16.5607 9.84202 16.8317 10.0142L23.7872 13.6296C24.0883 13.8018 24.3593 14.2035 24.0582 14.347H24.0883ZM33.7838 10.5307C33.7838 7.17349 30.9233 4.47626 27.4305 4.47626H11.1409C7.61796 4.47626 4.7876 7.20218 4.7876 10.5307V17.7616C4.7876 21.1187 7.64807 23.816 11.1409 23.816H27.4305C30.9534 23.816 33.7838 21.09 33.7838 17.7616V10.5307Z" fill="#B68989"/>
<path opacity="0.47" d="M23.9979 14.2322L16.7414 17.6755C16.4403 17.8189 15.537 17.6181 15.537 17.3024V10.2437C15.537 9.9281 16.4704 9.72725 16.7414 9.89941L23.6968 13.5149C23.9979 13.687 24.2689 14.0887 23.9678 14.2322H23.9979ZM33.6935 10.4159C33.6935 7.05871 30.833 4.36148 27.3402 4.36148H11.0505C7.52763 4.36148 4.69727 7.08741 4.69727 10.4159V17.6468C4.69727 21.004 7.55774 23.7012 11.0505 23.7012H27.3402C30.8631 23.7012 33.6935 20.9753 33.6935 17.6468V10.4159Z" fill="#B48686"/>
<path opacity="0.49" d="M23.8775 14.1461L16.6209 17.5894C16.3198 17.7329 15.4165 17.532 15.4165 17.2164V10.1577C15.4165 9.84202 16.3499 9.64116 16.6209 9.81333L23.5764 13.4288C23.8775 13.6009 24.1485 14.0026 23.8474 14.1461H23.8775ZM33.573 10.3298C33.573 6.97263 30.7125 4.2754 27.2197 4.2754H10.93C7.40715 4.2754 4.57678 7.00132 4.57678 10.3298V17.5607C4.57678 20.9179 7.43726 23.6151 10.93 23.6151H27.2197C30.7426 23.6151 33.573 20.8892 33.573 17.5607V10.3298V10.3298Z" fill="#B28383"/>
<path opacity="0.5" d="M23.7872 14.0313L16.5306 17.4746C16.2295 17.6181 15.3262 17.4172 15.3262 17.1016V10.0429C15.3262 9.72724 16.2596 9.52639 16.5306 9.69855L23.4861 13.314C23.7872 13.4862 24.0581 13.8879 23.757 14.0313H23.7872ZM33.4525 10.215C33.4525 6.85785 30.5921 4.16062 27.0993 4.16062H10.8096C7.28673 4.16062 4.45636 6.88655 4.45636 10.215V17.4459C4.45636 20.8031 7.31684 23.5003 10.8096 23.5003H27.0993C30.6222 23.5003 33.4525 20.7744 33.4525 17.4459V10.215Z" fill="#AF7F7F"/>
<path opacity="0.51" d="M23.6667 13.9166L16.4101 17.3598C16.109 17.5033 15.2057 17.3024 15.2057 16.9868V9.92811C15.2057 9.61248 16.1392 9.41161 16.4101 9.58377L23.3656 13.1992C23.6667 13.3714 23.9377 13.7731 23.6366 13.9166H23.6667ZM33.3321 10.1003C33.3321 6.74308 30.4716 4.04585 26.9789 4.04585H10.6892C7.1663 4.04585 4.33594 6.77177 4.33594 10.1003V17.3311C4.33594 20.6883 7.19641 23.3856 10.6892 23.3856H26.9789C30.5018 23.3856 33.3321 20.6596 33.3321 17.3311V10.1003V10.1003Z" fill="#AD7C7C"/>
<path opacity="0.53" d="M23.5462 13.8305L16.2897 17.2737C15.9886 17.4172 15.0853 17.2164 15.0853 16.9007V9.84202C15.0853 9.52638 16.0187 9.32553 16.3198 9.49769L23.2752 13.1131C23.5763 13.2853 23.8473 13.687 23.5462 13.8305ZM33.2116 10.0142C33.2116 6.65699 30.3512 3.95976 26.8584 3.95976H10.5687C7.04582 3.95976 4.21545 6.68569 4.21545 10.0142V17.2451C4.21545 20.6022 7.07593 23.2995 10.5687 23.2995H26.8584C30.3813 23.2995 33.2116 20.5736 33.2116 17.2451V10.0142Z" fill="#AB7979"/>
<path opacity="0.54" d="M23.4559 13.7157L16.1993 17.159C15.8982 17.3024 14.9949 17.1016 14.9949 16.786V9.72725C14.9949 9.41162 15.9283 9.21075 16.2294 9.38292L23.1849 12.9984C23.486 13.1705 23.757 13.5722 23.4559 13.7157ZM33.1213 9.87072C33.1213 6.51353 30.2608 3.8163 26.768 3.8163H10.4784C6.95548 3.8163 4.12512 6.54222 4.12512 9.87072V17.1016C4.12512 20.4588 6.98559 23.156 10.4784 23.156H26.768C30.2909 23.156 33.1213 20.4301 33.1213 17.1016V9.87072Z" fill="#A97676"/>
<path opacity="0.55" d="M23.3355 13.6296L16.0789 17.0729C15.7778 17.2164 14.8745 17.0155 14.8745 16.6999V9.64116C14.8745 9.32553 15.8079 9.12467 16.109 9.29684L23.0645 12.9123C23.3656 13.0844 23.6366 13.4861 23.3355 13.6296V13.6296ZM33.0009 9.78463C33.0009 6.42744 30.1404 3.73022 26.6476 3.73022H10.358C6.83507 3.73022 4.0047 6.45613 4.0047 9.78463V17.0155C4.0047 20.3727 6.86518 23.0699 10.358 23.0699H26.6476C30.1705 23.0699 33.0009 20.344 33.0009 17.0155V9.78463V9.78463Z" fill="#A77272"/>
<path opacity="0.56" d="M23.2452 13.5148L15.9886 16.9581C15.6875 17.1016 14.7842 16.9007 14.7842 16.5851V9.52638C14.7842 9.21075 15.7176 9.0099 16.0187 9.18206L22.9742 12.7975C23.2753 12.9697 23.5463 13.3714 23.2452 13.5148V13.5148ZM32.9105 9.66986C32.9105 6.31267 30.0501 3.61544 26.5573 3.61544H10.2676C6.74472 3.61544 3.91437 6.34137 3.91437 9.66986V16.9007C3.91437 20.2579 6.77483 22.9551 10.2676 22.9551H26.5573C30.0802 22.9551 32.9105 20.2292 32.9105 16.9007V9.66986V9.66986Z" fill="#A56F6F"/>
<path opacity="0.58" d="M23.1247 13.4288L15.8682 16.872C15.5671 17.0155 14.6336 16.8146 14.6336 16.499V9.4403C14.6336 9.12467 15.5671 8.92382 15.8682 9.09598L22.8236 12.7114C23.1247 12.8836 23.3957 13.2853 23.0946 13.4288H23.1247ZM32.7901 9.58377C32.7901 6.22658 29.9297 3.52935 26.4369 3.52935H10.1472C6.62431 3.52935 3.79395 6.25528 3.79395 9.58377V16.8146C3.79395 20.1718 6.65442 22.8691 10.1472 22.8691H26.4369C29.9598 22.8691 32.7901 20.1431 32.7901 16.8146V9.58377Z" fill="#A36C6C"/>
<path opacity="0.59" d="M23.0344 13.314L15.7779 16.7573C15.4767 16.9007 14.5433 16.6999 14.5433 16.3842V9.32552C14.5433 9.00989 15.4767 8.80904 15.7779 8.9812L22.7333 12.5966C23.0344 12.7688 23.3054 13.1705 23.0344 13.314ZM32.6697 9.469C32.6697 6.11181 29.8092 3.41458 26.3164 3.41458H10.0268C6.50389 3.41458 3.67352 6.14051 3.67352 9.469V16.6999C3.67352 20.0571 6.534 22.7543 10.0268 22.7543H26.3164C29.8393 22.7543 32.6697 20.0284 32.6697 16.6999V9.469V9.469Z" fill="#A16969"/>
<path opacity="0.6" d="M22.9139 13.2279L15.6574 16.6712C15.3563 16.8147 14.4228 16.6138 14.4228 16.2982V9.23945C14.4228 8.92382 15.3563 8.72296 15.6574 8.89513L22.6429 12.5106C22.944 12.6827 23.215 13.0844 22.9441 13.2279H22.9139ZM32.5492 9.38292C32.5492 6.02573 29.6887 3.3285 26.196 3.3285H9.90631C6.38341 3.3285 3.55304 6.05442 3.55304 9.38292V16.6138C3.55304 19.971 6.41352 22.6682 9.90631 22.6682H26.196C29.7189 22.6682 32.5492 19.9423 32.5492 16.6138V9.38292Z" fill="#9F6565"/>
<path opacity="0.62" d="M22.7935 13.1131L15.5369 16.5564C15.2358 16.6999 14.3024 16.499 14.3024 16.1834V9.12467C14.3024 8.80904 15.266 8.60819 15.5369 8.78035L22.5225 12.3958C22.8236 12.5679 23.0946 12.9697 22.8236 13.1131H22.7935ZM32.4288 9.26814C32.4288 5.91095 29.5683 3.21373 26.0755 3.21373H9.78588C6.26298 3.21373 3.43262 5.93964 3.43262 9.26814V16.499C3.43262 19.8562 6.29309 22.5534 9.78588 22.5534H26.0755C29.5984 22.5534 32.4288 19.8275 32.4288 16.499V9.26814V9.26814Z" fill="#9D6262"/>
<path opacity="0.63" d="M22.7032 12.9984L15.4466 16.4416C15.1455 16.5851 14.2121 16.3842 14.2121 16.0686V9.00991C14.2121 8.69427 15.1756 8.49341 15.4466 8.66557L22.4322 12.281C22.7333 12.4532 23.0043 12.8549 22.7333 12.9984H22.7032ZM32.3385 9.12467C32.3385 5.76748 29.478 3.07025 25.9852 3.07025H9.69555C6.17265 3.07025 3.34229 5.79618 3.34229 9.12467V16.3555C3.34229 19.7127 6.20276 22.41 9.69555 22.41H25.9852C29.5081 22.41 32.3385 19.684 32.3385 16.3555V9.12467V9.12467Z" fill="#9B5F5F"/>
<path opacity="0.64" d="M22.5828 12.9123L15.2961 16.3555C14.995 16.499 14.0616 16.2981 14.0616 15.9825V8.92381C14.0616 8.60818 15.0251 8.40732 15.2961 8.57949L22.2817 12.1949C22.5828 12.3671 22.8839 12.7688 22.5828 12.9123ZM32.2181 9.03859C32.2181 5.6814 29.3576 2.98417 25.8648 2.98417H9.57513C6.05223 2.98417 3.22186 5.71009 3.22186 9.03859V16.2695C3.22186 19.6267 6.08234 22.3239 9.57513 22.3239H25.8648C29.3877 22.3239 32.2181 19.598 32.2181 16.2695V9.03859Z" fill="#995C5C"/>
<path opacity="0.65" d="M22.4924 12.7975L15.2058 16.2408C14.9047 16.3842 13.9712 16.1834 13.9712 15.8678V8.80904C13.9712 8.4934 14.9348 8.29255 15.2058 8.46471L22.1913 12.0802C22.4924 12.2523 22.7935 12.654 22.4924 12.7975ZM32.1277 8.92381C32.1277 5.56662 29.2672 2.86939 25.7745 2.86939H9.4848C5.9619 2.86939 3.13153 5.59532 3.13153 8.92381V16.1547C3.13153 19.5119 5.99201 22.2091 9.4848 22.2091H25.7745C29.2974 22.2091 32.1277 19.4832 32.1277 16.1547V8.92381Z" fill="#975858"/>
<path opacity="0.67" d="M22.372 12.7114L15.0853 16.1547C14.7842 16.2982 13.8508 16.0973 13.8508 15.7817V8.72296C13.8508 8.40733 14.8143 8.20647 15.0853 8.37864L22.0709 11.9941C22.372 12.1662 22.6731 12.5679 22.372 12.7114ZM31.9771 8.83774C31.9771 5.48055 29.1167 2.78332 25.6239 2.78332H9.33422C5.81132 2.78332 2.98096 5.50924 2.98096 8.83774V16.0686C2.98096 19.4258 5.84143 22.123 9.33422 22.123H25.6239C29.1468 22.123 31.9771 19.3971 31.9771 16.0686V8.83774V8.83774Z" fill="#955555"/>
<path opacity="0.68" d="M22.2816 12.5966L14.9949 16.0399C14.6938 16.1834 13.7604 15.9825 13.7604 15.6669V8.60818C13.7604 8.29254 14.7239 8.09169 14.9949 8.26385L21.9805 11.8793C22.2816 12.0515 22.5827 12.4532 22.2816 12.5966ZM31.8868 8.72295C31.8868 5.36576 29.0263 2.66853 25.5335 2.66853H9.24388C5.72098 2.66853 2.89062 5.39446 2.89062 8.72295V15.9538C2.89062 19.311 5.75109 22.0082 9.24388 22.0082H25.5335C29.0564 22.0082 31.8868 19.2823 31.8868 15.9538V8.72295V8.72295Z" fill="#935252"/>
<path opacity="0.69" d="M22.1612 12.5106L14.8745 15.9538C14.5734 16.0973 13.64 15.8964 13.64 15.5808V8.5221C13.64 8.20647 14.6035 8.00561 14.8745 8.17778L21.8601 11.7932C22.1612 11.9654 22.4623 12.3671 22.1612 12.5106ZM31.7664 8.63688C31.7664 5.27969 28.9059 2.58246 25.4131 2.58246H9.12347C5.60057 2.58246 2.7702 5.30838 2.7702 8.63688V15.8678C2.7702 19.2249 5.63068 21.9222 9.12347 21.9222H25.4131C28.936 21.9222 31.7664 19.1962 31.7664 15.8678V8.63688Z" fill="#914E4E"/>
<path opacity="0.71" d="M22.0709 12.3958L14.7842 15.8391C14.4831 15.9825 13.5497 15.7817 13.5497 15.466V8.40732C13.5497 8.09169 14.5132 7.89084 14.8143 8.063L21.7999 11.6784C22.101 11.8506 22.4021 12.2523 22.101 12.3958H22.0709ZM31.6761 8.5221C31.6761 5.16491 28.8156 2.46768 25.3228 2.46768H9.03314C5.51024 2.46768 2.67987 5.19361 2.67987 8.5221V15.753C2.67987 19.1102 5.54035 21.8074 9.03314 21.8074H25.3228C28.8457 21.8074 31.6761 19.0815 31.6761 15.753V8.5221Z" fill="#8F4B4B"/>
<path opacity="0.72" d="M21.9504 12.281L14.6637 15.7243C14.3626 15.8677 13.4292 15.6669 13.4292 15.3513V8.29255C13.4292 7.97692 14.3927 7.77606 14.6938 7.94822L21.6794 11.5637C21.9805 11.7358 22.2816 12.1375 21.9805 12.281H21.9504ZM31.5556 8.37863C31.5556 5.02144 28.6951 2.32421 25.2023 2.32421H8.91265C5.38975 2.32421 2.55939 5.05014 2.55939 8.37863V15.6095C2.55939 18.9667 5.41986 21.6639 8.91265 21.6639H25.2023C28.7252 21.6639 31.5556 18.938 31.5556 15.6095V8.37863V8.37863Z" fill="#8D4848"/>
<path opacity="0.73" d="M21.83 12.1949L14.5433 15.6382C14.2422 15.7817 13.3088 15.5808 13.3088 15.2652V8.20647C13.3088 7.89084 14.2723 7.68998 14.5734 7.86214L21.559 11.4776C21.8601 11.6497 22.1612 12.0515 21.8601 12.1949H21.83ZM31.4352 8.29256C31.4352 4.93537 28.5747 2.23814 25.0819 2.23814H8.79223C5.26933 2.23814 2.43896 4.96406 2.43896 8.29256V15.5234C2.43896 18.8806 5.29944 21.5778 8.79223 21.5778H25.0819C28.6048 21.5778 31.4352 18.8519 31.4352 15.5234V8.29256Z" fill="#8B4545"/>
<path opacity="0.74" d="M21.7396 12.0802L14.453 15.5234C14.1519 15.6669 13.2184 15.466 13.2184 15.1504V8.09168C13.2184 7.77605 14.182 7.5752 14.4831 7.74736L21.4686 11.3628C21.7697 11.535 22.0708 11.9367 21.7697 12.0802H21.7396ZM31.3448 8.17777C31.3448 4.82058 28.4843 2.12335 24.9916 2.12335H8.70189C5.17899 2.12335 2.34863 4.84928 2.34863 8.17777V15.4086C2.34863 18.7658 5.2091 21.4631 8.70189 21.4631H24.9916C28.5145 21.4631 31.3448 18.7371 31.3448 15.4086V8.17777Z" fill="#894141"/>
<path opacity="0.76" d="M21.6192 11.9941L14.3325 15.4373C14.0314 15.5808 13.0679 15.3799 13.0679 15.0643V8.00561C13.0679 7.68998 14.0314 7.48912 14.3325 7.66129L21.3181 11.2767C21.6192 11.4489 21.9203 11.8506 21.6192 11.9941ZM31.1942 8.09169C31.1942 4.7345 28.3338 2.03728 24.841 2.03728H8.55133C5.02843 2.03728 2.19806 4.76319 2.19806 8.09169V15.3226C2.19806 18.6798 5.05854 21.377 8.55133 21.377H24.841C28.3639 21.377 31.1942 18.6511 31.1942 15.3226V8.09169Z" fill="#873E3E"/>
<path opacity="0.77" d="M21.5289 11.8793L14.2422 15.3226C13.9411 15.466 12.9776 15.2652 12.9776 14.9495V7.89083C12.9776 7.5752 13.9411 7.37435 14.2422 7.54651L21.2278 11.162C21.5289 11.3341 21.83 11.7358 21.5289 11.8793ZM31.104 7.97692C31.104 4.61973 28.2435 1.9225 24.7507 1.9225H8.46106C4.93815 1.9225 2.10779 4.64843 2.10779 7.97692V15.2078C2.10779 18.565 4.96827 21.2622 8.46106 21.2622H24.7507C28.2736 21.2622 31.104 18.5363 31.104 15.2078V7.97692Z" fill="#853B3B"/>
<path opacity="0.78" d="M21.4084 11.7932L14.1217 15.2365C13.8206 15.3799 12.8571 15.1791 12.8571 14.8635V7.80475C12.8571 7.48912 13.8206 7.28826 14.1217 7.46043L21.1073 11.0759C21.4084 11.248 21.7095 11.6497 21.4084 11.7932ZM30.9835 7.89083C30.9835 4.53364 28.123 1.83642 24.6302 1.83642H8.34057C4.81767 1.83642 1.9873 4.56233 1.9873 7.89083V15.1217C1.9873 18.4789 4.84778 21.1761 8.34057 21.1761H24.6302C28.1531 21.1761 30.9835 18.4502 30.9835 15.1217V7.89083V7.89083Z" fill="#833838"/>
<path opacity="0.79" d="M21.3181 11.6784L14.0314 15.1217C13.7303 15.2652 12.7668 15.0643 12.7668 14.7487V7.68997C12.7668 7.37434 13.7604 7.17349 14.0314 7.34565L21.017 10.9611C21.3181 11.1332 21.6192 11.535 21.3181 11.6784ZM30.8932 7.77606C30.8932 4.41887 28.0327 1.72164 24.5399 1.72164H8.25024C4.72734 1.72164 1.89697 4.44757 1.89697 7.77606V15.0069C1.89697 18.3641 4.75745 21.0613 8.25024 21.0613H24.5399C28.0628 21.0613 30.8932 18.3354 30.8932 15.0069V7.77606V7.77606Z" fill="#813434"/>
<path opacity="0.81" d="M21.1977 11.5924L13.8809 15.0356C13.5798 15.1791 12.6163 14.9782 12.6163 14.6626V7.6039C12.6163 7.28826 13.6099 7.08741 13.8809 7.25957L20.8665 10.875C21.1676 11.0472 21.4687 11.4489 21.1676 11.5924H21.1977ZM30.7727 7.66129C30.7727 4.3041 27.9123 1.60686 24.4195 1.60686H8.12982C4.60692 1.60686 1.77655 4.33279 1.77655 7.66129V14.8922C1.77655 18.2493 4.63703 20.9466 8.12982 20.9466H24.4195C27.9424 20.9466 30.7727 18.2207 30.7727 14.8922V7.66129Z" fill="#7F3131"/>
<path opacity="0.82" d="M21.1073 11.4776L13.7905 14.9208C13.4894 15.0643 12.5259 14.8635 12.5259 14.5478V7.48912C12.5259 7.17349 13.5196 6.97263 13.7905 7.1448L20.7761 10.7602C21.0772 10.9324 21.3783 11.3341 21.0772 11.4776H21.1073ZM30.6824 7.54651C30.6824 4.18932 27.8219 1.49209 24.3291 1.49209H8.03949C4.51659 1.49209 1.68622 4.21801 1.68622 7.54651V14.7774C1.68622 18.1346 4.5467 20.8318 8.03949 20.8318H24.3291C27.852 20.8318 30.6824 18.1059 30.6824 14.7774V7.54651Z" fill="#7D2E2E"/>
<path opacity="0.83" d="M20.9869 11.3628L13.6701 14.8061C13.369 14.9495 12.4055 14.7487 12.4055 14.4331V7.37434C12.4055 7.0587 13.3991 6.85785 13.6701 7.03001L20.6557 10.6455C20.9568 10.8176 21.2579 11.2193 20.9568 11.3628H20.9869ZM30.562 7.43173C30.562 4.07454 27.7015 1.3773 24.2087 1.3773H7.91906C4.39616 1.3773 1.5658 4.10323 1.5658 7.43173V14.6626C1.5658 18.0198 4.42627 20.717 7.91906 20.717H24.2087C27.7316 20.717 30.562 17.9911 30.562 14.6626V7.43173V7.43173Z" fill="#7B2B2B"/>
<path opacity="0.85" d="M20.8664 11.2767L13.5497 14.72C13.2486 14.8635 12.285 14.6626 12.285 14.347V7.28826C12.285 6.97263 13.2787 6.77177 13.5497 6.94394L20.5352 10.5594C20.8363 10.7315 21.1374 11.1332 20.8363 11.2767H20.8664ZM30.4114 7.34565C30.4114 3.98846 27.5509 1.29123 24.0581 1.29123H7.76849C4.24559 1.29123 1.41522 4.01715 1.41522 7.34565V14.5765C1.41522 17.9337 4.2757 20.6309 7.76849 20.6309H24.0581C27.581 20.6309 30.4114 17.905 30.4114 14.5765V7.34565V7.34565Z" fill="#782727"/>
<path opacity="0.86" d="M20.7761 11.162L13.4593 14.6052C13.1582 14.7487 12.1947 14.5478 12.1947 14.2322V7.17348C12.1947 6.85785 13.1883 6.657 13.4593 6.82916L20.4449 10.4446C20.746 10.6168 21.0471 11.0185 20.746 11.162H20.7761ZM30.3211 7.23087C30.3211 3.87368 27.4606 1.17645 23.9678 1.17645H7.67816C4.15526 1.17645 1.32489 3.90238 1.32489 7.23087V14.4617C1.32489 17.8189 4.18537 20.5162 7.67816 20.5162H23.9678C27.4907 20.5162 30.3211 17.7902 30.3211 14.4617V7.23087V7.23087Z" fill="#762424"/>
<path opacity="0.87" d="M20.6557 11.0759L13.3389 14.5191C13.0378 14.6626 12.0743 14.4617 12.0743 14.1461V7.0874C12.0743 6.77177 13.0679 6.57091 13.3389 6.74308L20.3245 10.3585C20.6256 10.5307 20.9267 10.9324 20.6256 11.0759H20.6557ZM30.2007 7.14479C30.2007 3.7876 27.3402 1.09037 23.8474 1.09037H7.55774C4.03483 1.09037 1.20447 3.8163 1.20447 7.14479V14.3757C1.20447 17.7329 4.06494 20.4301 7.55774 20.4301H23.8474C27.3703 20.4301 30.2007 17.7042 30.2007 14.3757V7.14479Z" fill="#742121"/>
<path opacity="0.88" d="M20.5654 10.9611L13.2486 14.4044C12.9475 14.5478 11.9839 14.347 11.9839 14.0313V6.97263C11.9839 6.65699 12.9776 6.45614 13.2787 6.6283L20.2643 10.2437C20.5654 10.4159 20.8665 10.8176 20.5654 10.9611ZM30.1103 7.03001C30.1103 3.67282 27.2498 0.975594 23.757 0.975594H7.46739C3.94449 0.975594 1.11414 3.70152 1.11414 7.03001V14.2609C1.11414 17.6181 3.9746 20.3153 7.46739 20.3153H23.757C27.2799 20.3153 30.1103 17.5894 30.1103 14.2609V7.03001Z" fill="#721D1D"/>
<path opacity="0.9" d="M20.4449 10.875L13.1281 14.3183C12.827 14.4617 11.8635 14.2609 11.8635 13.9453V6.88655C11.8635 6.57091 12.8571 6.37006 13.1582 6.54222L20.1438 10.1577C20.4449 10.3298 20.746 10.7315 20.4449 10.875ZM29.9898 6.91524C29.9898 3.55805 27.1294 0.860825 23.6366 0.860825H7.34692C3.82402 0.860825 0.993652 3.58674 0.993652 6.91524V14.1461C0.993652 17.5033 3.85413 20.2005 7.34692 20.2005H23.6366C27.1595 20.2005 29.9898 17.4746 29.9898 14.1461V6.91524V6.91524Z" fill="#701A1A"/>
<path opacity="0.91" d="M20.3546 10.7602L13.0378 14.2035C12.7367 14.347 11.7732 14.1461 11.7732 13.8305V6.77177C11.7732 6.45614 12.7668 6.25528 13.0679 6.42745L20.0535 10.0429C20.3546 10.215 20.6557 10.6168 20.3546 10.7602ZM29.8996 6.80047C29.8996 3.44328 27.0391 0.746048 23.5463 0.746048H7.25664C3.73374 0.746048 0.903381 3.47197 0.903381 6.80047V14.0313C0.903381 17.3885 3.76385 20.0858 7.25664 20.0858H23.5463C27.0692 20.0858 29.8996 17.3598 29.8996 14.0313V6.80047V6.80047Z" fill="#6E1717"/>
<path opacity="0.92" d="M20.2341 10.6741L12.9173 14.1174C12.6162 14.2609 11.6226 14.06 11.6226 13.7444V6.68569C11.6226 6.37006 12.6162 6.1692 12.9173 6.34137L19.9029 9.9568C20.204 10.129 20.5051 10.5307 20.204 10.6741H20.2341ZM29.7791 6.71438C29.7791 3.35719 26.9186 0.659958 23.4258 0.659958H7.13617C3.61326 0.659958 0.782898 3.38588 0.782898 6.71438V13.9453C0.782898 17.3024 3.64337 19.9997 7.13617 19.9997H23.4258C26.9487 19.9997 29.7791 17.2737 29.7791 13.9453V6.71438Z" fill="#6C1414"/>
<path opacity="0.94" d="M20.1137 10.5594L12.7969 14.0026C12.4958 14.1461 11.5022 13.9452 11.5022 13.6296V6.57091C11.5022 6.25528 12.4958 6.05442 12.7969 6.22659L19.7825 9.84202C20.0836 10.0142 20.3847 10.4159 20.0836 10.5594H20.1137ZM29.6286 6.59961C29.6286 3.24242 26.7681 0.545189 23.2753 0.545189H6.98564C3.46274 0.545189 0.632385 3.27111 0.632385 6.59961V13.8305C0.632385 17.1877 3.49285 19.8849 6.98564 19.8849H23.2753C26.7982 19.8849 29.6286 17.159 29.6286 13.8305V6.59961Z" fill="#6A1010"/>
<path opacity="0.95" d="M20.0234 10.4446L12.7066 13.8879C12.4055 14.0313 11.4119 13.8305 11.4119 13.5148V6.45613C11.4119 6.1405 12.4055 5.93965 12.7066 6.11181L19.7223 9.72725C20.0234 9.89941 20.3245 10.3011 20.0535 10.4446H20.0234ZM29.5382 6.48483C29.5382 3.12764 26.6778 0.430412 23.185 0.430412H6.89532C3.37242 0.430412 0.542053 3.15634 0.542053 6.48483V13.7157C0.542053 17.0729 3.40253 19.7701 6.89532 19.7701H23.185C26.7079 19.7701 29.5382 17.0442 29.5382 13.7157V6.48483Z" fill="#680D0D"/>
<path opacity="0.96" d="M19.9029 10.3585L12.5861 13.8018C12.285 13.9453 11.2914 13.7444 11.2914 13.4288V6.37006C11.2914 6.05443 12.285 5.85357 12.5861 6.02573L19.6018 9.64117C19.9029 9.81333 20.204 10.215 19.933 10.3585H19.9029ZM29.4178 6.39875C29.4178 3.04156 26.5573 0.344337 23.0645 0.344337H6.77484C3.25194 0.344337 0.42157 3.07025 0.42157 6.39875V13.6296C0.42157 16.9868 3.28205 19.684 6.77484 19.684H23.0645C26.5874 19.684 29.4178 16.9581 29.4178 13.6296V6.39875Z" fill="#660A0A"/>
<path opacity="0.97" d="M19.8126 10.2437L12.4958 13.687C12.1947 13.8305 11.201 13.6296 11.201 13.314V6.25527C11.201 5.93964 12.2248 5.73879 12.4958 5.91095L19.5115 9.52638C19.8126 9.69855 20.1137 10.1003 19.8427 10.2437H19.8126ZM29.3274 6.28397C29.3274 2.92678 26.4669 0.229553 22.9742 0.229553H6.68451C3.1616 0.229553 0.331238 2.95548 0.331238 6.28397V13.5148C0.331238 16.872 3.19171 19.5693 6.68451 19.5693H22.9742C26.4971 19.5693 29.3274 16.8433 29.3274 13.5148V6.28397Z" fill="#640707"/>
<path opacity="0.99" d="M19.6922 10.1577L12.3453 13.6009C12.0442 13.7444 11.0505 13.5435 11.0505 13.2279V6.1692C11.0505 5.85356 12.0743 5.65271 12.3453 5.82487L19.3609 9.4403C19.662 9.61247 19.9632 10.0142 19.6922 10.1577ZM29.207 6.1692C29.207 2.81201 26.3465 0.114777 22.8537 0.114777H6.56408C3.04118 0.114777 0.210815 2.8407 0.210815 6.1692V13.4001C0.210815 16.7573 3.07129 19.4545 6.56408 19.4545H22.8537C26.3766 19.4545 29.207 16.7286 29.207 13.4001V6.1692Z" fill="#620303"/>
<path d="M19.6018 10.0429L12.2549 13.4861C11.9538 13.6296 10.9602 13.4288 10.9602 13.1131V6.05442C10.9602 5.73879 11.9839 5.53793 12.2549 5.7101L19.2706 9.32553C19.5717 9.49769 19.9029 9.89941 19.6018 10.0429ZM29.1167 6.05442C29.1167 2.69723 26.2562 0 22.7634 0H6.47375C2.95085 0 0.120483 2.72593 0.120483 6.05442V13.2853C0.120483 16.6425 2.98096 19.3397 6.47375 19.3397H22.7634C26.2863 19.3397 29.1167 16.6138 29.1167 13.2853V6.05442Z" fill="#600000"/>
</g>
<path d="M29.0865 6.05442C29.0865 2.69723 26.226 0 22.7333 0H6.35327C2.83037 0 0 2.72593 0 6.05442V12.9123C0 16.2695 2.86048 18.9667 6.35327 18.9667H22.7333C26.2562 18.9667 29.0865 16.2408 29.0865 12.9123V6.05442ZM20.0836 9.66986L12.7668 13.1131C12.4958 13.2566 11.472 13.0557 11.472 12.7401V5.6814C11.472 5.36576 12.4657 5.16491 12.7668 5.33707L19.7824 8.95251C20.0835 9.12468 20.3846 9.52639 20.1137 9.66986H20.0836Z" fill="white"/>
</svg>
